  0
SECTION
  2
HEADER
  9
$ACADVER
  1
AC1032
  9
$ACADMAINTVER
 90
4
  9
$DWGCODEPAGE
  3
ANSI_1252
  9
$LASTSAVEDBY
  1
dario
  9
$REQUIREDVERSIONS
160
0
  9
$INSBASE
 10
0.0
 20
0.0
 30
0.0
  9
$EXTMIN
 10
0.0
 20
0.0
 30
0.0
  9
$EXTMAX
 10
0.0
 20
0.0
 30
0.0
  9
$LIMMIN
 10
0.0
 20
0.0
  9
$LIMMAX
 10
12.0
 20
9.0
  9
$ORTHOMODE
 70
0
  9
$REGENMODE
 70
1
  9
$FILLMODE
 70
1
  9
$QTEXTMODE
 70
0
  9
$MIRRTEXT
 70
0
  9
$LTSCALE
 40
1.0
  9
$ATTMODE
 70
1
  9
$TEXTSIZE
 40
2.5
  9
$TRACEWID
 40
1.0
  9
$TEXTSTYLE
  7
Standard
  9
$CLAYER
  8
0
  9
$CELTYPE
  6
ByLayer
  9
$CECOLOR
 62
256
  9
$CELTSCALE
 40
1.0
  9
$DISPSILH
 70
0
  9
$DIMSCALE
 40
1.0
  9
$DIMASZ
 40
2.5
  9
$DIMEXO
 40
0.625
  9
$DIMDLI
 40
3.75
  9
$DIMRND
 40
0.0
  9
$DIMDLE
 40
0.0
  9
$DIMEXE
 40
1.25
  9
$DIMTP
 40
0.0
  9
$DIMTM
 40
0.0
  9
$DIMTXT
 40
2.5
  9
$DIMCEN
 40
2.5
  9
$DIMTSZ
 40
0.0
  9
$DIMTOL
 70
0
  9
$DIMLIM
 70
0
  9
$DIMTIH
 70
0
  9
$DIMTOH
 70
0
  9
$DIMSE1
 70
0
  9
$DIMSE2
 70
0
  9
$DIMTAD
 70
1
  9
$DIMZIN
 70
8
  9
$DIMBLK
  1

  9
$DIMASO
 70
1
  9
$DIMSHO
 70
1
  9
$DIMPOST
  1

  9
$DIMAPOST
  1

  9
$DIMALT
 70
0
  9
$DIMALTD
 70
3
  9
$DIMALTF
 40
0.03937007874016
  9
$DIMLFAC
 40
1.0
  9
$DIMTOFL
 70
1
  9
$DIMTVP
 40
0.0
  9
$DIMTIX
 70
0
  9
$DIMSOXD
 70
0
  9
$DIMSAH
 70
0
  9
$DIMBLK1
  1

  9
$DIMBLK2
  1

  9
$DIMSTYLE
  2
ISO-25
  9
$DIMCLRD
 70
0
  9
$DIMCLRE
 70
0
  9
$DIMCLRT
 70
0
  9
$DIMTFAC
 40
1.0
  9
$DIMGAP
 40
0.625
  9
$DIMJUST
 70
0
  9
$DIMSD1
 70
0
  9
$DIMSD2
 70
0
  9
$DIMTOLJ
 70
0
  9
$DIMTZIN
 70
8
  9
$DIMALTZ
 70
0
  9
$DIMALTTZ
 70
0
  9
$DIMUPT
 70
0
  9
$DIMDEC
 70
2
  9
$DIMTDEC
 70
2
  9
$DIMALTU
 70
2
  9
$DIMALTTD
 70
3
  9
$DIMTXSTY
  7
Standard
  9
$DIMAUNIT
 70
0
  9
$DIMADEC
 70
0
  9
$DIMALTRND
 40
0.0
  9
$DIMAZIN
 70
0
  9
$DIMDSEP
 70
44
  9
$DIMATFIT
 70
3
  9
$DIMFRAC
 70
0
  9
$DIMLDRBLK
  1

  9
$DIMLUNIT
 70
2
  9
$DIMLWD
 70
-2
  9
$DIMLWE
 70
-2
  9
$DIMTMOVE
 70
0
  9
$DIMFXL
 40
1.0
  9
$DIMFXLON
 70
0
  9
$DIMJOGANG
 40
0.7853981633974483
  9
$DIMTFILL
 70
0
  9
$DIMTFILLCLR
 70
0
  9
$DIMARCSYM
 70
0
  9
$DIMLTYPE
  6

  9
$DIMLTEX1
  6

  9
$DIMLTEX2
  6

  9
$DIMTXTDIRECTION
 70
0
  9
$LUNITS
 70
2
  9
$LUPREC
 70
4
  9
$SKETCHINC
 40
1.0
  9
$FILLETRAD
 40
0.0
  9
$AUNITS
 70
0
  9
$AUPREC
 70
0
  9
$MENU
  1
.
  9
$ELEVATION
 40
0.0
  9
$PELEVATION
 40
0.0
  9
$THICKNESS
 40
0.0
  9
$LIMCHECK
 70
0
  9
$CHAMFERA
 40
0.0
  9
$CHAMFERB
 40
0.0
  9
$CHAMFERC
 40
0.0
  9
$CHAMFERD
 40
0.0
  9
$SKPOLY
 70
0
  9
$TDCREATE
 40
2459923.747476852
  9
$TDUCREATE
 40
2459923.695729167
  9
$TDUPDATE
 40
2459923.747488426
  9
$TDUUPDATE
 40
2459923.705752315
  9
$TDINDWG
 40
0.0064699074
  9
$TDUSRTIMER
 40
0.0064699074
  9
$USRTIMER
 70
1
  9
$ANGBASE
 50
0.0
  9
$ANGDIR
 70
0
  9
$PDMODE
 70
0
  9
$PDSIZE
 40
0.0
  9
$PLINEWID
 40
0.0
  9
$SPLFRAME
 70
0
  9
$SPLINETYPE
 70
6
  9
$SPLINESEGS
 70
8
  9
$HANDSEED
  5
A6F
  9
$SURFTAB1
 70
6
  9
$SURFTAB2
 70
6
  9
$SURFTYPE
 70
6
  9
$SURFU
 70
6
  9
$SURFV
 70
6
  9
$UCSBASE
  2

  9
$UCSNAME
  2

  9
$UCSORG
 10
0.0
 20
0.0
 30
0.0
  9
$UCSXDIR
 10
1.0
 20
0.0
 30
0.0
  9
$UCSYDIR
 10
0.0
 20
1.0
 30
0.0
  9
$UCSORTHOREF
  2

  9
$UCSORTHOVIEW
 70
0
  9
$UCSORGTOP
 10
0.0
 20
0.0
 30
0.0
  9
$UCSORGBOTTOM
 10
0.0
 20
0.0
 30
0.0
  9
$UCSORGLEFT
 10
0.0
 20
0.0
 30
0.0
  9
$UCSORGRIGHT
 10
0.0
 20
0.0
 30
0.0
  9
$UCSORGFRONT
 10
0.0
 20
0.0
 30
0.0
  9
$UCSORGBACK
 10
0.0
 20
0.0
 30
0.0
  9
$PUCSBASE
  2

  9
$PUCSNAME
  2

  9
$PUCSORG
 10
0.0
 20
0.0
 30
0.0
  9
$PUCSXDIR
 10
1.0
 20
0.0
 30
0.0
  9
$PUCSYDIR
 10
0.0
 20
1.0
 30
0.0
  9
$PUCSORTHOREF
  2

  9
$PUCSORTHOVIEW
 70
0
  9
$PUCSORGTOP
 10
0.0
 20
0.0
 30
0.0
  9
$PUCSORGBOTTOM
 10
0.0
 20
0.0
 30
0.0
  9
$PUCSORGLEFT
 10
0.0
 20
0.0
 30
0.0
  9
$PUCSORGRIGHT
 10
0.0
 20
0.0
 30
0.0
  9
$PUCSORGFRONT
 10
0.0
 20
0.0
 30
0.0
  9
$PUCSORGBACK
 10
0.0
 20
0.0
 30
0.0
  9
$USERI1
 70
0
  9
$USERI2
 70
0
  9
$USERI3
 70
0
  9
$USERI4
 70
0
  9
$USERI5
 70
0
  9
$USERR1
 40
0.0
  9
$USERR2
 40
0.0
  9
$USERR3
 40
0.0
  9
$USERR4
 40
0.0
  9
$USERR5
 40
0.0
  9
$WORLDVIEW
 70
1
  9
$SHADEDGE
 70
3
  9
$SHADEDIF
 70
70
  9
$TILEMODE
 70
1
  9
$MAXACTVP
 70
64
  9
$PINSBASE
 10
0.0
 20
0.0
 30
0.0
  9
$PLIMCHECK
 70
0
  9
$PEXTMIN
 10
0.0
 20
0.0
 30
0.0
  9
$PEXTMAX
 10
0.0
 20
0.0
 30
0.0
  9
$PLIMMIN
 10
0.0
 20
0.0
  9
$PLIMMAX
 10
12.0
 20
9.0
  9
$UNITMODE
 70
0
  9
$VISRETAIN
 70
1
  9
$PLINEGEN
 70
0
  9
$PSLTSCALE
 70
1
  9
$TREEDEPTH
 70
3020
  9
$CMLSTYLE
  2
Standard
  9
$CMLJUST
 70
0
  9
$CMLSCALE
 40
20.0
  9
$PROXYGRAPHICS
 70
1
  9
$MEASUREMENT
 70
1
  9
$CELWEIGHT
370
-1
  9
$ENDCAPS
280
0
  9
$JOINSTYLE
280
0
  9
$LWDISPLAY
290
1
  9
$INSUNITS
 70
4
  9
$HYPERLINKBASE
  1

  9
$STYLESHEET
  1

  9
$XEDIT
290
1
  9
$CEPSNTYPE
380
0
  9
$PSTYLEMODE
290
1
  9
$FINGERPRINTGUID
  2
{C9C71118-BD7A-4F7D-8E15-47C7CE48AA16}
  9
$VERSIONGUID
  2
{F31BAAF5-41CD-44F5-9F1A-8F3ADFE948DD}
  9
$EXTNAMES
290
1
  9
$PSVPSCALE
 40
0.0
  9
$OLESTARTUP
290
0
  9
$SORTENTS
280
127
  9
$INDEXCTL
280
0
  9
$HIDETEXT
280
1
  9
$XCLIPFRAME
280
2
  9
$HALOGAP
280
0
  9
$OBSCOLOR
 70
257
  9
$OBSLTYPE
280
0
  9
$INTERSECTIONDISPLAY
280
0
  9
$INTERSECTIONCOLOR
 70
257
  9
$DIMASSOC
280
2
  9
$PROJECTNAME
  1

  9
$CAMERADISPLAY
290
0
  9
$LENSLENGTH
 40
50.0
  9
$CAMERAHEIGHT
 40
0.0
  9
$STEPSPERSEC
 40
2.0
  9
$STEPSIZE
 40
6.0
  9
$3DDWFPREC
 40
2.0
  9
$PSOLWIDTH
 40
5.0
  9
$PSOLHEIGHT
 40
80.0
  9
$LOFTANG1
 40
1.570796326794896
  9
$LOFTANG2
 40
1.570796326794896
  9
$LOFTMAG1
 40
0.0
  9
$LOFTMAG2
 40
0.0
  9
$LOFTPARAM
 70
7
  9
$LOFTNORMALS
280
1
  9
$LATITUDE
 40
37.795
  9
$LONGITUDE
 40
-122.394
  9
$NORTHDIRECTION
 40
0.0
  9
$TIMEZONE
 70
-8000
  9
$LIGHTGLYPHDISPLAY
280
1
  9
$TILEMODELIGHTSYNCH
280
1
  9
$CMATERIAL
347
EC
  9
$SOLIDHIST
280
0
  9
$SHOWHIST
280
1
  9
$DWFFRAME
280
2
  9
$DGNFRAME
280
0
  9
$REALWORLDSCALE
290
1
  9
$INTERFERECOLOR
 62
1
  9
$INTERFEREOBJVS
345
F9
  9
$INTERFEREVPVS
346
F6
  9
$CSHADOW
280
0
  9
$SHADOWPLANELOCATION
 40
0.0
  0
ENDSEC
  0
SECTION
  2
CLASSES
  0
CLASS
  1
ACDBDICTIONARYWDFLT
  2
AcDbDictionaryWithDefault
  3
ObjectDBX Classes
 90
0
 91
1
280
0
281
0
  0
CLASS
  1
DICTIONARYVAR
  2
AcDbDictionaryVar
  3
ObjectDBX Classes
 90
0
 91
12
280
0
281
0
  0
CLASS
  1
TABLESTYLE
  2
AcDbTableStyle
  3
ObjectDBX Classes
 90
4095
 91
1
280
0
281
0
  0
CLASS
  1
MATERIAL
  2
AcDbMaterial
  3
ObjectDBX Classes
 90
1153
 91
3
280
0
281
0
  0
CLASS
  1
VISUALSTYLE
  2
AcDbVisualStyle
  3
ObjectDBX Classes
 90
4095
 91
24
280
0
281
0
  0
CLASS
  1
SCALE
  2
AcDbScale
  3
ObjectDBX Classes
 90
1153
 91
17
280
0
281
0
  0
CLASS
  1
MLEADERSTYLE
  2
AcDbMLeaderStyle
  3
ACDB_MLEADERSTYLE_CLASS
 90
4095
 91
2
280
0
281
0
  0
CLASS
  1
CELLSTYLEMAP
  2
AcDbCellStyleMap
  3
ObjectDBX Classes
 90
1152
 91
2
280
0
281
0
  0
CLASS
  1
EXACXREFPANELOBJECT
  2
ExAcXREFPanelObject
  3
EXAC_ESW
 90
1025
 91
0
280
0
281
0
  0
CLASS
  1
NPOCOLLECTION
  2
AcDbImpNonPersistentObjectsCollection
  3
ObjectDBX Classes
 90
1153
 91
0
280
0
281
0
  0
CLASS
  1
LAYER_INDEX
  2
AcDbLayerIndex
  3
ObjectDBX Classes
 90
0
 91
0
280
0
281
0
  0
CLASS
  1
SPATIAL_INDEX
  2
AcDbSpatialIndex
  3
ObjectDBX Classes
 90
0
 91
0
280
0
281
0
  0
CLASS
  1
IDBUFFER
  2
AcDbIdBuffer
  3
ObjectDBX Classes
 90
0
 91
0
280
0
281
0
  0
CLASS
  1
ACDBSECTIONVIEWSTYLE
  2
AcDbSectionViewStyle
  3
ObjectDBX Classes
 90
1025
 91
1
280
0
281
0
  0
CLASS
  1
ACDBDETAILVIEWSTYLE
  2
AcDbDetailViewStyle
  3
ObjectDBX Classes
 90
1025
 91
1
280
0
281
0
  0
CLASS
  1
RAPIDRTRENDERSETTINGS
  2
AcDbRapidRTRenderSettings
  3
ObjectDBX Classes
 90
1024
 91
7
280
0
281
0
  0
CLASS
  1
SUN
  2
AcDbSun
  3
SCENEOE
 90
1153
 91
0
280
0
281
0
  0
CLASS
  1
MENTALRAYRENDERSETTINGS
  2
AcDbMentalRayRenderSettings
  3
SCENEOE
 90
1024
 91
0
280
0
281
0
  0
CLASS
  1
RASTERVARIABLES
  2
AcDbRasterVariables
  3
ISM
 90
0
 91
0
280
0
281
0
  0
CLASS
  1
LAYOUT
  2
AcDbLayout
  3
ObjectDBX Classes
 90
0
 91
0
280
0
281
0
  0
CLASS
  1
ACDBPLACEHOLDER
  2
AcDbPlaceHolder
  3
ObjectDBX Classes
 90
0
 91
0
280
0
281
0
  0
ENDSEC
  0
SECTION
  2
TABLES
  0
TABLE
  2
VPORT
  5
8
330
0
100
AcDbSymbolTable
 70
1
  0
VPORT
  5
EA
330
8
100
AcDbSymbolTableRecord
100
AcDbViewportTableRecord
  2
*Active
 70
0
 10
0.0
 20
0.0
 11
1.0
 21
1.0
 12
275998.2126088737
 22
149744.8013649509
 13
0.0
 23
0.0
 14
10.0
 24
10.0
 15
10.0
 25
10.0
 16
0.0
 26
0.0
 36
1.0
 17
0.0
 27
0.0
 37
0.0
 40
79681.87147977599
 41
1.899034240561896
 42
50.0
 43
0.0
 44
0.0
 50
0.0
 51
0.0
 71
0
 72
1000
 73
1
 74
3
 75
0
 76
0
 77
0
 78
0
281
0
 65
1
110
0.0
120
0.0
130
0.0
111
1.0
121
0.0
131
0.0
112
0.0
122
1.0
132
0.0
 79
0
146
0.0
 60
3
 61
5
348
F5
292
1
282
1
141
0.0
142
0.0
 63
250
421
3355443
1001
ACAD_NAV_VCDISPLAY
1070
3
  0
ENDTAB
  0
TABLE
  2
LTYPE
  5
5
330
0
100
AcDbSymbolTable
 70
3
  0
LTYPE
  5
14
330
5
100
AcDbSymbolTableRecord
100
AcDbLinetypeTableRecord
  2
ByBlock
 70
0
  3

 72
65
 73
0
 40
0.0
  0
LTYPE
  5
15
330
5
100
AcDbSymbolTableRecord
100
AcDbLinetypeTableRecord
  2
ByLayer
 70
0
  3

 72
65
 73
0
 40
0.0
  0
LTYPE
  5
16
330
5
100
AcDbSymbolTableRecord
100
AcDbLinetypeTableRecord
  2
Continuous
 70
0
  3
Solid line
 72
65
 73
0
 40
0.0
  0
ENDTAB
  0
TABLE
  2
LAYER
  5
2
102
{ACAD_XDICTIONARY
360
1FF
102
}
330
0
100
AcDbSymbolTable
 70
4
  0
LAYER
  5
10
102
{ACAD_XDICTIONARY
360
13C
102
}
330
2
100
AcDbSymbolTableRecord
100
AcDbLayerTableRecord
  2
0
 70
0
 62
7
  6
Continuous
370
-3
390
F
347
EE
348
0
  0
LAYER
  5
2A3
330
2
100
AcDbSymbolTableRecord
100
AcDbLayerTableRecord
  2
aree GPS
 70
0
 62
1
  6
Continuous
370
30
390
F
347
EE
348
0
1001
AcAecLayerStandard
1000

1000

1001
AcCmTransparency
1071
0
  0
LAYER
  5
2A8
330
2
100
AcDbSymbolTableRecord
100
AcDbLayerTableRecord
  2
Defpoints
 70
0
 62
7
  6
Continuous
290
0
370
-3
390
F
347
EE
348
0
  0
LAYER
  5
3CA
330
2
100
AcDbSymbolTableRecord
100
AcDbLayerTableRecord
  2
lati di accesso
 70
0
 62
40
  6
Continuous
370
30
390
F
347
EE
348
0
1001
AcAecLayerStandard
1000

1000

1001
AcCmTransparency
1071
0
  0
ENDTAB
  0
TABLE
  2
STYLE
  5
3
330
0
100
AcDbSymbolTable
 70
2
  0
STYLE
  5
11
330
3
100
AcDbSymbolTableRecord
100
AcDbTextStyleTableRecord
  2
Standard
 70
0
 40
0.0
 41
1.0
 50
0.0
 71
0
 42
2.5
  3
arial.ttf
  4

1001
ACAD
1000
Arial
1071
34
  0
STYLE
  5
132
330
3
100
AcDbSymbolTableRecord
100
AcDbTextStyleTableRecord
  2
Annotative
 70
0
 40
0.0
 41
1.0
 50
0.0
 71
0
 42
2.5
  3
arial.ttf
  4

1001
AcadAnnotative
1000
AnnotativeData
1002
{
1070
1
1070
1
1002
}
1001
ACAD
1000
Arial
1071
34
  0
ENDTAB
  0
TABLE
  2
VIEW
  5
6
330
0
100
AcDbSymbolTable
 70
0
  0
ENDTAB
  0
TABLE
  2
UCS
  5
7
330
0
100
AcDbSymbolTable
 70
0
  0
ENDTAB
  0
TABLE
  2
APPID
  5
9
330
0
100
AcDbSymbolTable
 70
12
  0
APPID
  5
12
330
9
100
AcDbSymbolTableRecord
100
AcDbRegAppTableRecord
  2
ACAD
 70
0
  0
APPID
  5
9E
330
9
100
AcDbSymbolTableRecord
100
AcDbRegAppTableRecord
  2
ACAD_PSEXT
 70
0
  0
APPID
  5
133
330
9
100
AcDbSymbolTableRecord
100
AcDbRegAppTableRecord
  2
AcadAnnoPO
 70
0
  0
APPID
  5
134
330
9
100
AcDbSymbolTableRecord
100
AcDbRegAppTableRecord
  2
AcadAnnotative
 70
0
  0
APPID
  5
135
330
9
100
AcDbSymbolTableRecord
100
AcDbRegAppTableRecord
  2
ACAD_DSTYLE_DIMJAG
 70
0
  0
APPID
  5
136
330
9
100
AcDbSymbolTableRecord
100
AcDbRegAppTableRecord
  2
ACAD_DSTYLE_DIMTALN
 70
0
  0
APPID
  5
165
330
9
100
AcDbSymbolTableRecord
100
AcDbRegAppTableRecord
  2
ACAD_MLEADERVER
 70
0
  0
APPID
  5
217
330
9
100
AcDbSymbolTableRecord
100
AcDbRegAppTableRecord
  2
ACAD_NAV_VCDISPLAY
 70
0
  0
APPID
  5
2A4
330
9
100
AcDbSymbolTableRecord
100
AcDbRegAppTableRecord
  2
AcAecLayerStandard
 70
0
  0
APPID
  5
2A5
330
9
100
AcDbSymbolTableRecord
100
AcDbRegAppTableRecord
  2
AcCmTransparency
 70
0
  0
APPID
  5
3C2
330
9
100
AcDbSymbolTableRecord
100
AcDbRegAppTableRecord
  2
HATCHBACKGROUNDCOLOR
 70
0
  0
APPID
  5
3C3
330
9
100
AcDbSymbolTableRecord
100
AcDbRegAppTableRecord
  2
EZDXF
 70
0
  0
ENDTAB
  0
TABLE
  2
DIMSTYLE
  5
A
330
0
100
AcDbSymbolTable
 70
3
100
AcDbDimStyleTable
  0
DIMSTYLE
105
1B0
330
A
100
AcDbSymbolTableRecord
100
AcDbDimStyleTableRecord
  2
Standard
 70
0
 40
1.0
 41
2.5
 42
0.625
 43
3.75
 44
1.25
 45
0.0
 46
0.0
 47
0.0
 48
0.0
 49
2.5
140
2.5
141
2.5
142
0.0
143
0.03937007874
144
1.0
145
0.0
146
1.0
147
0.625
148
0.0
 69
0
 70
0
 71
0
 72
0
 73
0
 74
0
 75
0
 76
0
 77
1
 78
8
 79
3
170
0
171
3
172
1
173
0
174
0
175
0
176
0
177
0
178
0
179
2
271
2
272
2
273
2
274
3
275
0
276
0
277
2
278
44
279
0
280
0
281
0
282
0
283
0
284
8
285
0
286
0
288
0
289
3
290
0
340
11
371
-2
372
-2
  0
DIMSTYLE
105
137
330
A
100
AcDbSymbolTableRecord
100
AcDbDimStyleTableRecord
  2
Annotative
 70
0
 40
0.0
 41
2.5
 42
0.625
 43
3.75
 44
1.25
 45
0.0
 46
0.0
 47
0.0
 48
0.0
 49
2.5
140
2.5
141
2.5
142
0.0
143
0.03937007874016
144
1.0
145
0.0
146
1.0
147
0.625
148
0.0
 69
0
 70
0
 71
0
 72
0
 73
0
 74
0
 75
0
 76
0
 77
1
 78
8
 79
3
170
0
171
3
172
1
173
0
174
0
175
0
176
0
177
0
178
0
179
2
271
2
272
2
273
2
274
3
275
0
276
0
277
2
278
44
279
0
280
0
281
0
282
0
283
0
284
8
285
0
286
0
288
0
289
3
290
0
340
11
371
-2
372
-2
1001
AcadAnnotative
1000
AnnotativeData
1002
{
1070
1
1070
1
1002
}
1001
ACAD_DSTYLE_DIMJAG
1070
388
1040
1.5
1001
ACAD_DSTYLE_DIMTALN
1070
392
1070
0
  0
DIMSTYLE
105
27
330
A
100
AcDbSymbolTableRecord
100
AcDbDimStyleTableRecord
  2
ISO-25
 70
0
 40
1.0
 41
2.5
 42
0.625
 43
3.75
 44
1.25
 45
0.0
 46
0.0
 47
0.0
 48
0.0
 49
2.5
140
2.5
141
2.5
142
0.0
143
0.03937007874016
144
1.0
145
0.0
146
1.0
147
0.625
148
0.0
 69
0
 70
0
 71
0
 72
0
 73
0
 74
0
 75
0
 76
0
 77
1
 78
8
 79
3
170
0
171
3
172
1
173
0
174
0
175
0
176
0
177
0
178
0
179
2
271
2
272
2
273
2
274
3
275
0
276
0
277
2
278
44
279
0
280
0
281
0
282
0
283
0
284
8
285
0
286
0
288
0
289
3
290
0
340
11
371
-2
372
-2
  0
ENDTAB
  0
TABLE
  2
BLOCK_RECORD
  5
1
330
0
100
AcDbSymbolTable
 70
3
  0
BLOCK_RECORD
  5
1F
102
{ACAD_XDICTIONARY
360
1CE
102
}
330
1
100
AcDbSymbolTableRecord
100
AcDbBlockTableRecord
  2
*Model_Space
340
22
 70
0
280
1
281
0
  0
BLOCK_RECORD
  5
D2
330
1
100
AcDbSymbolTableRecord
100
AcDbBlockTableRecord
  2
*Paper_Space
340
D3
 70
0
280
1
281
0
  0
BLOCK_RECORD
  5
D6
330
1
100
AcDbSymbolTableRecord
100
AcDbBlockTableRecord
  2
*Paper_Space0
340
D7
 70
0
280
1
281
0
  0
ENDTAB
  0
ENDSEC
  0
SECTION
  2
BLOCKS
  0
BLOCK
  5
20
330
1F
100
AcDbEntity
  8
0
100
AcDbBlockBegin
  2
*Model_Space
 70
0
 10
0.0
 20
0.0
 30
0.0
  3
*Model_Space
  1

  0
ENDBLK
  5
21
330
1F
100
AcDbEntity
  8
0
100
AcDbBlockEnd
  0
BLOCK
  5
D4
330
D2
100
AcDbEntity
 67
1
  8
0
100
AcDbBlockBegin
  2
*Paper_Space
 70
0
 10
0.0
 20
0.0
 30
0.0
  3
*Paper_Space
  1

  0
ENDBLK
  5
D5
330
D2
100
AcDbEntity
 67
1
  8
0
100
AcDbBlockEnd
  0
BLOCK
  5
D8
330
D6
100
AcDbEntity
 67
1
  8
0
100
AcDbBlockBegin
  2
*Paper_Space0
 70
0
 10
0.0
 20
0.0
 30
0.0
  3
*Paper_Space0
  1

  0
ENDBLK
  5
D9
330
D6
100
AcDbEntity
 67
1
  8
0
100
AcDbBlockEnd
  0
ENDSEC
  0
SECTION
  2
ENTITIES
  0
LWPOLYLINE
  5
83D
330
1F
100
AcDbEntity
  8
aree GPS
100
AcDbPolyline
 90
4
 70
1
 10
245494.0
 20
115531.0
 10
235999.0
 20
108145.0
 10
232084.0
 20
113178.0
 10
241579.0
 20
120564.0
  0
LINE
  5
83E
330
1F
100
AcDbEntity
  8
lati di accesso
100
AcDbLine
 10
235999.0
 20
108145.0
 30
0.0
 11
245494.0
 21
115531.0
 31
0.0
  0
LWPOLYLINE
  5
83F
330
1F
100
AcDbEntity
  8
aree GPS
100
AcDbPolyline
 90
4
 70
1
 10
227137.0
 20
119564.0
 10
236674.0
 20
126923.0
 10
242205.0
 20
119748.0
 10
232687.0
 20
112403.0
  0
LINE
  5
840
330
1F
100
AcDbEntity
  8
lati di accesso
100
AcDbLine
 10
236674.0
 20
126923.0
 30
0.0
 11
227137.0
 21
119564.0
 31
0.0
  0
LWPOLYLINE
  5
841
330
1F
100
AcDbEntity
  8
aree GPS
100
AcDbPolyline
 90
4
 70
1
 10
129605.0
 20
115106.0
 10
119625.0
 20
105708.0
 10
89446.0
 20
137755.0
 10
99342.0
 20
147114.0
  0
LINE
  5
842
330
1F
100
AcDbEntity
  8
lati di accesso
100
AcDbLine
 10
89446.0
 20
137755.0
 30
0.0
 11
119625.0
 21
105708.0
 31
0.0
  0
LWPOLYLINE
  5
843
330
1F
100
AcDbEntity
  8
aree GPS
100
AcDbPolyline
 90
4
 70
1
 10
119625.0
 20
105708.0
 10
129602.0
 20
115110.0
 10
132802.0
 20
111714.0
 10
122825.0
 20
102312.0
  0
LINE
  5
844
330
1F
100
AcDbEntity
  8
lati di accesso
100
AcDbLine
 10
122825.0
 20
102312.0
 30
0.0
 11
132802.0
 21
111714.0
 31
0.0
  0
LWPOLYLINE
  5
845
330
1F
100
AcDbEntity
  8
aree GPS
100
AcDbPolyline
 90
4
 70
1
 10
139124.0
 20
105936.0
 10
131261.0
 20
98544.0
 10
128616.0
 20
101360.0
 10
136478.0
 20
108750.0
  0
LINE
  5
846
330
1F
100
AcDbEntity
  8
lati di accesso
100
AcDbLine
 10
128616.0
 20
101360.0
 30
0.0
 11
131261.0
 21
98544.0
 31
0.0
  0
LWPOLYLINE
  5
847
330
1F
100
AcDbEntity
  8
aree GPS
100
AcDbPolyline
 90
4
 70
1
 10
141737.0
 20
103156.0
 10
133872.0
 20
95764.0
 10
131261.0
 20
98544.0
 10
139124.0
 20
105936.0
  0
LINE
  5
848
330
1F
100
AcDbEntity
  8
lati di accesso
100
AcDbLine
 10
131261.0
 20
98544.0
 30
0.0
 11
133872.0
 21
95764.0
 31
0.0
  0
LWPOLYLINE
  5
849
330
1F
100
AcDbEntity
  8
aree GPS
100
AcDbPolyline
 90
4
 70
1
 10
143945.0
 20
100806.0
 10
136079.0
 20
93412.0
 10
133872.0
 20
95764.0
 10
141737.0
 20
103156.0
  0
LINE
  5
84A
330
1F
100
AcDbEntity
  8
lati di accesso
100
AcDbLine
 10
133872.0
 20
95764.0
 30
0.0
 11
136079.0
 21
93412.0
 31
0.0
  0
LWPOLYLINE
  5
84B
330
1F
100
AcDbEntity
  8
aree GPS
100
AcDbPolyline
 90
4
 70
1
 10
146133.0
 20
98477.0
 10
138266.0
 20
91082.0
 10
136079.0
 20
93412.0
 10
143945.0
 20
100806.0
  0
LINE
  5
84C
330
1F
100
AcDbEntity
  8
lati di accesso
100
AcDbLine
 10
136079.0
 20
93412.0
 30
0.0
 11
138266.0
 21
91082.0
 31
0.0
  0
LWPOLYLINE
  5
84D
330
1F
100
AcDbEntity
  8
aree GPS
100
AcDbPolyline
 90
4
 70
1
 10
148321.0
 20
96149.0
 10
140452.0
 20
88753.0
 10
138266.0
 20
91082.0
 10
146133.0
 20
98477.0
  0
LINE
  5
84E
330
1F
100
AcDbEntity
  8
lati di accesso
100
AcDbLine
 10
138266.0
 20
91082.0
 30
0.0
 11
140452.0
 21
88753.0
 31
0.0
  0
LWPOLYLINE
  5
84F
330
1F
100
AcDbEntity
  8
aree GPS
100
AcDbPolyline
 90
4
 70
1
 10
150682.0
 20
93636.0
 10
142818.0
 20
86232.0
 10
140452.0
 20
88753.0
 10
148321.0
 20
96149.0
  0
LINE
  5
850
330
1F
100
AcDbEntity
  8
lati di accesso
100
AcDbLine
 10
140452.0
 20
88753.0
 30
0.0
 11
142818.0
 21
86232.0
 31
0.0
  0
LWPOLYLINE
  5
851
330
1F
100
AcDbEntity
  8
aree GPS
100
AcDbPolyline
 90
4
 70
1
 10
152830.0
 20
91349.0
 10
148522.0
 20
87293.0
 10
146375.0
 20
89582.0
 10
150683.0
 20
93636.0
  0
LINE
  5
852
330
1F
100
AcDbEntity
  8
lati di accesso
100
AcDbLine
 10
146375.0
 20
89582.0
 30
0.0
 11
148522.0
 21
87293.0
 31
0.0
  0
LWPOLYLINE
  5
853
330
1F
100
AcDbEntity
  8
aree GPS
100
AcDbPolyline
 90
4
 70
1
 10
155046.0
 20
88992.0
 10
150735.0
 20
84934.0
 10
148522.0
 20
87293.0
 10
152830.0
 20
91349.0
  0
LINE
  5
854
330
1F
100
AcDbEntity
  8
lati di accesso
100
AcDbLine
 10
148522.0
 20
87293.0
 30
0.0
 11
150735.0
 21
84934.0
 31
0.0
  0
LWPOLYLINE
  5
855
330
1F
100
AcDbEntity
  8
aree GPS
100
AcDbPolyline
 90
4
 70
1
 10
157254.0
 20
86642.0
 10
152942.0
 20
82582.0
 10
150735.0
 20
84934.0
 10
155046.0
 20
88992.0
  0
LINE
  5
856
330
1F
100
AcDbEntity
  8
lati di accesso
100
AcDbLine
 10
150735.0
 20
84934.0
 30
0.0
 11
152942.0
 21
82582.0
 31
0.0
  0
LWPOLYLINE
  5
857
330
1F
100
AcDbEntity
  8
aree GPS
100
AcDbPolyline
 90
4
 70
1
 10
159540.0
 20
84214.0
 10
155227.0
 20
80155.0
 10
152942.0
 20
82582.0
 10
157254.0
 20
86642.0
  0
LINE
  5
858
330
1F
100
AcDbEntity
  8
lati di accesso
100
AcDbLine
 10
152942.0
 20
82582.0
 30
0.0
 11
155227.0
 21
80156.0
 31
0.0
  0
LWPOLYLINE
  5
859
330
1F
100
AcDbEntity
  8
aree GPS
100
AcDbPolyline
 90
4
 70
1
 10
165078.0
 20
69744.0
 10
170953.0
 20
75270.0
 10
161102.0
 20
85683.0
 10
155227.0
 20
80156.0
  0
LINE
  5
85A
330
1F
100
AcDbEntity
  8
lati di accesso
100
AcDbLine
 10
155227.0
 20
80156.0
 30
0.0
 11
165078.0
 21
69744.0
 31
0.0
  0
LWPOLYLINE
  5
85B
330
1F
100
AcDbEntity
  8
aree GPS
100
AcDbPolyline
 90
4
 70
1
 10
106193.0
 20
111732.0
 10
102723.0
 20
107842.0
 10
119608.0
 20
94060.0
 10
122883.0
 20
98181.0
  0
LINE
  5
85C
330
1F
100
AcDbEntity
  8
lati di accesso
100
AcDbLine
 10
122883.0
 20
98181.0
 30
0.0
 11
106193.0
 21
111732.0
 31
0.0
  0
LWPOLYLINE
  5
85D
330
1F
100
AcDbEntity
  8
aree GPS
100
AcDbPolyline
 90
4
 70
1
 10
255367.0
 20
290012.0
 10
274514.0
 20
303426.0
 10
278871.0
 20
297363.0
 10
259698.0
 20
283698.0
  0
LINE
  5
85E
330
1F
100
AcDbEntity
  8
lati di accesso
100
AcDbLine
 10
259698.0
 20
283698.0
 30
0.0
 11
278871.0
 21
297363.0
 31
0.0
  0
LWPOLYLINE
  5
85F
330
1F
100
AcDbEntity
  8
aree GPS
100
AcDbPolyline
 90
4
 70
1
 10
123125.0
 20
98020.0
 10
119910.0
 20
93822.0
 10
136175.0
 20
80614.0
 10
139379.0
 20
84689.0
  0
LINE
  5
860
330
1F
100
AcDbEntity
  8
lati di accesso
100
AcDbLine
 10
139379.0
 20
84689.0
 30
0.0
 11
123126.0
 21
98021.0
 31
0.0
  0
LWPOLYLINE
  5
861
330
1F
100
AcDbEntity
  8
aree GPS
100
AcDbPolyline
 90
4
 70
1
 10
140362.0
 20
83869.0
 10
137057.0
 20
79892.0
 10
153410.0
 20
66582.0
 10
156835.0
 20
70450.0
  0
LINE
  5
862
330
1F
100
AcDbEntity
  8
lati di accesso
100
AcDbLine
 10
156836.0
 20
70451.0
 30
0.0
 11
140363.0
 21
83870.0
 31
0.0
  0
LWPOLYLINE
  5
863
330
1F
100
AcDbEntity
  8
aree GPS
100
AcDbPolyline
 90
4
 70
1
 10
129605.0
 20
115106.0
 10
99342.0
 20
147114.0
 10
108167.0
 20
155457.0
 10
138384.0
 20
123373.0
  0
LINE
  5
864
330
1F
100
AcDbEntity
  8
lati di accesso
100
AcDbLine
 10
138384.0
 20
123373.0
 30
0.0
 11
108167.0
 21
155457.0
 31
0.0
  0
LWPOLYLINE
  5
865
330
1F
100
AcDbEntity
  8
aree GPS
100
AcDbPolyline
 90
4
 70
1
 10
129602.0
 20
115110.0
 10
138384.0
 20
123373.0
 10
141578.0
 20
119984.0
 10
132802.0
 20
111714.0
  0
LINE
  5
866
330
1F
100
AcDbEntity
  8
lati di accesso
100
AcDbLine
 10
132802.0
 20
111714.0
 30
0.0
 11
141578.0
 21
119984.0
 31
0.0
  0
LWPOLYLINE
  5
867
330
1F
100
AcDbEntity
  8
aree GPS
100
AcDbPolyline
 90
4
 70
1
 10
147475.0
 20
113718.0
 10
139164.0
 20
105893.0
 10
136478.0
 20
108750.0
 10
144794.0
 20
116566.0
  0
LINE
  5
868
330
1F
100
AcDbEntity
  8
lati di accesso
100
AcDbLine
 10
147475.0
 20
113718.0
 30
0.0
 11
144794.0
 21
116566.0
 31
0.0
  0
LWPOLYLINE
  5
869
330
1F
100
AcDbEntity
  8
aree GPS
100
AcDbPolyline
 90
4
 70
1
 10
150091.0
 20
110940.0
 10
141771.0
 20
103120.0
 10
139164.0
 20
105893.0
 10
147475.0
 20
113718.0
  0
LINE
  5
86A
330
1F
100
AcDbEntity
  8
lati di accesso
100
AcDbLine
 10
150091.0
 20
110940.0
 30
0.0
 11
147475.0
 21
113718.0
 31
0.0
  0
LWPOLYLINE
  5
86B
330
1F
100
AcDbEntity
  8
aree GPS
100
AcDbPolyline
 90
4
 70
1
 10
152295.0
 20
108599.0
 10
143973.0
 20
100777.0
 10
141771.0
 20
103120.0
 10
150091.0
 20
110940.0
  0
LINE
  5
86C
330
1F
100
AcDbEntity
  8
lati di accesso
100
AcDbLine
 10
152295.0
 20
108599.0
 30
0.0
 11
150091.0
 21
110940.0
 31
0.0
  0
LWPOLYLINE
  5
86D
330
1F
100
AcDbEntity
  8
aree GPS
100
AcDbPolyline
 90
4
 70
1
 10
154492.0
 20
106266.0
 10
146168.0
 20
98442.0
 10
143973.0
 20
100777.0
 10
152295.0
 20
108599.0
  0
LINE
  5
86E
330
1F
100
AcDbEntity
  8
lati di accesso
100
AcDbLine
 10
154492.0
 20
106266.0
 30
0.0
 11
152295.0
 21
108599.0
 31
0.0
  0
LWPOLYLINE
  5
86F
330
1F
100
AcDbEntity
  8
aree GPS
100
AcDbPolyline
 90
4
 70
1
 10
156695.0
 20
103925.0
 10
148370.0
 20
96099.0
 10
146168.0
 20
98442.0
 10
154492.0
 20
106266.0
  0
LINE
  5
870
330
1F
100
AcDbEntity
  8
lati di accesso
100
AcDbLine
 10
156695.0
 20
103925.0
 30
0.0
 11
154492.0
 21
106266.0
 31
0.0
  0
LWPOLYLINE
  5
871
330
1F
100
AcDbEntity
  8
aree GPS
100
AcDbPolyline
 90
4
 70
1
 10
158906.0
 20
101577.0
 10
150579.0
 20
93749.0
 10
148370.0
 20
96099.0
 10
156695.0
 20
103925.0
  0
LINE
  5
872
330
1F
100
AcDbEntity
  8
lati di accesso
100
AcDbLine
 10
158906.0
 20
101577.0
 30
0.0
 11
156695.0
 21
103925.0
 31
0.0
  0
LWPOLYLINE
  5
873
330
1F
100
AcDbEntity
  8
aree GPS
100
AcDbPolyline
 90
4
 70
1
 10
161110.0
 20
99236.0
 10
152778.0
 20
91405.0
 10
150579.0
 20
93749.0
 10
158906.0
 20
101577.0
  0
LINE
  5
874
330
1F
100
AcDbEntity
  8
lati di accesso
100
AcDbLine
 10
161110.0
 20
99236.0
 30
0.0
 11
158906.0
 21
101577.0
 31
0.0
  0
LWPOLYLINE
  5
875
330
1F
100
AcDbEntity
  8
aree GPS
100
AcDbPolyline
 90
4
 70
1
 10
163321.0
 20
96888.0
 10
154987.0
 20
89055.0
 10
152778.0
 20
91405.0
 10
161110.0
 20
99236.0
  0
LINE
  5
876
330
1F
100
AcDbEntity
  8
lati di accesso
100
AcDbLine
 10
163321.0
 20
96888.0
 30
0.0
 11
161110.0
 21
99236.0
 31
0.0
  0
LWPOLYLINE
  5
877
330
1F
100
AcDbEntity
  8
aree GPS
100
AcDbPolyline
 90
4
 70
1
 10
165538.0
 20
94533.0
 10
157202.0
 20
86697.0
 10
154987.0
 20
89055.0
 10
163321.0
 20
96888.0
  0
LINE
  5
878
330
1F
100
AcDbEntity
  8
lati di accesso
100
AcDbLine
 10
165538.0
 20
94533.0
 30
0.0
 11
163321.0
 21
96888.0
 31
0.0
  0
LWPOLYLINE
  5
879
330
1F
100
AcDbEntity
  8
aree GPS
100
AcDbPolyline
 90
4
 70
1
 10
167874.0
 20
92052.0
 10
159538.0
 20
84212.0
 10
157202.0
 20
86697.0
 10
165538.0
 20
94533.0
  0
LINE
  5
87A
330
1F
100
AcDbEntity
  8
lati di accesso
100
AcDbLine
 10
167874.0
 20
92052.0
 30
0.0
 11
165538.0
 21
94533.0
 31
0.0
  0
LWPOLYLINE
  5
87B
330
1F
100
AcDbEntity
  8
aree GPS
100
AcDbPolyline
 90
4
 70
1
 10
161102.0
 20
85683.0
 10
170953.0
 20
75270.0
 10
177694.0
 20
81610.0
 10
167874.0
 20
92052.0
  0
LINE
  5
87C
330
1F
100
AcDbEntity
  8
lati di accesso
100
AcDbLine
 10
177695.0
 20
81611.0
 30
0.0
 11
167874.0
 21
92052.0
 31
0.0
  0
LWPOLYLINE
  5
87D
330
1F
100
AcDbEntity
  8
aree GPS
100
AcDbPolyline
 90
4
 70
1
 10
116583.0
 20
159062.0
 10
120926.0
 20
154450.0
 10
115931.0
 20
149747.0
 10
111589.0
 20
154360.0
  0
LINE
  5
87E
330
1F
100
AcDbEntity
  8
lati di accesso
100
AcDbLine
 10
111589.0
 20
154360.0
 30
0.0
 11
115931.0
 21
149747.0
 31
0.0
  0
LWPOLYLINE
  5
87F
330
1F
100
AcDbEntity
  8
aree GPS
100
AcDbPolyline
 90
4
 70
1
 10
120926.0
 20
154450.0
 10
125268.0
 20
149838.0
 10
120274.0
 20
145135.0
 10
115931.0
 20
149747.0
  0
LINE
  5
880
330
1F
100
AcDbEntity
  8
lati di accesso
100
AcDbLine
 10
115931.0
 20
149747.0
 30
0.0
 11
120274.0
 21
145135.0
 31
0.0
  0
LWPOLYLINE
  5
881
330
1F
100
AcDbEntity
  8
aree GPS
100
AcDbPolyline
 90
4
 70
1
 10
125268.0
 20
149838.0
 10
129610.0
 20
145226.0
 10
124616.0
 20
140523.0
 10
120274.0
 20
145135.0
  0
LINE
  5
882
330
1F
100
AcDbEntity
  8
lati di accesso
100
AcDbLine
 10
120274.0
 20
145135.0
 30
0.0
 11
124616.0
 21
140523.0
 31
0.0
  0
LWPOLYLINE
  5
883
330
1F
100
AcDbEntity
  8
aree GPS
100
AcDbPolyline
 90
4
 70
1
 10
129610.0
 20
145226.0
 10
133953.0
 20
140614.0
 10
128958.0
 20
135911.0
 10
124616.0
 20
140523.0
  0
LINE
  5
884
330
1F
100
AcDbEntity
  8
lati di accesso
100
AcDbLine
 10
124616.0
 20
140523.0
 30
0.0
 11
128958.0
 21
135911.0
 31
0.0
  0
LWPOLYLINE
  5
885
330
1F
100
AcDbEntity
  8
aree GPS
100
AcDbPolyline
 90
4
 70
1
 10
133953.0
 20
140614.0
 10
138295.0
 20
136002.0
 10
133301.0
 20
131299.0
 10
128958.0
 20
135911.0
  0
LINE
  5
886
330
1F
100
AcDbEntity
  8
lati di accesso
100
AcDbLine
 10
128958.0
 20
135911.0
 30
0.0
 11
133301.0
 21
131299.0
 31
0.0
  0
LWPOLYLINE
  5
887
330
1F
100
AcDbEntity
  8
aree GPS
100
AcDbPolyline
 90
4
 70
1
 10
138295.0
 20
136002.0
 10
142638.0
 20
131390.0
 10
137643.0
 20
126687.0
 10
133301.0
 20
131299.0
  0
LINE
  5
888
330
1F
100
AcDbEntity
  8
lati di accesso
100
AcDbLine
 10
133301.0
 20
131299.0
 30
0.0
 11
137643.0
 21
126687.0
 31
0.0
  0
LWPOLYLINE
  5
889
330
1F
100
AcDbEntity
  8
aree GPS
100
AcDbPolyline
 90
4
 70
1
 10
142638.0
 20
131390.0
 10
146980.0
 20
126778.0
 10
141985.0
 20
122075.0
 10
137643.0
 20
126687.0
  0
LINE
  5
88A
330
1F
100
AcDbEntity
  8
lati di accesso
100
AcDbLine
 10
137643.0
 20
126687.0
 30
0.0
 11
141985.0
 21
122075.0
 31
0.0
  0
LWPOLYLINE
  5
88B
330
1F
100
AcDbEntity
  8
aree GPS
100
AcDbPolyline
 90
4
 70
1
 10
147320.0
 20
118938.0
 10
150880.0
 20
122290.0
 10
155134.0
 20
117772.0
 10
151573.0
 20
114420.0
  0
LINE
  5
88C
330
1F
100
AcDbEntity
  8
lati di accesso
100
AcDbLine
 10
147320.0
 20
118938.0
 30
0.0
 11
151573.0
 21
114420.0
 31
0.0
  0
LWPOLYLINE
  5
88D
330
1F
100
AcDbEntity
  8
aree GPS
100
AcDbPolyline
 90
4
 70
1
 10
151573.0
 20
114420.0
 10
155134.0
 20
117772.0
 10
159387.0
 20
113255.0
 10
155827.0
 20
109902.0
  0
LINE
  5
88E
330
1F
100
AcDbEntity
  8
lati di accesso
100
AcDbLine
 10
151573.0
 20
114420.0
 30
0.0
 11
155827.0
 21
109902.0
 31
0.0
  0
LWPOLYLINE
  5
88F
330
1F
100
AcDbEntity
  8
aree GPS
100
AcDbPolyline
 90
4
 70
1
 10
155827.0
 20
109902.0
 10
159387.0
 20
113255.0
 10
163641.0
 20
108737.0
 10
160080.0
 20
105385.0
  0
LINE
  5
890
330
1F
100
AcDbEntity
  8
lati di accesso
100
AcDbLine
 10
155827.0
 20
109902.0
 30
0.0
 11
160080.0
 21
105385.0
 31
0.0
  0
LWPOLYLINE
  5
891
330
1F
100
AcDbEntity
  8
aree GPS
100
AcDbPolyline
 90
4
 70
1
 10
160080.0
 20
105385.0
 10
163641.0
 20
108737.0
 10
167894.0
 20
104219.0
 10
164334.0
 20
100867.0
  0
LINE
  5
892
330
1F
100
AcDbEntity
  8
lati di accesso
100
AcDbLine
 10
160080.0
 20
105385.0
 30
0.0
 11
164334.0
 21
100867.0
 31
0.0
  0
LWPOLYLINE
  5
893
330
1F
100
AcDbEntity
  8
aree GPS
100
AcDbPolyline
 90
4
 70
1
 10
164334.0
 20
100867.0
 10
167894.0
 20
104219.0
 10
172148.0
 20
99701.0
 10
168587.0
 20
96349.0
  0
LINE
  5
894
330
1F
100
AcDbEntity
  8
lati di accesso
100
AcDbLine
 10
164334.0
 20
100867.0
 30
0.0
 11
168587.0
 21
96349.0
 31
0.0
  0
LWPOLYLINE
  5
895
330
1F
100
AcDbEntity
  8
aree GPS
100
AcDbPolyline
 90
4
 70
1
 10
168587.0
 20
96349.0
 10
178138.0
 20
105342.0
 10
184370.0
 20
98724.0
 10
174819.0
 20
89731.0
  0
LINE
  5
896
330
1F
100
AcDbEntity
  8
lati di accesso
100
AcDbLine
 10
168587.0
 20
96349.0
 30
0.0
 11
174819.0
 21
89731.0
 31
0.0
  0
LWPOLYLINE
  5
897
330
1F
100
AcDbEntity
  8
aree GPS
100
AcDbPolyline
 90
4
 70
1
 10
174819.0
 20
89731.0
 10
184370.0
 20
98724.0
 10
190601.0
 20
92105.0
 10
181050.0
 20
83113.0
  0
LINE
  5
898
330
1F
100
AcDbEntity
  8
lati di accesso
100
AcDbLine
 10
174819.0
 20
89731.0
 30
0.0
 11
181050.0
 21
83113.0
 31
0.0
  0
LWPOLYLINE
  5
899
330
1F
100
AcDbEntity
  8
aree GPS
100
AcDbPolyline
 90
4
 70
1
 10
128353.0
 20
173891.0
 10
83987.0
 20
141948.0
 10
80521.0
 20
146762.0
 10
124882.0
 20
178710.0
  0
LINE
  5
89A
330
1F
100
AcDbEntity
  8
lati di accesso
100
AcDbLine
 10
83987.0
 20
141948.0
 30
0.0
 11
128353.0
 21
173891.0
 31
0.0
  0
LWPOLYLINE
  5
89B
330
1F
100
AcDbEntity
  8
aree GPS
100
AcDbPolyline
 90
4
 70
1
 10
121578.0
 20
163765.0
 10
125920.0
 20
159153.0
 10
120926.0
 20
154450.0
 10
116583.0
 20
159062.0
  0
LINE
  5
89C
330
1F
100
AcDbEntity
  8
lati di accesso
100
AcDbLine
 10
125920.0
 20
159153.0
 30
0.0
 11
121578.0
 21
163765.0
 31
0.0
  0
LWPOLYLINE
  5
89D
330
1F
100
AcDbEntity
  8
aree GPS
100
AcDbPolyline
 90
4
 70
1
 10
125920.0
 20
159153.0
 10
130263.0
 20
154540.0
 10
125268.0
 20
149838.0
 10
120926.0
 20
154450.0
  0
LINE
  5
89E
330
1F
100
AcDbEntity
  8
lati di accesso
100
AcDbLine
 10
130263.0
 20
154540.0
 30
0.0
 11
125920.0
 21
159153.0
 31
0.0
  0
LWPOLYLINE
  5
89F
330
1F
100
AcDbEntity
  8
aree GPS
100
AcDbPolyline
 90
4
 70
1
 10
130263.0
 20
154540.0
 10
134605.0
 20
149928.0
 10
129610.0
 20
145226.0
 10
125268.0
 20
149838.0
  0
LINE
  5
8A0
330
1F
100
AcDbEntity
  8
lati di accesso
100
AcDbLine
 10
134605.0
 20
149928.0
 30
0.0
 11
130263.0
 21
154540.0
 31
0.0
  0
LWPOLYLINE
  5
8A1
330
1F
100
AcDbEntity
  8
aree GPS
100
AcDbPolyline
 90
4
 70
1
 10
134605.0
 20
149928.0
 10
138947.0
 20
145316.0
 10
133953.0
 20
140614.0
 10
129610.0
 20
145226.0
  0
LINE
  5
8A2
330
1F
100
AcDbEntity
  8
lati di accesso
100
AcDbLine
 10
138947.0
 20
145316.0
 30
0.0
 11
134605.0
 21
149928.0
 31
0.0
  0
LWPOLYLINE
  5
8A3
330
1F
100
AcDbEntity
  8
aree GPS
100
AcDbPolyline
 90
4
 70
1
 10
138947.0
 20
145316.0
 10
143290.0
 20
140704.0
 10
138295.0
 20
136002.0
 10
133953.0
 20
140614.0
  0
LINE
  5
8A4
330
1F
100
AcDbEntity
  8
lati di accesso
100
AcDbLine
 10
143290.0
 20
140704.0
 30
0.0
 11
138947.0
 21
145316.0
 31
0.0
  0
LWPOLYLINE
  5
8A5
330
1F
100
AcDbEntity
  8
aree GPS
100
AcDbPolyline
 90
4
 70
1
 10
143290.0
 20
140704.0
 10
147632.0
 20
136092.0
 10
142638.0
 20
131390.0
 10
138295.0
 20
136002.0
  0
LINE
  5
8A6
330
1F
100
AcDbEntity
  8
lati di accesso
100
AcDbLine
 10
147632.0
 20
136092.0
 30
0.0
 11
143290.0
 21
140704.0
 31
0.0
  0
LWPOLYLINE
  5
8A7
330
1F
100
AcDbEntity
  8
aree GPS
100
AcDbPolyline
 90
4
 70
1
 10
147632.0
 20
136092.0
 10
151975.0
 20
131480.0
 10
146980.0
 20
126778.0
 10
142638.0
 20
131390.0
  0
LINE
  5
8A8
330
1F
100
AcDbEntity
  8
lati di accesso
100
AcDbLine
 10
151975.0
 20
131480.0
 30
0.0
 11
147632.0
 21
136092.0
 31
0.0
  0
LWPOLYLINE
  5
8A9
330
1F
100
AcDbEntity
  8
aree GPS
100
AcDbPolyline
 90
4
 70
1
 10
150880.0
 20
122290.0
 10
154440.0
 20
125642.0
 10
158694.0
 20
121124.0
 10
155134.0
 20
117772.0
  0
LINE
  5
8AA
330
1F
100
AcDbEntity
  8
lati di accesso
100
AcDbLine
 10
158694.0
 20
121124.0
 30
0.0
 11
154440.0
 21
125642.0
 31
0.0
  0
LWPOLYLINE
  5
8AB
330
1F
100
AcDbEntity
  8
aree GPS
100
AcDbPolyline
 90
4
 70
1
 10
155134.0
 20
117772.0
 10
158694.0
 20
121124.0
 10
162947.0
 20
116607.0
 10
159387.0
 20
113255.0
  0
LINE
  5
8AC
330
1F
100
AcDbEntity
  8
lati di accesso
100
AcDbLine
 10
162947.0
 20
116607.0
 30
0.0
 11
158694.0
 21
121124.0
 31
0.0
  0
LWPOLYLINE
  5
8AD
330
1F
100
AcDbEntity
  8
aree GPS
100
AcDbPolyline
 90
4
 70
1
 10
159387.0
 20
113255.0
 10
162947.0
 20
116607.0
 10
167201.0
 20
112089.0
 10
163641.0
 20
108737.0
  0
LINE
  5
8AE
330
1F
100
AcDbEntity
  8
lati di accesso
100
AcDbLine
 10
167201.0
 20
112089.0
 30
0.0
 11
162947.0
 21
116607.0
 31
0.0
  0
LWPOLYLINE
  5
8AF
330
1F
100
AcDbEntity
  8
aree GPS
100
AcDbPolyline
 90
4
 70
1
 10
163641.0
 20
108737.0
 10
167201.0
 20
112089.0
 10
171454.0
 20
107571.0
 10
167894.0
 20
104219.0
  0
LINE
  5
8B0
330
1F
100
AcDbEntity
  8
lati di accesso
100
AcDbLine
 10
171454.0
 20
107571.0
 30
0.0
 11
167201.0
 21
112089.0
 31
0.0
  0
LWPOLYLINE
  5
8B1
330
1F
100
AcDbEntity
  8
aree GPS
100
AcDbPolyline
 90
4
 70
1
 10
167894.0
 20
104219.0
 10
171454.0
 20
107571.0
 10
175708.0
 20
103054.0
 10
172148.0
 20
99701.0
  0
LINE
  5
8B2
330
1F
100
AcDbEntity
  8
lati di accesso
100
AcDbLine
 10
175708.0
 20
103054.0
 30
0.0
 11
171454.0
 21
107571.0
 31
0.0
  0
LWPOLYLINE
  5
8B3
330
1F
100
AcDbEntity
  8
aree GPS
100
AcDbPolyline
 90
4
 70
1
 10
126090.0
 20
167997.0
 10
130432.0
 20
163385.0
 10
127384.0
 20
160515.0
 10
123042.0
 20
165127.0
  0
LINE
  5
8B4
330
1F
100
AcDbEntity
  8
lati di accesso
100
AcDbLine
 10
123042.0
 20
165127.0
 30
0.0
 11
127384.0
 21
160515.0
 31
0.0
  0
LWPOLYLINE
  5
8B5
330
1F
100
AcDbEntity
  8
aree GPS
100
AcDbPolyline
 90
4
 70
1
 10
130432.0
 20
163385.0
 10
134775.0
 20
158773.0
 10
131727.0
 20
155903.0
 10
127384.0
 20
160515.0
  0
LINE
  5
8B6
330
1F
100
AcDbEntity
  8
lati di accesso
100
AcDbLine
 10
127384.0
 20
160515.0
 30
0.0
 11
131727.0
 21
155903.0
 31
0.0
  0
LWPOLYLINE
  5
8B7
330
1F
100
AcDbEntity
  8
aree GPS
100
AcDbPolyline
 90
4
 70
1
 10
134775.0
 20
158773.0
 10
139117.0
 20
154160.0
 10
136069.0
 20
151291.0
 10
131727.0
 20
155903.0
  0
LINE
  5
8B8
330
1F
100
AcDbEntity
  8
lati di accesso
100
AcDbLine
 10
131727.0
 20
155903.0
 30
0.0
 11
136069.0
 21
151291.0
 31
0.0
  0
LWPOLYLINE
  5
8B9
330
1F
100
AcDbEntity
  8
aree GPS
100
AcDbPolyline
 90
4
 70
1
 10
139117.0
 20
154160.0
 10
143459.0
 20
149548.0
 10
140412.0
 20
146679.0
 10
136069.0
 20
151291.0
  0
LINE
  5
8BA
330
1F
100
AcDbEntity
  8
lati di accesso
100
AcDbLine
 10
136069.0
 20
151291.0
 30
0.0
 11
140412.0
 21
146679.0
 31
0.0
  0
LWPOLYLINE
  5
8BB
330
1F
100
AcDbEntity
  8
aree GPS
100
AcDbPolyline
 90
4
 70
1
 10
143459.0
 20
149548.0
 10
147802.0
 20
144936.0
 10
144754.0
 20
142067.0
 10
140412.0
 20
146679.0
  0
LINE
  5
8BC
330
1F
100
AcDbEntity
  8
lati di accesso
100
AcDbLine
 10
140412.0
 20
146679.0
 30
0.0
 11
144754.0
 21
142067.0
 31
0.0
  0
LWPOLYLINE
  5
8BD
330
1F
100
AcDbEntity
  8
aree GPS
100
AcDbPolyline
 90
4
 70
1
 10
147802.0
 20
144936.0
 10
152144.0
 20
140324.0
 10
149096.0
 20
137455.0
 10
144754.0
 20
142067.0
  0
LINE
  5
8BE
330
1F
100
AcDbEntity
  8
lati di accesso
100
AcDbLine
 10
144754.0
 20
142067.0
 30
0.0
 11
149096.0
 21
137455.0
 31
0.0
  0
LWPOLYLINE
  5
8BF
330
1F
100
AcDbEntity
  8
aree GPS
100
AcDbPolyline
 90
4
 70
1
 10
152144.0
 20
140324.0
 10
156486.0
 20
135712.0
 10
153439.0
 20
132843.0
 10
149096.0
 20
137455.0
  0
LINE
  5
8C0
330
1F
100
AcDbEntity
  8
lati di accesso
100
AcDbLine
 10
149096.0
 20
137455.0
 30
0.0
 11
153439.0
 21
132843.0
 31
0.0
  0
LWPOLYLINE
  5
8C1
330
1F
100
AcDbEntity
  8
aree GPS
100
AcDbPolyline
 90
4
 70
1
 10
155897.0
 20
127013.0
 10
160593.0
 20
131435.0
 10
164847.0
 20
126917.0
 10
160150.0
 20
122495.0
  0
LINE
  5
8C2
330
1F
100
AcDbEntity
  8
lati di accesso
100
AcDbLine
 10
155897.0
 20
127013.0
 30
0.0
 11
160150.0
 21
122495.0
 31
0.0
  0
LWPOLYLINE
  5
8C3
330
1F
100
AcDbEntity
  8
aree GPS
100
AcDbPolyline
 90
4
 70
1
 10
160150.0
 20
122495.0
 10
164847.0
 20
126917.0
 10
169100.0
 20
122400.0
 10
164404.0
 20
117978.0
  0
LINE
  5
8C4
330
1F
100
AcDbEntity
  8
lati di accesso
100
AcDbLine
 10
160150.0
 20
122495.0
 30
0.0
 11
164404.0
 21
117978.0
 31
0.0
  0
LWPOLYLINE
  5
8C5
330
1F
100
AcDbEntity
  8
aree GPS
100
AcDbPolyline
 90
4
 70
1
 10
164404.0
 20
117978.0
 10
169100.0
 20
122400.0
 10
173354.0
 20
117882.0
 10
168657.0
 20
113460.0
  0
LINE
  5
8C6
330
1F
100
AcDbEntity
  8
lati di accesso
100
AcDbLine
 10
164404.0
 20
117978.0
 30
0.0
 11
168657.0
 21
113460.0
 31
0.0
  0
LWPOLYLINE
  5
8C7
330
1F
100
AcDbEntity
  8
aree GPS
100
AcDbPolyline
 90
4
 70
1
 10
168657.0
 20
113460.0
 10
173354.0
 20
117882.0
 10
177607.0
 20
113364.0
 10
172911.0
 20
108942.0
  0
LINE
  5
8C8
330
1F
100
AcDbEntity
  8
lati di accesso
100
AcDbLine
 10
168657.0
 20
113460.0
 30
0.0
 11
172911.0
 21
108942.0
 31
0.0
  0
LWPOLYLINE
  5
8C9
330
1F
100
AcDbEntity
  8
aree GPS
100
AcDbPolyline
 90
4
 70
1
 10
172911.0
 20
108942.0
 10
177607.0
 20
113364.0
 10
181861.0
 20
108846.0
 10
177164.0
 20
104424.0
  0
LINE
  5
8CA
330
1F
100
AcDbEntity
  8
lati di accesso
100
AcDbLine
 10
172911.0
 20
108942.0
 30
0.0
 11
177164.0
 21
104424.0
 31
0.0
  0
LWPOLYLINE
  5
8CB
330
1F
100
AcDbEntity
  8
aree GPS
100
AcDbPolyline
 90
4
 70
1
 10
129137.0
 20
170866.0
 10
133480.0
 20
166254.0
 10
130432.0
 20
163385.0
 10
126090.0
 20
167997.0
  0
LINE
  5
8CC
330
1F
100
AcDbEntity
  8
lati di accesso
100
AcDbLine
 10
133480.0
 20
166254.0
 30
0.0
 11
129137.0
 21
170866.0
 31
0.0
  0
LWPOLYLINE
  5
8CD
330
1F
100
AcDbEntity
  8
aree GPS
100
AcDbPolyline
 90
4
 70
1
 10
133480.0
 20
166254.0
 10
137822.0
 20
161642.0
 10
134775.0
 20
158773.0
 10
130432.0
 20
163385.0
  0
LINE
  5
8CE
330
1F
100
AcDbEntity
  8
lati di accesso
100
AcDbLine
 10
137822.0
 20
161642.0
 30
0.0
 11
133480.0
 21
166254.0
 31
0.0
  0
LWPOLYLINE
  5
8CF
330
1F
100
AcDbEntity
  8
aree GPS
100
AcDbPolyline
 90
4
 70
1
 10
137822.0
 20
161642.0
 10
142165.0
 20
157030.0
 10
139117.0
 20
154160.0
 10
134775.0
 20
158773.0
  0
LINE
  5
8D0
330
1F
100
AcDbEntity
  8
lati di accesso
100
AcDbLine
 10
142165.0
 20
157030.0
 30
0.0
 11
137822.0
 21
161642.0
 31
0.0
  0
LWPOLYLINE
  5
8D1
330
1F
100
AcDbEntity
  8
aree GPS
100
AcDbPolyline
 90
4
 70
1
 10
142165.0
 20
157030.0
 10
146507.0
 20
152418.0
 10
143459.0
 20
149548.0
 10
139117.0
 20
154160.0
  0
LINE
  5
8D2
330
1F
100
AcDbEntity
  8
lati di accesso
100
AcDbLine
 10
146507.0
 20
152418.0
 30
0.0
 11
142165.0
 21
157030.0
 31
0.0
  0
LWPOLYLINE
  5
8D3
330
1F
100
AcDbEntity
  8
aree GPS
100
AcDbPolyline
 90
4
 70
1
 10
146507.0
 20
152418.0
 10
150849.0
 20
147806.0
 10
147802.0
 20
144936.0
 10
143459.0
 20
149548.0
  0
LINE
  5
8D4
330
1F
100
AcDbEntity
  8
lati di accesso
100
AcDbLine
 10
150849.0
 20
147806.0
 30
0.0
 11
146507.0
 21
152418.0
 31
0.0
  0
LWPOLYLINE
  5
8D5
330
1F
100
AcDbEntity
  8
aree GPS
100
AcDbPolyline
 90
4
 70
1
 10
150849.0
 20
147806.0
 10
155192.0
 20
143194.0
 10
152144.0
 20
140324.0
 10
147802.0
 20
144936.0
  0
LINE
  5
8D6
330
1F
100
AcDbEntity
  8
lati di accesso
100
AcDbLine
 10
155192.0
 20
143194.0
 30
0.0
 11
150849.0
 21
147806.0
 31
0.0
  0
LWPOLYLINE
  5
8D7
330
1F
100
AcDbEntity
  8
aree GPS
100
AcDbPolyline
 90
4
 70
1
 10
155192.0
 20
143194.0
 10
159534.0
 20
138582.0
 10
156486.0
 20
135712.0
 10
152144.0
 20
140324.0
  0
LINE
  5
8D8
330
1F
100
AcDbEntity
  8
lati di accesso
100
AcDbLine
 10
159534.0
 20
138582.0
 30
0.0
 11
155192.0
 21
143194.0
 31
0.0
  0
LWPOLYLINE
  5
8D9
330
1F
100
AcDbEntity
  8
aree GPS
100
AcDbPolyline
 90
4
 70
1
 10
160593.0
 20
131435.0
 10
164445.0
 20
135061.0
 10
168698.0
 20
130543.0
 10
164847.0
 20
126917.0
  0
LINE
  5
8DA
330
1F
100
AcDbEntity
  8
lati di accesso
100
AcDbLine
 10
168698.0
 20
130543.0
 30
0.0
 11
164445.0
 21
135061.0
 31
0.0
  0
LWPOLYLINE
  5
8DB
330
1F
100
AcDbEntity
  8
aree GPS
100
AcDbPolyline
 90
4
 70
1
 10
164847.0
 20
126917.0
 10
168698.0
 20
130543.0
 10
172952.0
 20
126026.0
 10
169100.0
 20
122400.0
  0
LINE
  5
8DC
330
1F
100
AcDbEntity
  8
lati di accesso
100
AcDbLine
 10
172952.0
 20
126026.0
 30
0.0
 11
168698.0
 21
130543.0
 31
0.0
  0
LWPOLYLINE
  5
8DD
330
1F
100
AcDbEntity
  8
aree GPS
100
AcDbPolyline
 90
4
 70
1
 10
169100.0
 20
122400.0
 10
172952.0
 20
126026.0
 10
177205.0
 20
121508.0
 10
173354.0
 20
117882.0
  0
LINE
  5
8DE
330
1F
100
AcDbEntity
  8
lati di accesso
100
AcDbLine
 10
177205.0
 20
121508.0
 30
0.0
 11
172952.0
 21
126026.0
 31
0.0
  0
LWPOLYLINE
  5
8DF
330
1F
100
AcDbEntity
  8
aree GPS
100
AcDbPolyline
 90
4
 70
1
 10
173354.0
 20
117882.0
 10
177205.0
 20
121508.0
 10
181459.0
 20
116990.0
 10
177607.0
 20
113364.0
  0
LINE
  5
8E0
330
1F
100
AcDbEntity
  8
lati di accesso
100
AcDbLine
 10
181459.0
 20
116990.0
 30
0.0
 11
177205.0
 21
121508.0
 31
0.0
  0
LWPOLYLINE
  5
8E1
330
1F
100
AcDbEntity
  8
aree GPS
100
AcDbPolyline
 90
4
 70
1
 10
177607.0
 20
113364.0
 10
181459.0
 20
116990.0
 10
185712.0
 20
112473.0
 10
181861.0
 20
108846.0
  0
LINE
  5
8E2
330
1F
100
AcDbEntity
  8
lati di accesso
100
AcDbLine
 10
185712.0
 20
112473.0
 30
0.0
 11
181459.0
 21
116990.0
 31
0.0
  0
LWPOLYLINE
  5
8E3
330
1F
100
AcDbEntity
  8
aree GPS
100
AcDbPolyline
 90
4
 70
1
 10
185712.0
 20
112473.0
 10
191943.0
 20
105854.0
 10
184370.0
 20
98724.0
 10
178138.0
 20
105342.0
  0
LINE
  5
8E4
330
1F
100
AcDbEntity
  8
lati di accesso
100
AcDbLine
 10
191943.0
 20
105854.0
 30
0.0
 11
185712.0
 21
112473.0
 31
0.0
  0
LWPOLYLINE
  5
8E5
330
1F
100
AcDbEntity
  8
aree GPS
100
AcDbPolyline
 90
4
 70
1
 10
191943.0
 20
105854.0
 10
198174.0
 20
99236.0
 10
190601.0
 20
92105.0
 10
184370.0
 20
98724.0
  0
LINE
  5
8E6
330
1F
100
AcDbEntity
  8
lati di accesso
100
AcDbLine
 10
198174.0
 20
99236.0
 30
0.0
 11
191943.0
 21
105854.0
 31
0.0
  0
LWPOLYLINE
  5
8E7
330
1F
100
AcDbEntity
  8
aree GPS
100
AcDbPolyline
 90
4
 70
1
 10
135178.0
 20
166765.0
 10
141620.0
 20
173048.0
 10
146116.0
 20
168438.0
 10
139675.0
 20
162155.0
  0
LINE
  5
8E8
330
1F
100
AcDbEntity
  8
lati di accesso
100
AcDbLine
 10
135178.0
 20
166765.0
 30
0.0
 11
139675.0
 21
162155.0
 31
0.0
  0
LWPOLYLINE
  5
8E9
330
1F
100
AcDbEntity
  8
aree GPS
100
AcDbPolyline
 90
4
 70
1
 10
139675.0
 20
162155.0
 10
146116.0
 20
168438.0
 10
150613.0
 20
163828.0
 10
144172.0
 20
157545.0
  0
LINE
  5
8EA
330
1F
100
AcDbEntity
  8
lati di accesso
100
AcDbLine
 10
139675.0
 20
162155.0
 30
0.0
 11
144172.0
 21
157545.0
 31
0.0
  0
LWPOLYLINE
  5
8EB
330
1F
100
AcDbEntity
  8
aree GPS
100
AcDbPolyline
 90
4
 70
1
 10
144172.0
 20
157545.0
 10
150613.0
 20
163828.0
 10
155110.0
 20
159218.0
 10
148669.0
 20
152935.0
  0
LINE
  5
8EC
330
1F
100
AcDbEntity
  8
lati di accesso
100
AcDbLine
 10
144172.0
 20
157545.0
 30
0.0
 11
148669.0
 21
152935.0
 31
0.0
  0
LWPOLYLINE
  5
8ED
330
1F
100
AcDbEntity
  8
aree GPS
100
AcDbPolyline
 90
4
 70
1
 10
148669.0
 20
152935.0
 10
155110.0
 20
159218.0
 10
159607.0
 20
154608.0
 10
153165.0
 20
148325.0
  0
LINE
  5
8EE
330
1F
100
AcDbEntity
  8
lati di accesso
100
AcDbLine
 10
148669.0
 20
152935.0
 30
0.0
 11
153165.0
 21
148325.0
 31
0.0
  0
LWPOLYLINE
  5
8EF
330
1F
100
AcDbEntity
  8
aree GPS
100
AcDbPolyline
 90
4
 70
1
 10
153165.0
 20
148325.0
 10
159607.0
 20
154608.0
 10
164103.0
 20
149998.0
 10
157662.0
 20
143715.0
  0
LINE
  5
8F0
330
1F
100
AcDbEntity
  8
lati di accesso
100
AcDbLine
 10
153165.0
 20
148325.0
 30
0.0
 11
157662.0
 21
143715.0
 31
0.0
  0
LWPOLYLINE
  5
8F1
330
1F
100
AcDbEntity
  8
aree GPS
100
AcDbPolyline
 90
4
 70
1
 10
157662.0
 20
143715.0
 10
164103.0
 20
149998.0
 10
168600.0
 20
145388.0
 10
162159.0
 20
139105.0
  0
LINE
  5
8F2
330
1F
100
AcDbEntity
  8
lati di accesso
100
AcDbLine
 10
157662.0
 20
143715.0
 30
0.0
 11
162159.0
 21
139105.0
 31
0.0
  0
LWPOLYLINE
  5
8F3
330
1F
100
AcDbEntity
  8
aree GPS
100
AcDbPolyline
 90
4
 70
1
 10
166193.0
 20
136700.0
 10
171855.0
 20
142219.0
 10
177008.0
 20
136933.0
 10
171346.0
 20
131414.0
  0
LINE
  5
8F4
330
1F
100
AcDbEntity
  8
lati di accesso
100
AcDbLine
 10
166193.0
 20
136700.0
 30
0.0
 11
171346.0
 21
131414.0
 31
0.0
  0
LWPOLYLINE
  5
8F5
330
1F
100
AcDbEntity
  8
aree GPS
100
AcDbPolyline
 90
4
 70
1
 10
171346.0
 20
131414.0
 10
177008.0
 20
136933.0
 10
181196.0
 20
132636.0
 10
175534.0
 20
127117.0
  0
LINE
  5
8F6
330
1F
100
AcDbEntity
  8
lati di accesso
100
AcDbLine
 10
171346.0
 20
131414.0
 30
0.0
 11
175534.0
 21
127117.0
 31
0.0
  0
LWPOLYLINE
  5
8F7
330
1F
100
AcDbEntity
  8
aree GPS
100
AcDbPolyline
 90
4
 70
1
 10
175534.0
 20
127117.0
 10
181196.0
 20
132636.0
 10
185384.0
 20
128340.0
 10
179722.0
 20
122821.0
  0
LINE
  5
8F8
330
1F
100
AcDbEntity
  8
lati di accesso
100
AcDbLine
 10
175534.0
 20
127117.0
 30
0.0
 11
179722.0
 21
122821.0
 31
0.0
  0
LWPOLYLINE
  5
8F9
330
1F
100
AcDbEntity
  8
aree GPS
100
AcDbPolyline
 90
4
 70
1
 10
179722.0
 20
122821.0
 10
185384.0
 20
128340.0
 10
189572.0
 20
124043.0
 10
183911.0
 20
118525.0
  0
LINE
  5
8FA
330
1F
100
AcDbEntity
  8
lati di accesso
100
AcDbLine
 10
179722.0
 20
122821.0
 30
0.0
 11
183911.0
 21
118525.0
 31
0.0
  0
LWPOLYLINE
  5
8FB
330
1F
100
AcDbEntity
  8
aree GPS
100
AcDbPolyline
 90
4
 70
1
 10
183911.0
 20
118525.0
 10
189572.0
 20
124043.0
 10
193760.0
 20
119747.0
 10
188099.0
 20
114228.0
  0
LINE
  5
8FC
330
1F
100
AcDbEntity
  8
lati di accesso
100
AcDbLine
 10
183912.0
 20
118526.0
 30
0.0
 11
188098.0
 21
114227.0
 31
0.0
  0
LWPOLYLINE
  5
8FD
330
1F
100
AcDbEntity
  8
aree GPS
100
AcDbPolyline
 90
4
 70
1
 10
188099.0
 20
114228.0
 10
193758.0
 20
119745.0
 10
197946.0
 20
115448.0
 10
192287.0
 20
109932.0
  0
LINE
  5
8FE
330
1F
100
AcDbEntity
  8
lati di accesso
100
AcDbLine
 10
188099.0
 20
114228.0
 30
0.0
 11
192287.0
 21
109932.0
 31
0.0
  0
LWPOLYLINE
  5
8FF
330
1F
100
AcDbEntity
  8
aree GPS
100
AcDbPolyline
 90
4
 70
1
 10
192287.0
 20
109932.0
 10
197946.0
 20
115448.0
 10
202134.0
 20
111152.0
 10
196475.0
 20
105635.0
  0
LINE
  5
900
330
1F
100
AcDbEntity
  8
lati di accesso
100
AcDbLine
 10
192287.0
 20
109932.0
 30
0.0
 11
196475.0
 21
105635.0
 31
0.0
  0
LWPOLYLINE
  5
901
330
1F
100
AcDbEntity
  8
aree GPS
100
AcDbPolyline
 90
4
 70
1
 10
202134.0
 20
111152.0
 10
207370.0
 20
105781.0
 10
201710.0
 20
100265.0
 10
196475.0
 20
105635.0
  0
LINE
  5
902
330
1F
100
AcDbEntity
  8
lati di accesso
100
AcDbLine
 10
196475.0
 20
105635.0
 30
0.0
 11
201710.0
 21
100265.0
 31
0.0
  0
LWPOLYLINE
  5
903
330
1F
100
AcDbEntity
  8
aree GPS
100
AcDbPolyline
 90
4
 70
1
 10
170915.0
 20
147646.0
 10
168600.0
 20
145388.0
 10
146116.0
 20
168438.0
 10
148431.0
 20
170696.0
  0
LINE
  5
904
330
1F
100
AcDbEntity
  8
lati di accesso
100
AcDbLine
 10
170915.0
 20
147646.0
 30
0.0
 11
148431.0
 21
170696.0
 31
0.0
  0
LWPOLYLINE
  5
905
330
1F
100
AcDbEntity
  8
aree GPS
100
AcDbPolyline
 90
4
 70
1
 10
210166.0
 20
107545.0
 10
207851.0
 20
105288.0
 10
173901.0
 20
140115.0
 10
176217.0
 20
142372.0
  0
LINE
  5
906
330
1F
100
AcDbEntity
  8
lati di accesso
100
AcDbLine
 10
210166.0
 20
107545.0
 30
0.0
 11
176217.0
 21
142372.0
 31
0.0
  0
LWPOLYLINE
  5
907
330
1F
100
AcDbEntity
  8
aree GPS
100
AcDbPolyline
 90
4
 70
1
 10
223717.0
 20
106149.0
 10
221020.0
 20
109522.0
 10
217183.0
 20
106452.0
 10
219718.0
 20
102989.0
  0
LINE
  5
908
330
1F
100
AcDbEntity
  8
lati di accesso
100
AcDbLine
 10
221020.0
 20
109522.0
 30
0.0
 11
217183.0
 21
106452.0
 31
0.0
  0
LWPOLYLINE
  5
909
330
1F
100
AcDbEntity
  8
aree GPS
100
AcDbPolyline
 90
4
 70
1
 10
215724.0
 20
198513.0
 10
217741.0
 20
195844.0
 10
209445.0
 20
189575.0
 10
207428.0
 20
192244.0
  0
LINE
  5
90A
330
1F
100
AcDbEntity
  8
lati di accesso
100
AcDbLine
 10
207428.0
 20
192244.0
 30
0.0
 11
209445.0
 21
189575.0
 31
0.0
  0
LWPOLYLINE
  5
90B
330
1F
100
AcDbEntity
  8
aree GPS
100
AcDbPolyline
 90
4
 70
1
 10
217741.0
 20
195844.0
 10
219790.0
 20
193134.0
 10
211494.0
 20
186864.0
 10
209445.0
 20
189575.0
  0
LINE
  5
90C
330
1F
100
AcDbEntity
  8
lati di accesso
100
AcDbLine
 10
209445.0
 20
189575.0
 30
0.0
 11
211494.0
 21
186864.0
 31
0.0
  0
LWPOLYLINE
  5
90D
330
1F
100
AcDbEntity
  8
aree GPS
100
AcDbPolyline
 90
4
 70
1
 10
219789.0
 20
193133.0
 10
222473.0
 20
189581.0
 10
214179.0
 20
183311.0
 10
211494.0
 20
186864.0
  0
LINE
  5
90E
330
1F
100
AcDbEntity
  8
lati di accesso
100
AcDbLine
 10
211494.0
 20
186864.0
 30
0.0
 11
214179.0
 21
183311.0
 31
0.0
  0
LWPOLYLINE
  5
90F
330
1F
100
AcDbEntity
  8
aree GPS
100
AcDbPolyline
 90
4
 70
1
 10
214875.0
 20
182738.0
 10
227037.0
 20
192064.0
 10
229423.0
 20
188947.0
 10
217297.0
 20
179649.0
  0
LINE
  5
910
330
1F
100
AcDbEntity
  8
lati di accesso
100
AcDbLine
 10
214875.0
 20
182738.0
 30
0.0
 11
217297.0
 21
179649.0
 31
0.0
  0
LWPOLYLINE
  5
911
330
1F
100
AcDbEntity
  8
aree GPS
100
AcDbPolyline
 90
4
 70
1
 10
217297.0
 20
179649.0
 10
229423.0
 20
188947.0
 10
232471.0
 20
184966.0
 10
220391.0
 20
175703.0
  0
LINE
  5
912
330
1F
100
AcDbEntity
  8
lati di accesso
100
AcDbLine
 10
217297.0
 20
179649.0
 30
0.0
 11
220391.0
 21
175703.0
 31
0.0
  0
LWPOLYLINE
  5
913
330
1F
100
AcDbEntity
  8
aree GPS
100
AcDbPolyline
 90
4
 70
1
 10
220912.0
 20
175039.0
 10
232984.0
 20
184296.0
 10
236599.0
 20
179575.0
 10
224581.0
 20
170359.0
  0
LINE
  5
914
330
1F
100
AcDbEntity
  8
lati di accesso
100
AcDbLine
 10
220912.0
 20
175039.0
 30
0.0
 11
224581.0
 21
170359.0
 31
0.0
  0
LWPOLYLINE
  5
915
330
1F
100
AcDbEntity
  8
aree GPS
100
AcDbPolyline
 90
4
 70
1
 10
225118.0
 20
169674.0
 10
237128.0
 20
178884.0
 10
240633.0
 20
174306.0
 10
228676.0
 20
165137.0
  0
LINE
  5
916
330
1F
100
AcDbEntity
  8
lati di accesso
100
AcDbLine
 10
225118.0
 20
169674.0
 30
0.0
 11
228676.0
 21
165137.0
 31
0.0
  0
LWPOLYLINE
  5
917
330
1F
100
AcDbEntity
  8
aree GPS
100
AcDbPolyline
 90
4
 70
1
 10
229224.0
 20
164437.0
 10
241173.0
 20
173600.0
 10
242913.0
 20
171328.0
 10
230990.0
 20
162185.0
  0
LINE
  5
918
330
1F
100
AcDbEntity
  8
lati di accesso
100
AcDbLine
 10
229224.0
 20
164437.0
 30
0.0
 11
230990.0
 21
162185.0
 31
0.0
  0
LWPOLYLINE
  5
919
330
1F
100
AcDbEntity
  8
aree GPS
100
AcDbPolyline
 90
4
 70
1
 10
230990.0
 20
162185.0
 10
242913.0
 20
171328.0
 10
245930.0
 20
167388.0
 10
234052.0
 20
158280.0
  0
LINE
  5
91A
330
1F
100
AcDbEntity
  8
lati di accesso
100
AcDbLine
 10
230990.0
 20
162185.0
 30
0.0
 11
234052.0
 21
158280.0
 31
0.0
  0
LWPOLYLINE
  5
91B
330
1F
100
AcDbEntity
  8
aree GPS
100
AcDbPolyline
 90
4
 70
1
 10
234052.0
 20
158280.0
 10
245930.0
 20
167388.0
 10
247800.0
 20
164945.0
 10
235951.0
 20
155858.0
  0
LINE
  5
91C
330
1F
100
AcDbEntity
  8
lati di accesso
100
AcDbLine
 10
234052.0
 20
158280.0
 30
0.0
 11
235951.0
 21
155858.0
 31
0.0
  0
LWPOLYLINE
  5
91D
330
1F
100
AcDbEntity
  8
aree GPS
100
AcDbPolyline
 90
4
 70
1
 10
235951.0
 20
155858.0
 10
247800.0
 20
164945.0
 10
251243.0
 20
160449.0
 10
239445.0
 20
151401.0
  0
LINE
  5
91E
330
1F
100
AcDbEntity
  8
lati di accesso
100
AcDbLine
 10
235951.0
 20
155858.0
 30
0.0
 11
239445.0
 21
151401.0
 31
0.0
  0
LWPOLYLINE
  5
91F
330
1F
100
AcDbEntity
  8
aree GPS
100
AcDbPolyline
 90
4
 70
1
 10
239445.0
 20
151401.0
 10
251243.0
 20
160449.0
 10
254737.0
 20
155885.0
 10
242992.0
 20
146878.0
  0
LINE
  5
920
330
1F
100
AcDbEntity
  8
lati di accesso
100
AcDbLine
 10
239445.0
 20
151401.0
 30
0.0
 11
242992.0
 21
146878.0
 31
0.0
  0
LWPOLYLINE
  5
921
330
1F
100
AcDbEntity
  8
aree GPS
100
AcDbPolyline
 90
4
 70
1
 10
75939.0
 20
161201.0
 10
82289.0
 20
153007.0
 10
136944.0
 20
195344.0
 10
130585.0
 20
203549.0
  0
LINE
  5
922
330
1F
100
AcDbEntity
  8
lati di accesso
100
AcDbLine
 10
82289.0
 20
153007.0
 30
0.0
 11
136944.0
 21
195344.0
 31
0.0
  0
LWPOLYLINE
  5
923
330
1F
100
AcDbEntity
  8
aree GPS
100
AcDbPolyline
 90
4
 70
1
 10
275943.0
 20
128954.0
 10
279237.0
 20
124423.0
 10
269165.0
 20
117101.0
 10
265871.0
 20
121632.0
  0
LINE
  5
924
330
1F
100
AcDbEntity
  8
lati di accesso
100
AcDbLine
 10
275943.0
 20
128954.0
 30
0.0
 11
265871.0
 21
121632.0
 31
0.0
  0
LWPOLYLINE
  5
925
330
1F
100
AcDbEntity
  8
aree GPS
100
AcDbPolyline
 90
4
 70
1
 10
279237.0
 20
124423.0
 10
282532.0
 20
119892.0
 10
272460.0
 20
112570.0
 10
269165.0
 20
117101.0
  0
LINE
  5
926
330
1F
100
AcDbEntity
  8
lati di accesso
100
AcDbLine
 10
272460.0
 20
112570.0
 30
0.0
 11
282532.0
 21
119892.0
 31
0.0
  0
LWPOLYLINE
  5
927
330
1F
100
AcDbEntity
  8
aree GPS
100
AcDbPolyline
 90
4
 70
1
 10
286288.0
 20
116515.0
 10
290202.0
 20
111447.0
 10
279914.0
 20
103500.0
 10
276000.0
 20
108568.0
  0
LINE
  5
928
330
1F
100
AcDbEntity
  8
lati di accesso
100
AcDbLine
 10
286288.0
 20
116515.0
 30
0.0
 11
276000.0
 21
108568.0
 31
0.0
  0
LWPOLYLINE
  5
929
330
1F
100
AcDbEntity
  8
aree GPS
100
AcDbPolyline
 90
4
 70
1
 10
290202.0
 20
111447.0
 10
293834.0
 20
106814.0
 10
283546.0
 20
98867.0
 10
279914.0
 20
103500.0
  0
LINE
  5
92A
330
1F
100
AcDbEntity
  8
lati di accesso
100
AcDbLine
 10
283546.0
 20
98867.0
 30
0.0
 11
293834.0
 21
106814.0
 31
0.0
  0
LWPOLYLINE
  5
92B
330
1F
100
AcDbEntity
  8
aree GPS
100
AcDbPolyline
 90
4
 70
1
 10
300090.0
 20
99458.0
 10
304344.0
 20
93774.0
 10
293936.0
 20
85985.0
 10
289682.0
 20
91670.0
  0
LINE
  5
92C
330
1F
100
AcDbEntity
  8
lati di accesso
100
AcDbLine
 10
300090.0
 20
99458.0
 30
0.0
 11
289682.0
 21
91670.0
 31
0.0
  0
LWPOLYLINE
  5
92D
330
1F
100
AcDbEntity
  8
aree GPS
100
AcDbPolyline
 90
4
 70
1
 10
304344.0
 20
93774.0
 10
309197.0
 20
87289.0
 10
298789.0
 20
79500.0
 10
293936.0
 20
85985.0
  0
LINE
  5
92E
330
1F
100
AcDbEntity
  8
lati di accesso
100
AcDbLine
 10
298789.0
 20
79500.0
 30
0.0
 11
309197.0
 21
87289.0
 31
0.0
  0
LWPOLYLINE
  5
92F
330
1F
100
AcDbEntity
  8
aree GPS
100
AcDbPolyline
 90
4
 70
1
 10
310547.0
 20
85794.0
 10
314056.0
 20
80804.0
 10
303422.0
 20
73326.0
 10
299913.0
 20
78315.0
  0
LINE
  5
930
330
1F
100
AcDbEntity
  8
lati di accesso
100
AcDbLine
 10
310547.0
 20
85794.0
 30
0.0
 11
299913.0
 21
78315.0
 31
0.0
  0
LWPOLYLINE
  5
931
330
1F
100
AcDbEntity
  8
aree GPS
100
AcDbPolyline
 90
4
 70
1
 10
314056.0
 20
80804.0
 10
317565.0
 20
75814.0
 10
306931.0
 20
68336.0
 10
303422.0
 20
73326.0
  0
LINE
  5
932
330
1F
100
AcDbEntity
  8
lati di accesso
100
AcDbLine
 10
306931.0
 20
68336.0
 30
0.0
 11
317565.0
 21
75814.0
 31
0.0
  0
LWPOLYLINE
  5
933
330
1F
100
AcDbEntity
  8
aree GPS
100
AcDbPolyline
 90
4
 70
1
 10
319039.0
 20
74696.0
 10
323007.0
 20
70063.0
 10
313134.0
 20
61606.0
 10
309166.0
 20
66239.0
  0
LINE
  5
934
330
1F
100
AcDbEntity
  8
lati di accesso
100
AcDbLine
 10
319039.0
 20
74696.0
 30
0.0
 11
309166.0
 21
66239.0
 31
0.0
  0
LWPOLYLINE
  5
935
330
1F
100
AcDbEntity
  8
aree GPS
100
AcDbPolyline
 90
4
 70
1
 10
323007.0
 20
70063.0
 10
326976.0
 20
65431.0
 10
317103.0
 20
56973.0
 10
313134.0
 20
61606.0
  0
LINE
  5
936
330
1F
100
AcDbEntity
  8
lati di accesso
100
AcDbLine
 10
317103.0
 20
56973.0
 30
0.0
 11
326976.0
 21
65431.0
 31
0.0
  0
LWPOLYLINE
  5
937
330
1F
100
AcDbEntity
  8
aree GPS
100
AcDbPolyline
 90
4
 70
1
 10
330535.0
 20
61287.0
 10
334503.0
 20
56654.0
 10
324630.0
 20
48197.0
 10
320662.0
 20
52830.0
  0
LINE
  5
938
330
1F
100
AcDbEntity
  8
lati di accesso
100
AcDbLine
 10
330535.0
 20
61287.0
 30
0.0
 11
320662.0
 21
52830.0
 31
0.0
  0
LWPOLYLINE
  5
939
330
1F
100
AcDbEntity
  8
aree GPS
100
AcDbPolyline
 90
4
 70
1
 10
334503.0
 20
56654.0
 10
338472.0
 20
52021.0
 10
328599.0
 20
43564.0
 10
324630.0
 20
48197.0
  0
LINE
  5
93A
330
1F
100
AcDbEntity
  8
lati di accesso
100
AcDbLine
 10
328599.0
 20
43564.0
 30
0.0
 11
338472.0
 21
52021.0
 31
0.0
  0
LWPOLYLINE
  5
93B
330
1F
100
AcDbEntity
  8
aree GPS
100
AcDbPolyline
 90
4
 70
1
 10
340145.0
 20
50232.0
 10
344114.0
 20
45599.0
 10
334241.0
 20
37142.0
 10
330272.0
 20
41774.0
  0
LINE
  5
93C
330
1F
100
AcDbEntity
  8
lati di accesso
100
AcDbLine
 10
340145.0
 20
50232.0
 30
0.0
 11
330272.0
 21
41774.0
 31
0.0
  0
LWPOLYLINE
  5
93D
330
1F
100
AcDbEntity
  8
aree GPS
100
AcDbPolyline
 90
4
 70
1
 10
344114.0
 20
45599.0
 10
347432.0
 20
41726.0
 10
337559.0
 20
33268.0
 10
334241.0
 20
37142.0
  0
LINE
  5
93E
330
1F
100
AcDbEntity
  8
lati di accesso
100
AcDbLine
 10
337559.0
 20
33268.0
 30
0.0
 11
347434.0
 21
41723.0
 31
0.0
  0
LWPOLYLINE
  5
93F
330
1F
100
AcDbEntity
  8
aree GPS
100
AcDbPolyline
 90
4
 70
1
 10
344627.0
 20
38265.0
 10
348500.0
 20
41583.0
 10
354836.0
 20
34186.0
 10
350962.0
 20
30868.0
  0
LINE
  5
940
330
1F
100
AcDbEntity
  8
lati di accesso
100
AcDbLine
 10
344627.0
 20
38265.0
 30
0.0
 11
350962.0
 21
30868.0
 31
0.0
  0
LWPOLYLINE
  5
941
330
1F
100
AcDbEntity
  8
aree GPS
100
AcDbPolyline
 90
4
 70
1
 10
261451.0
 20
122891.0
 10
265393.0
 20
117787.0
 10
255105.0
 20
109840.0
 10
251163.0
 20
114944.0
  0
LINE
  5
942
330
1F
100
AcDbEntity
  8
lati di accesso
100
AcDbLine
 10
261451.0
 20
122891.0
 30
0.0
 11
251163.0
 21
114944.0
 31
0.0
  0
LWPOLYLINE
  5
943
330
1F
100
AcDbEntity
  8
aree GPS
100
AcDbPolyline
 90
4
 70
1
 10
265393.0
 20
117787.0
 10
267518.0
 20
115036.0
 10
257230.0
 20
107089.0
 10
255105.0
 20
109840.0
  0
LINE
  5
944
330
1F
100
AcDbEntity
  8
lati di accesso
100
AcDbLine
 10
257230.0
 20
107089.0
 30
0.0
 11
267518.0
 21
115036.0
 31
0.0
  0
LWPOLYLINE
  5
945
330
1F
100
AcDbEntity
  8
aree GPS
100
AcDbPolyline
 90
4
 70
1
 10
268435.0
 20
113849.0
 10
271385.0
 20
110031.0
 10
261096.0
 20
102084.0
 10
258147.0
 20
105902.0
  0
LINE
  5
946
330
1F
100
AcDbEntity
  8
lati di accesso
100
AcDbLine
 10
268435.0
 20
113849.0
 30
0.0
 11
258147.0
 21
105902.0
 31
0.0
  0
LWPOLYLINE
  5
947
330
1F
100
AcDbEntity
  8
aree GPS
100
AcDbPolyline
 90
4
 70
1
 10
271385.0
 20
110031.0
 10
274502.0
 20
105995.0
 10
264214.0
 20
98048.0
 10
261096.0
 20
102084.0
  0
LINE
  5
948
330
1F
100
AcDbEntity
  8
lati di accesso
100
AcDbLine
 10
264214.0
 20
98048.0
 30
0.0
 11
274502.0
 21
105995.0
 31
0.0
  0
LWPOLYLINE
  5
949
330
1F
100
AcDbEntity
  8
aree GPS
100
AcDbPolyline
 90
4
 70
1
 10
275502.0
 20
104701.0
 10
278226.0
 20
101158.0
 10
267938.0
 20
93211.0
 10
265213.0
 20
96754.0
  0
LINE
  5
94A
330
1F
100
AcDbEntity
  8
lati di accesso
100
AcDbLine
 10
275502.0
 20
104701.0
 30
0.0
 11
265213.0
 21
96754.0
 31
0.0
  0
LWPOLYLINE
  5
94B
330
1F
100
AcDbEntity
  8
aree GPS
100
AcDbPolyline
 90
4
 70
1
 10
278226.0
 20
101158.0
 10
281737.0
 20
96629.0
 10
271449.0
 20
88682.0
 10
267938.0
 20
93211.0
  0
LINE
  5
94C
330
1F
100
AcDbEntity
  8
lati di accesso
100
AcDbLine
 10
271449.0
 20
88682.0
 30
0.0
 11
281737.0
 21
96629.0
 31
0.0
  0
LWPOLYLINE
  5
94D
330
1F
100
AcDbEntity
  8
aree GPS
100
AcDbPolyline
 90
4
 70
1
 10
283441.0
 20
94422.0
 10
286559.0
 20
90386.0
 10
276271.0
 20
82439.0
 10
273153.0
 20
86475.0
  0
LINE
  5
94E
330
1F
100
AcDbEntity
  8
lati di accesso
100
AcDbLine
 10
283441.0
 20
94422.0
 30
0.0
 11
273153.0
 21
86475.0
 31
0.0
  0
LWPOLYLINE
  5
94F
330
1F
100
AcDbEntity
  8
aree GPS
100
AcDbPolyline
 90
4
 70
1
 10
286559.0
 20
90386.0
 10
289665.0
 20
86365.0
 10
279377.0
 20
78418.0
 10
276271.0
 20
82439.0
  0
LINE
  5
950
330
1F
100
AcDbEntity
  8
lati di accesso
100
AcDbLine
 10
279377.0
 20
78418.0
 30
0.0
 11
289665.0
 21
86365.0
 31
0.0
  0
LWPOLYLINE
  5
951
330
1F
100
AcDbEntity
  8
aree GPS
100
AcDbPolyline
 90
4
 70
1
 10
290937.0
 20
84700.0
 10
294043.0
 20
80679.0
 10
283755.0
 20
72732.0
 10
280648.0
 20
76753.0
  0
LINE
  5
952
330
1F
100
AcDbEntity
  8
lati di accesso
100
AcDbLine
 10
290937.0
 20
84700.0
 30
0.0
 11
280648.0
 21
76753.0
 31
0.0
  0
LWPOLYLINE
  5
953
330
1F
100
AcDbEntity
  8
aree GPS
100
AcDbPolyline
 90
4
 70
1
 10
294043.0
 20
80679.0
 10
297160.0
 20
76643.0
 10
286872.0
 20
68696.0
 10
283755.0
 20
72732.0
  0
LINE
  5
954
330
1F
100
AcDbEntity
  8
lati di accesso
100
AcDbLine
 10
286872.0
 20
68696.0
 30
0.0
 11
297160.0
 21
76643.0
 31
0.0
  0
LWPOLYLINE
  5
955
330
1F
100
AcDbEntity
  8
aree GPS
100
AcDbPolyline
 90
4
 70
1
 10
298267.0
 20
73494.0
 10
301996.0
 20
68667.0
 10
291708.0
 20
60720.0
 10
287979.0
 20
65547.0
  0
LINE
  5
956
330
1F
100
AcDbEntity
  8
lati di accesso
100
AcDbLine
 10
298267.0
 20
73494.0
 30
0.0
 11
287979.0
 21
65547.0
 31
0.0
  0
LWPOLYLINE
  5
957
330
1F
100
AcDbEntity
  8
aree GPS
100
AcDbPolyline
 90
4
 70
1
 10
301996.0
 20
68667.0
 10
305723.0
 20
63842.0
 10
295434.0
 20
55895.0
 10
291708.0
 20
60720.0
  0
LINE
  5
958
330
1F
100
AcDbEntity
  8
lati di accesso
100
AcDbLine
 10
295434.0
 20
55895.0
 30
0.0
 11
305723.0
 21
63842.0
 31
0.0
  0
LWPOLYLINE
  5
959
330
1F
100
AcDbEntity
  8
aree GPS
100
AcDbPolyline
 90
4
 70
1
 10
306647.0
 20
60284.0
 10
310091.0
 20
56527.0
 10
300510.0
 20
47741.0
 10
297065.0
 20
51498.0
  0
LINE
  5
95A
330
1F
100
AcDbEntity
  8
lati di accesso
100
AcDbLine
 10
306647.0
 20
60284.0
 30
0.0
 11
297065.0
 21
51498.0
 31
0.0
  0
LWPOLYLINE
  5
95B
330
1F
100
AcDbEntity
  8
aree GPS
100
AcDbPolyline
 90
4
 70
1
 10
310091.0
 20
56527.0
 10
313538.0
 20
52768.0
 10
303957.0
 20
43982.0
 10
300510.0
 20
47741.0
  0
LINE
  5
95C
330
1F
100
AcDbEntity
  8
lati di accesso
100
AcDbLine
 10
303957.0
 20
43982.0
 30
0.0
 11
313538.0
 21
52768.0
 31
0.0
  0
LWPOLYLINE
  5
95D
330
1F
100
AcDbEntity
  8
aree GPS
100
AcDbPolyline
 90
4
 70
1
 10
316944.0
 20
49883.0
 10
320572.0
 20
46298.0
 10
311435.0
 20
37051.0
 10
307807.0
 20
40635.0
  0
LINE
  5
95E
330
1F
100
AcDbEntity
  8
lati di accesso
100
AcDbLine
 10
316944.0
 20
49883.0
 30
0.0
 11
307807.0
 21
40635.0
 31
0.0
  0
LWPOLYLINE
  5
95F
330
1F
100
AcDbEntity
  8
aree GPS
100
AcDbPolyline
 90
4
 70
1
 10
320572.0
 20
46298.0
 10
323489.0
 20
43416.0
 10
314351.0
 20
34169.0
 10
311435.0
 20
37051.0
  0
LINE
  5
960
330
1F
100
AcDbEntity
  8
lati di accesso
100
AcDbLine
 10
314351.0
 20
34169.0
 30
0.0
 11
323489.0
 21
43416.0
 31
0.0
  0
LWPOLYLINE
  5
961
330
1F
100
AcDbEntity
  8
aree GPS
100
AcDbPolyline
 90
4
 70
1
 10
251163.0
 20
114944.0
 10
255103.0
 20
109855.0
 10
244814.0
 20
101908.0
 10
240875.0
 20
106997.0
  0
LINE
  5
962
330
1F
100
AcDbEntity
  8
lati di accesso
100
AcDbLine
 10
251163.0
 20
114944.0
 30
0.0
 11
240875.0
 21
106997.0
 31
0.0
  0
LWPOLYLINE
  5
963
330
1F
100
AcDbEntity
  8
aree GPS
100
AcDbPolyline
 90
4
 70
1
 10
255103.0
 20
109855.0
 10
257230.0
 20
107089.0
 10
246942.0
 20
99142.0
 10
244814.0
 20
101908.0
  0
LINE
  5
964
330
1F
100
AcDbEntity
  8
lati di accesso
100
AcDbLine
 10
246942.0
 20
99142.0
 30
0.0
 11
257230.0
 21
107089.0
 31
0.0
  0
LWPOLYLINE
  5
965
330
1F
100
AcDbEntity
  8
aree GPS
100
AcDbPolyline
 90
4
 70
1
 10
258147.0
 20
105902.0
 10
261096.0
 20
102084.0
 10
250808.0
 20
94137.0
 10
247859.0
 20
97955.0
  0
LINE
  5
966
330
1F
100
AcDbEntity
  8
lati di accesso
100
AcDbLine
 10
258147.0
 20
105902.0
 30
0.0
 11
247859.0
 21
97955.0
 31
0.0
  0
LWPOLYLINE
  5
967
330
1F
100
AcDbEntity
  8
aree GPS
100
AcDbPolyline
 90
4
 70
1
 10
261096.0
 20
102084.0
 10
264214.0
 20
98048.0
 10
253926.0
 20
90101.0
 10
250808.0
 20
94137.0
  0
LINE
  5
968
330
1F
100
AcDbEntity
  8
lati di accesso
100
AcDbLine
 10
253926.0
 20
90101.0
 30
0.0
 11
264214.0
 21
98048.0
 31
0.0
  0
LWPOLYLINE
  5
969
330
1F
100
AcDbEntity
  8
aree GPS
100
AcDbPolyline
 90
4
 70
1
 10
265213.0
 20
96754.0
 10
267938.0
 20
93211.0
 10
257664.0
 20
85262.0
 10
254925.0
 20
88807.0
  0
LINE
  5
96A
330
1F
100
AcDbEntity
  8
lati di accesso
100
AcDbLine
 10
265213.0
 20
96754.0
 30
0.0
 11
254925.0
 21
88807.0
 31
0.0
  0
LWPOLYLINE
  5
96B
330
1F
100
AcDbEntity
  8
aree GPS
100
AcDbPolyline
 90
4
 70
1
 10
267938.0
 20
93211.0
 10
271449.0
 20
88682.0
 10
261161.0
 20
80735.0
 10
257664.0
 20
85262.0
  0
LINE
  5
96C
330
1F
100
AcDbEntity
  8
lati di accesso
100
AcDbLine
 10
261161.0
 20
80735.0
 30
0.0
 11
271449.0
 21
88682.0
 31
0.0
  0
LWPOLYLINE
  5
96D
330
1F
100
AcDbEntity
  8
aree GPS
100
AcDbPolyline
 90
4
 70
1
 10
272425.0
 20
87489.0
 10
275543.0
 20
83453.0
 10
265255.0
 20
75506.0
 10
262137.0
 20
79542.0
  0
LINE
  5
96E
330
1F
100
AcDbEntity
  8
lati di accesso
100
AcDbLine
 10
272425.0
 20
87489.0
 30
0.0
 11
262137.0
 21
79542.0
 31
0.0
  0
LWPOLYLINE
  5
96F
330
1F
100
AcDbEntity
  8
aree GPS
100
AcDbPolyline
 90
4
 70
1
 10
275543.0
 20
83453.0
 10
278970.0
 20
79016.0
 10
268682.0
 20
71069.0
 10
265255.0
 20
75506.0
  0
LINE
  5
970
330
1F
100
AcDbEntity
  8
lati di accesso
100
AcDbLine
 10
268682.0
 20
71069.0
 30
0.0
 11
278970.0
 21
79016.0
 31
0.0
  0
LWPOLYLINE
  5
971
330
1F
100
AcDbEntity
  8
aree GPS
100
AcDbPolyline
 90
4
 70
1
 10
280431.0
 20
77035.0
 10
283320.0
 20
73295.0
 10
273032.0
 20
65348.0
 10
270143.0
 20
69088.0
  0
LINE
  5
972
330
1F
100
AcDbEntity
  8
lati di accesso
100
AcDbLine
 10
280431.0
 20
77035.0
 30
0.0
 11
270143.0
 21
69088.0
 31
0.0
  0
LWPOLYLINE
  5
973
330
1F
100
AcDbEntity
  8
aree GPS
100
AcDbPolyline
 90
4
 70
1
 10
283320.0
 20
73295.0
 10
286431.0
 20
69267.0
 10
276143.0
 20
61320.0
 10
273032.0
 20
65348.0
  0
LINE
  5
974
330
1F
100
AcDbEntity
  8
lati di accesso
100
AcDbLine
 10
276143.0
 20
61320.0
 30
0.0
 11
286431.0
 21
69267.0
 31
0.0
  0
LWPOLYLINE
  5
975
330
1F
100
AcDbEntity
  8
aree GPS
100
AcDbPolyline
 90
4
 70
1
 10
279688.0
 20
55743.0
 10
289623.0
 20
63418.0
 10
286930.0
 20
66904.0
 10
276994.0
 20
59229.0
  0
LINE
  5
976
330
1F
100
AcDbEntity
  8
lati di accesso
100
AcDbLine
 10
286930.0
 20
66904.0
 30
0.0
 11
276994.0
 21
59229.0
 31
0.0
  0
LWPOLYLINE
  5
977
330
1F
100
AcDbEntity
  8
aree GPS
100
AcDbPolyline
 90
4
 70
1
 10
282206.0
 20
52482.0
 10
292142.0
 20
60157.0
 10
289619.0
 20
63424.0
 10
279683.0
 20
55749.0
  0
LINE
  5
978
330
1F
100
AcDbEntity
  8
lati di accesso
100
AcDbLine
 10
282206.0
 20
52482.0
 30
0.0
 11
292142.0
 21
60157.0
 31
0.0
  0
LWPOLYLINE
  5
979
330
1F
100
AcDbEntity
  8
aree GPS
100
AcDbPolyline
 90
4
 70
1
 10
285897.0
 20
47361.0
 10
295833.0
 20
55036.0
 10
293310.0
 20
58302.0
 10
283374.0
 20
50627.0
  0
LINE
  5
97A
330
1F
100
AcDbEntity
  8
lati di accesso
100
AcDbLine
 10
293310.0
 20
58302.0
 30
0.0
 11
283374.0
 21
50627.0
 31
0.0
  0
LWPOLYLINE
  5
97B
330
1F
100
AcDbEntity
  8
aree GPS
100
AcDbPolyline
 90
4
 70
1
 10
288065.0
 20
44577.0
 10
298001.0
 20
52252.0
 10
295828.0
 20
55042.0
 10
285892.0
 20
47367.0
  0
LINE
  5
97C
330
1F
100
AcDbEntity
  8
lati di accesso
100
AcDbLine
 10
288065.0
 20
44577.0
 30
0.0
 11
298001.0
 21
52252.0
 31
0.0
  0
LWPOLYLINE
  5
97D
330
1F
100
AcDbEntity
  8
aree GPS
100
AcDbPolyline
 90
4
 70
1
 10
174308.0
 20
52984.0
 10
189005.0
 20
68776.0
 10
195332.0
 20
63582.0
 10
180317.0
 20
47297.0
  0
LINE
  5
97E
330
1F
100
AcDbEntity
  8
lati di accesso
100
AcDbLine
 10
180317.0
 20
47297.0
 30
0.0
 11
195332.0
 21
63582.0
 31
0.0
  0
LWPOLYLINE
  5
97F
330
1F
100
AcDbEntity
  8
aree GPS
100
AcDbPolyline
 90
4
 70
1
 10
286245.0
 20
133833.0
 10
277726.0
 20
127684.0
 10
290053.0
 20
112696.0
 10
297675.0
 20
118880.0
  0
LINE
  5
980
330
1F
100
AcDbEntity
  8
lati di accesso
100
AcDbLine
 10
277726.0
 20
127684.0
 30
0.0
 11
290053.0
 21
112696.0
 31
0.0
  0
LWPOLYLINE
  5
981
330
1F
100
AcDbEntity
  8
aree GPS
100
AcDbPolyline
 90
4
 70
1
 10
291607.0
 20
110704.0
 10
300909.0
 20
117714.0
 10
314031.0
 20
101669.0
 10
304592.0
 20
93976.0
  0
LINE
  5
982
330
1F
100
AcDbEntity
  8
lati di accesso
100
AcDbLine
 10
291606.0
 20
110703.0
 30
0.0
 11
304592.0
 21
93976.0
 31
0.0
  0
LWPOLYLINE
  5
983
330
1F
100
AcDbEntity
  8
aree GPS
100
AcDbPolyline
 90
4
 70
1
 10
308766.0
 20
95459.0
 10
313497.0
 20
99645.0
 10
331374.0
 20
77814.0
 10
326935.0
 20
73635.0
  0
LINE
  5
984
330
1F
100
AcDbEntity
  8
lati di accesso
100
AcDbLine
 10
308765.0
 20
95458.0
 30
0.0
 11
326935.0
 21
73635.0
 31
0.0
  0
LWPOLYLINE
  5
985
330
1F
100
AcDbEntity
  8
aree GPS
100
AcDbPolyline
 90
4
 70
1
 10
238230.0
 20
105260.0
 10
241886.0
 20
100526.0
 10
231598.0
 20
92579.0
 10
227942.0
 20
97313.0
  0
LINE
  5
986
330
1F
100
AcDbEntity
  8
lati di accesso
100
AcDbLine
 10
238230.0
 20
105260.0
 30
0.0
 11
227942.0
 21
97313.0
 31
0.0
  0
LWPOLYLINE
  5
987
330
1F
100
AcDbEntity
  8
aree GPS
100
AcDbPolyline
 90
4
 70
1
 10
241886.0
 20
100526.0
 10
244392.0
 20
97282.0
 10
234104.0
 20
89335.0
 10
231598.0
 20
92579.0
  0
LINE
  5
988
330
1F
100
AcDbEntity
  8
lati di accesso
100
AcDbLine
 10
234104.0
 20
89335.0
 30
0.0
 11
244392.0
 21
97282.0
 31
0.0
  0
LWPOLYLINE
  5
989
330
1F
100
AcDbEntity
  8
aree GPS
100
AcDbPolyline
 90
4
 70
1
 10
245410.0
 20
95981.0
 10
248004.0
 20
92806.0
 10
237937.0
 20
84581.0
 10
235343.0
 20
87756.0
  0
LINE
  5
98A
330
1F
100
AcDbEntity
  8
lati di accesso
100
AcDbLine
 10
245410.0
 20
95981.0
 30
0.0
 11
235343.0
 21
87756.0
 31
0.0
  0
LWPOLYLINE
  5
98B
330
1F
100
AcDbEntity
  8
aree GPS
100
AcDbPolyline
 90
4
 70
1
 10
248004.0
 20
92806.0
 10
251231.0
 20
88857.0
 10
241164.0
 20
80632.0
 10
237937.0
 20
84581.0
  0
LINE
  5
98C
330
1F
100
AcDbEntity
  8
lati di accesso
100
AcDbLine
 10
241164.0
 20
80632.0
 30
0.0
 11
251231.0
 21
88857.0
 31
0.0
  0
LWPOLYLINE
  5
98D
330
1F
100
AcDbEntity
  8
aree GPS
100
AcDbPolyline
 90
4
 70
1
 10
251358.0
 20
86560.0
 10
255185.0
 20
81964.0
 10
245195.0
 20
73646.0
 10
241368.0
 20
78242.0
  0
LINE
  5
98E
330
1F
100
AcDbEntity
  8
lati di accesso
100
AcDbLine
 10
251358.0
 20
86560.0
 30
0.0
 11
241368.0
 21
78242.0
 31
0.0
  0
LWPOLYLINE
  5
98F
330
1F
100
AcDbEntity
  8
aree GPS
100
AcDbPolyline
 90
4
 70
1
 10
255185.0
 20
81964.0
 10
258219.0
 20
78320.0
 10
248229.0
 20
70002.0
 10
245195.0
 20
73646.0
  0
LINE
  5
990
330
1F
100
AcDbEntity
  8
lati di accesso
100
AcDbLine
 10
248229.0
 20
70002.0
 30
0.0
 11
258219.0
 21
78320.0
 31
0.0
  0
LWPOLYLINE
  5
991
330
1F
100
AcDbEntity
  8
aree GPS
100
AcDbPolyline
 90
4
 70
1
 10
259994.0
 20
76494.0
 10
262870.0
 20
72503.0
 10
252358.0
 20
64855.0
 10
249482.0
 20
68847.0
  0
LINE
  5
992
330
1F
100
AcDbEntity
  8
lati di accesso
100
AcDbLine
 10
259994.0
 20
76494.0
 30
0.0
 11
249482.0
 21
68847.0
 31
0.0
  0
LWPOLYLINE
  5
993
330
1F
100
AcDbEntity
  8
aree GPS
100
AcDbPolyline
 90
4
 70
1
 10
262870.0
 20
72503.0
 10
266389.0
 20
67666.0
 10
255876.0
 20
60018.0
 10
252358.0
 20
64855.0
  0
LINE
  5
994
330
1F
100
AcDbEntity
  8
lati di accesso
100
AcDbLine
 10
255876.0
 20
60018.0
 30
0.0
 11
266389.0
 21
67666.0
 31
0.0
  0
LWPOLYLINE
  5
995
330
1F
100
AcDbEntity
  8
aree GPS
100
AcDbPolyline
 90
4
 70
1
 10
266658.0
 20
66961.0
 10
269546.0
 20
63681.0
 10
259788.0
 20
55091.0
 10
256900.0
 20
58371.0
  0
LINE
  5
996
330
1F
100
AcDbEntity
  8
lati di accesso
100
AcDbLine
 10
266658.0
 20
66961.0
 30
0.0
 11
256900.0
 21
58371.0
 31
0.0
  0
LWPOLYLINE
  5
997
330
1F
100
AcDbEntity
  8
aree GPS
100
AcDbPolyline
 90
4
 70
1
 10
269546.0
 20
63681.0
 10
272391.0
 20
60448.0
 10
262633.0
 20
51858.0
 10
259788.0
 20
55091.0
  0
LINE
  5
998
330
1F
100
AcDbEntity
  8
lati di accesso
100
AcDbLine
 10
262633.0
 20
51858.0
 30
0.0
 11
272391.0
 21
60448.0
 31
0.0
  0
LWPOLYLINE
  5
999
330
1F
100
AcDbEntity
  8
aree GPS
100
AcDbPolyline
 90
4
 70
1
 10
272788.0
 20
58251.0
 10
275633.0
 20
55019.0
 10
265875.0
 20
46429.0
 10
263030.0
 20
49661.0
  0
LINE
  5
99A
330
1F
100
AcDbEntity
  8
lati di accesso
100
AcDbLine
 10
272788.0
 20
58251.0
 30
0.0
 11
263030.0
 21
49661.0
 31
0.0
  0
LWPOLYLINE
  5
99B
330
1F
100
AcDbEntity
  8
aree GPS
100
AcDbPolyline
 90
4
 70
1
 10
275633.0
 20
55019.0
 10
278521.0
 20
51738.0
 10
268763.0
 20
43149.0
 10
265875.0
 20
46429.0
  0
LINE
  5
99C
330
1F
100
AcDbEntity
  8
lati di accesso
100
AcDbLine
 10
268763.0
 20
43149.0
 30
0.0
 11
278521.0
 21
51738.0
 31
0.0
  0
LWPOLYLINE
  5
99D
330
1F
100
AcDbEntity
  8
aree GPS
100
AcDbPolyline
 90
4
 70
1
 10
227942.0
 20
97313.0
 10
231598.0
 20
92579.0
 10
221310.0
 20
84632.0
 10
217654.0
 20
89366.0
  0
LINE
  5
99E
330
1F
100
AcDbEntity
  8
lati di accesso
100
AcDbLine
 10
227942.0
 20
97313.0
 30
0.0
 11
217654.0
 21
89366.0
 31
0.0
  0
LWPOLYLINE
  5
99F
330
1F
100
AcDbEntity
  8
aree GPS
100
AcDbPolyline
 90
4
 70
1
 10
231598.0
 20
92579.0
 10
233518.0
 20
90093.0
 10
223230.0
 20
82146.0
 10
221310.0
 20
84632.0
  0
LINE
  5
9A0
330
1F
100
AcDbEntity
  8
lati di accesso
100
AcDbLine
 10
223230.0
 20
82146.0
 30
0.0
 11
233518.0
 21
90093.0
 31
0.0
  0
LWPOLYLINE
  5
9A1
330
1F
100
AcDbEntity
  8
aree GPS
100
AcDbPolyline
 90
4
 70
1
 10
234845.0
 20
88366.0
 10
237439.0
 20
85191.0
 10
227372.0
 20
76965.0
 10
224778.0
 20
80140.0
  0
LINE
  5
9A2
330
1F
100
AcDbEntity
  8
lati di accesso
100
AcDbLine
 10
234845.0
 20
88366.0
 30
0.0
 11
224778.0
 21
80140.0
 31
0.0
  0
LWPOLYLINE
  5
9A3
330
1F
100
AcDbEntity
  8
aree GPS
100
AcDbPolyline
 90
4
 70
1
 10
237439.0
 20
85191.0
 10
240666.0
 20
81242.0
 10
230599.0
 20
73016.0
 10
227372.0
 20
76965.0
  0
LINE
  5
9A4
330
1F
100
AcDbEntity
  8
lati di accesso
100
AcDbLine
 10
230599.0
 20
73016.0
 30
0.0
 11
240666.0
 21
81242.0
 31
0.0
  0
LWPOLYLINE
  5
9A5
330
1F
100
AcDbEntity
  8
aree GPS
100
AcDbPolyline
 90
4
 70
1
 10
241368.0
 20
78242.0
 10
245195.0
 20
73646.0
 10
235205.0
 20
65327.0
 10
231378.0
 20
69923.0
  0
LINE
  5
9A6
330
1F
100
AcDbEntity
  8
lati di accesso
100
AcDbLine
 10
241368.0
 20
78242.0
 30
0.0
 11
231378.0
 21
69923.0
 31
0.0
  0
LWPOLYLINE
  5
9A7
330
1F
100
AcDbEntity
  8
aree GPS
100
AcDbPolyline
 90
4
 70
1
 10
245195.0
 20
73646.0
 10
248229.0
 20
70002.0
 10
238239.0
 20
61683.0
 10
235205.0
 20
65327.0
  0
LINE
  5
9A8
330
1F
100
AcDbEntity
  8
lati di accesso
100
AcDbLine
 10
238239.0
 20
61683.0
 30
0.0
 11
248229.0
 21
70002.0
 31
0.0
  0
LWPOLYLINE
  5
9A9
330
1F
100
AcDbEntity
  8
aree GPS
100
AcDbPolyline
 90
4
 70
1
 10
249482.0
 20
68847.0
 10
252358.0
 20
64855.0
 10
241846.0
 20
57207.0
 10
238977.0
 20
61204.0
  0
LINE
  5
9AA
330
1F
100
AcDbEntity
  8
lati di accesso
100
AcDbLine
 10
249482.0
 20
68847.0
 30
0.0
 11
238977.0
 21
61204.0
 31
0.0
  0
LWPOLYLINE
  5
9AB
330
1F
100
AcDbEntity
  8
aree GPS
100
AcDbPolyline
 90
4
 70
1
 10
252358.0
 20
64855.0
 10
255876.0
 20
60018.0
 10
245364.0
 20
52371.0
 10
241846.0
 20
57207.0
  0
LINE
  5
9AC
330
1F
100
AcDbEntity
  8
lati di accesso
100
AcDbLine
 10
245364.0
 20
52371.0
 30
0.0
 11
255876.0
 21
60018.0
 31
0.0
  0
LWPOLYLINE
  5
9AD
330
1F
100
AcDbEntity
  8
aree GPS
100
AcDbPolyline
 90
4
 70
1
 10
217654.0
 20
89366.0
 10
221310.0
 20
84632.0
 10
211022.0
 20
76685.0
 10
207365.0
 20
81419.0
  0
LINE
  5
9AE
330
1F
100
AcDbEntity
  8
lati di accesso
100
AcDbLine
 10
217654.0
 20
89366.0
 30
0.0
 11
207365.0
 21
81419.0
 31
0.0
  0
LWPOLYLINE
  5
9AF
330
1F
100
AcDbEntity
  8
aree GPS
100
AcDbPolyline
 90
4
 70
1
 10
221310.0
 20
84632.0
 10
223816.0
 20
81388.0
 10
213528.0
 20
73441.0
 10
211022.0
 20
76685.0
  0
LINE
  5
9B0
330
1F
100
AcDbEntity
  8
lati di accesso
100
AcDbLine
 10
213528.0
 20
73441.0
 30
0.0
 11
223816.0
 21
81388.0
 31
0.0
  0
LWPOLYLINE
  5
9B1
330
1F
100
AcDbEntity
  8
aree GPS
100
AcDbPolyline
 90
4
 70
1
 10
225721.0
 20
78986.0
 10
228316.0
 20
75811.0
 10
218249.0
 20
67585.0
 10
215655.0
 20
70760.0
  0
LINE
  5
9B2
330
1F
100
AcDbEntity
  8
lati di accesso
100
AcDbLine
 10
225721.0
 20
78986.0
 30
0.0
 11
215655.0
 21
70760.0
 31
0.0
  0
LWPOLYLINE
  5
9B3
330
1F
100
AcDbEntity
  8
aree GPS
100
AcDbPolyline
 90
4
 70
1
 10
228316.0
 20
75811.0
 10
230910.0
 20
72636.0
 10
220843.0
 20
64410.0
 10
218249.0
 20
67585.0
  0
LINE
  5
9B4
330
1F
100
AcDbEntity
  8
lati di accesso
100
AcDbLine
 10
220843.0
 20
64410.0
 30
0.0
 11
230910.0
 21
72636.0
 31
0.0
  0
LWPOLYLINE
  5
9B5
330
1F
100
AcDbEntity
  8
aree GPS
100
AcDbPolyline
 90
4
 70
1
 10
231941.0
 20
69246.0
 10
235205.0
 20
65327.0
 10
225215.0
 20
57008.0
 10
221952.0
 20
60927.0
  0
LINE
  5
9B6
330
1F
100
AcDbEntity
  8
lati di accesso
100
AcDbLine
 10
231941.0
 20
69246.0
 30
0.0
 11
221952.0
 21
60927.0
 31
0.0
  0
LWPOLYLINE
  5
9B7
330
1F
100
AcDbEntity
  8
aree GPS
100
AcDbPolyline
 90
4
 70
1
 10
235205.0
 20
65327.0
 10
237829.0
 20
62176.0
 10
227839.0
 20
53858.0
 10
225215.0
 20
57008.0
  0
LINE
  5
9B8
330
1F
100
AcDbEntity
  8
lati di accesso
100
AcDbLine
 10
227839.0
 20
53858.0
 30
0.0
 11
237829.0
 21
62176.0
 31
0.0
  0
LWPOLYLINE
  5
9B9
330
1F
100
AcDbEntity
  8
aree GPS
100
AcDbPolyline
 90
4
 70
1
 10
228981.0
 20
52706.0
 10
239801.0
 20
59372.0
 10
243030.0
 20
54080.0
 10
232182.0
 20
47461.0
  0
LINE
  5
9BA
330
1F
100
AcDbEntity
  8
lati di accesso
100
AcDbLine
 10
239801.0
 20
59372.0
 30
0.0
 11
228981.0
 21
52706.0
 31
0.0
  0
LWPOLYLINE
  5
9BB
330
1F
100
AcDbEntity
  8
aree GPS
100
AcDbPolyline
 90
4
 70
1
 10
207365.0
 20
81419.0
 10
211022.0
 20
76685.0
 10
200733.0
 20
68738.0
 10
197077.0
 20
73472.0
  0
LINE
  5
9BC
330
1F
100
AcDbEntity
  8
lati di accesso
100
AcDbLine
 10
207365.0
 20
81419.0
 30
0.0
 11
197077.0
 21
73472.0
 31
0.0
  0
LWPOLYLINE
  5
9BD
330
1F
100
AcDbEntity
  8
aree GPS
100
AcDbPolyline
 90
4
 70
1
 10
211022.0
 20
76685.0
 10
213528.0
 20
73441.0
 10
203240.0
 20
65494.0
 10
200733.0
 20
68738.0
  0
LINE
  5
9BE
330
1F
100
AcDbEntity
  8
lati di accesso
100
AcDbLine
 10
203240.0
 20
65494.0
 30
0.0
 11
213528.0
 21
73441.0
 31
0.0
  0
LWPOLYLINE
  5
9BF
330
1F
100
AcDbEntity
  8
aree GPS
100
AcDbPolyline
 90
4
 70
1
 10
216740.0
 20
69432.0
 10
219334.0
 20
66257.0
 10
209267.0
 20
58032.0
 10
206673.0
 20
61206.0
  0
LINE
  5
9C0
330
1F
100
AcDbEntity
  8
lati di accesso
100
AcDbLine
 10
216740.0
 20
69432.0
 30
0.0
 11
206673.0
 21
61206.0
 31
0.0
  0
LWPOLYLINE
  5
9C1
330
1F
100
AcDbEntity
  8
aree GPS
100
AcDbPolyline
 90
4
 70
1
 10
219334.0
 20
66257.0
 10
221928.0
 20
63082.0
 10
211861.0
 20
54857.0
 10
209267.0
 20
58032.0
  0
LINE
  5
9C2
330
1F
100
AcDbEntity
  8
lati di accesso
100
AcDbLine
 10
211861.0
 20
54857.0
 30
0.0
 11
221928.0
 21
63082.0
 31
0.0
  0
LWPOLYLINE
  5
9C3
330
1F
100
AcDbEntity
  8
aree GPS
100
AcDbPolyline
 90
4
 70
1
 10
223755.0
 20
49487.0
 10
228981.0
 20
52706.0
 10
232182.0
 20
47461.0
 10
226984.0
 20
44194.0
  0
LINE
  5
9C4
330
1F
100
AcDbEntity
  8
lati di accesso
100
AcDbLine
 10
228981.0
 20
52706.0
 30
0.0
 11
223755.0
 21
49487.0
 31
0.0
  0
LWPOLYLINE
  5
9C5
330
1F
100
AcDbEntity
  8
aree GPS
100
AcDbPolyline
 90
4
 70
1
 10
199995.0
 20
66549.0
 10
207937.0
 20
59040.0
 10
205545.0
 20
56510.0
 10
197604.0
 20
64020.0
  0
LINE
  5
9C6
330
1F
100
AcDbEntity
  8
lati di accesso
100
AcDbLine
 10
207937.0
 20
59040.0
 30
0.0
 11
199995.0
 21
66549.0
 31
0.0
  0
LWPOLYLINE
  5
9C7
330
1F
100
AcDbEntity
  8
aree GPS
100
AcDbPolyline
 90
4
 70
1
 10
214516.0
 20
56015.0
 10
223911.0
 20
47132.0
 10
220476.0
 20
43498.0
 10
211081.0
 20
52382.0
  0
LINE
  5
9C8
330
1F
100
AcDbEntity
  8
lati di accesso
100
AcDbLine
 10
223911.0
 20
47132.0
 30
0.0
 11
214516.0
 21
56015.0
 31
0.0
  0
LWPOLYLINE
  5
9C9
330
1F
100
AcDbEntity
  8
aree GPS
100
AcDbPolyline
 90
4
 70
1
 10
231411.0
 20
104299.0
 10
233994.0
 20
106407.0
 10
230389.0
 20
111314.0
 10
227808.0
 20
109209.0
  0
LINE
  5
9CA
330
1F
100
AcDbEntity
  8
lati di accesso
100
AcDbLine
 10
233994.0
 20
106407.0
 30
0.0
 11
230389.0
 21
111314.0
 31
0.0
  0
LWPOLYLINE
  5
9CB
330
1F
100
AcDbEntity
  8
aree GPS
100
AcDbPolyline
 90
4
 70
1
 10
200377.0
 20
78462.0
 10
204343.0
 20
81507.0
 10
199543.0
 20
87758.0
 10
195578.0
 20
84713.0
  0
LINE
  5
9CC
330
1F
100
AcDbEntity
  8
lati di accesso
100
AcDbLine
 10
200377.0
 20
78462.0
 30
0.0
 11
204343.0
 21
81507.0
 31
0.0
  0
LWPOLYLINE
  5
9CD
330
1F
100
AcDbEntity
  8
aree GPS
100
AcDbPolyline
 90
4
 70
1
 10
189670.0
 20
70240.0
 10
200377.0
 20
78462.0
 10
195578.0
 20
84713.0
 10
184870.0
 20
76490.0
  0
LINE
  5
9CE
330
1F
100
AcDbEntity
  8
lati di accesso
100
AcDbLine
 10
189670.0
 20
70240.0
 30
0.0
 11
200377.0
 21
78462.0
 31
0.0
  0
LWPOLYLINE
  5
9CF
330
1F
100
AcDbEntity
  8
aree GPS
100
AcDbPolyline
 90
4
 70
1
 10
178963.0
 20
62018.0
 10
189670.0
 20
70240.0
 10
184870.0
 20
76490.0
 10
174163.0
 20
68268.0
  0
LINE
  5
9D0
330
1F
100
AcDbEntity
  8
lati di accesso
100
AcDbLine
 10
178963.0
 20
62018.0
 30
0.0
 11
189670.0
 21
70240.0
 31
0.0
  0
LWPOLYLINE
  5
9D1
330
1F
100
AcDbEntity
  8
aree GPS
100
AcDbPolyline
 90
4
 70
1
 10
174204.0
 20
58363.0
 10
178963.0
 20
62018.0
 10
174163.0
 20
68268.0
 10
169404.0
 20
64614.0
  0
LINE
  5
9D2
330
1F
100
AcDbEntity
  8
lati di accesso
100
AcDbLine
 10
174204.0
 20
58363.0
 30
0.0
 11
178963.0
 21
62018.0
 31
0.0
  0
LWPOLYLINE
  5
9D3
330
1F
100
AcDbEntity
  8
aree GPS
100
AcDbPolyline
 90
4
 70
1
 10
193484.0
 20
59011.0
 10
197154.0
 20
63188.0
 10
220508.0
 20
42676.0
 10
216838.0
 20
38500.0
  0
LINE
  5
9D4
330
1F
100
AcDbEntity
  8
lati di accesso
100
AcDbLine
 10
197154.0
 20
63188.0
 30
0.0
 11
193484.0
 21
59011.0
 31
0.0
  0
LWPOLYLINE
  5
9D5
330
1F
100
AcDbEntity
  8
aree GPS
100
AcDbPolyline
 90
4
 70
1
 10
188441.0
 20
53272.0
 10
193484.0
 20
59011.0
 10
216838.0
 20
38500.0
 10
211796.0
 20
32761.0
  0
LINE
  5
9D6
330
1F
100
AcDbEntity
  8
lati di accesso
100
AcDbLine
 10
193484.0
 20
59011.0
 30
0.0
 11
188441.0
 21
53272.0
 31
0.0
  0
LWPOLYLINE
  5
9D7
330
1F
100
AcDbEntity
  8
aree GPS
100
AcDbPolyline
 90
4
 70
1
 10
183399.0
 20
47534.0
 10
188441.0
 20
53272.0
 10
211796.0
 20
32762.0
 10
206754.0
 20
27023.0
  0
LINE
  5
9D8
330
1F
100
AcDbEntity
  8
lati di accesso
100
AcDbLine
 10
188441.0
 20
53272.0
 30
0.0
 11
183399.0
 21
47534.0
 31
0.0
  0
LWPOLYLINE
  5
9D9
330
1F
100
AcDbEntity
  8
aree GPS
100
AcDbPolyline
 90
4
 70
1
 10
178357.0
 20
41795.0
 10
183399.0
 20
47534.0
 10
206754.0
 20
27023.0
 10
201712.0
 20
21285.0
  0
LINE
  5
9DA
330
1F
100
AcDbEntity
  8
lati di accesso
100
AcDbLine
 10
183399.0
 20
47534.0
 30
0.0
 11
178357.0
 21
41795.0
 31
0.0
  0
LWPOLYLINE
  5
9DB
330
1F
100
AcDbEntity
  8
aree GPS
100
AcDbPolyline
 90
4
 70
1
 10
251878.0
 20
47115.0
 10
254951.0
 20
51434.0
 10
249898.0
 20
55028.0
 10
246826.0
 20
50710.0
  0
LINE
  5
9DC
330
1F
100
AcDbEntity
  8
lati di accesso
100
AcDbLine
 10
254951.0
 20
51434.0
 30
0.0
 11
249898.0
 21
55028.0
 31
0.0
  0
LWPOLYLINE
  5
9DD
330
1F
100
AcDbEntity
  8
aree GPS
100
AcDbPolyline
 90
4
 70
1
 10
256930.0
 20
43520.0
 10
260003.0
 20
47839.0
 10
254951.0
 20
51434.0
 10
251878.0
 20
47115.0
  0
LINE
  5
9DE
330
1F
100
AcDbEntity
  8
lati di accesso
100
AcDbLine
 10
260003.0
 20
47839.0
 30
0.0
 11
254951.0
 21
51434.0
 31
0.0
  0
LWPOLYLINE
  5
9DF
330
1F
100
AcDbEntity
  8
aree GPS
100
AcDbPolyline
 90
4
 70
1
 10
261982.0
 20
39926.0
 10
265055.0
 20
44244.0
 10
260003.0
 20
47839.0
 10
256930.0
 20
43520.0
  0
LINE
  5
9E0
330
1F
100
AcDbEntity
  8
lati di accesso
100
AcDbLine
 10
265055.0
 20
44244.0
 30
0.0
 11
260003.0
 21
47839.0
 31
0.0
  0
LWPOLYLINE
  5
9E1
330
1F
100
AcDbEntity
  8
aree GPS
100
AcDbPolyline
 90
4
 70
1
 10
267034.0
 20
36331.0
 10
269527.0
 20
39834.0
 10
264475.0
 20
43429.0
 10
261982.0
 20
39926.0
  0
LINE
  5
9E2
330
1F
100
AcDbEntity
  8
lati di accesso
100
AcDbLine
 10
269527.0
 20
39834.0
 30
0.0
 11
264475.0
 21
43429.0
 31
0.0
  0
LWPOLYLINE
  5
9E3
330
1F
100
AcDbEntity
  8
aree GPS
100
AcDbPolyline
 90
4
 70
1
 10
272086.0
 20
32736.0
 10
274579.0
 20
36240.0
 10
269527.0
 20
39834.0
 10
267034.0
 20
36331.0
  0
LINE
  5
9E4
330
1F
100
AcDbEntity
  8
lati di accesso
100
AcDbLine
 10
274579.0
 20
36240.0
 30
0.0
 11
269527.0
 21
39834.0
 31
0.0
  0
LWPOLYLINE
  5
9E5
330
1F
100
AcDbEntity
  8
aree GPS
100
AcDbPolyline
 90
4
 70
1
 10
271411.0
 20
39710.0
 10
280053.0
 20
47773.0
 10
283149.0
 20
44455.0
 10
274507.0
 20
36392.0
  0
LINE
  5
9E6
330
1F
100
AcDbEntity
  8
lati di accesso
100
AcDbLine
 10
280053.0
 20
47773.0
 30
0.0
 11
271411.0
 21
39710.0
 31
0.0
  0
LWPOLYLINE
  5
9E7
330
1F
100
AcDbEntity
  8
aree GPS
100
AcDbPolyline
 90
4
 70
1
 10
289183.0
 20
37539.0
 10
291377.0
 20
41238.0
 10
285271.0
 20
44859.0
 10
283078.0
 20
41161.0
  0
LINE
  5
9E8
330
1F
100
AcDbEntity
  8
lati di accesso
100
AcDbLine
 10
291377.0
 20
41238.0
 30
0.0
 11
285271.0
 21
44859.0
 31
0.0
  0
LWPOLYLINE
  5
9E9
330
1F
100
AcDbEntity
  8
aree GPS
100
AcDbPolyline
 90
4
 70
1
 10
295288.0
 20
33918.0
 10
298441.0
 20
39233.0
 10
292336.0
 20
42855.0
 10
289183.0
 20
37539.0
  0
LINE
  5
9EA
330
1F
100
AcDbEntity
  8
lati di accesso
100
AcDbLine
 10
298441.0
 20
39233.0
 30
0.0
 11
292336.0
 21
42855.0
 31
0.0
  0
LWPOLYLINE
  5
9EB
330
1F
100
AcDbEntity
  8
aree GPS
100
AcDbPolyline
 90
4
 70
1
 10
301393.0
 20
30296.0
 10
304097.0
 20
34854.0
 10
297992.0
 20
38476.0
 10
295288.0
 20
33918.0
  0
LINE
  5
9EC
330
1F
100
AcDbEntity
  8
lati di accesso
100
AcDbLine
 10
304097.0
 20
34854.0
 30
0.0
 11
297992.0
 21
38476.0
 31
0.0
  0
LWPOLYLINE
  5
9ED
330
1F
100
AcDbEntity
  8
aree GPS
100
AcDbPolyline
 90
4
 70
1
 10
307498.0
 20
26674.0
 10
309692.0
 20
30372.0
 10
303587.0
 20
33994.0
 10
301393.0
 20
30296.0
  0
LINE
  5
9EE
330
1F
100
AcDbEntity
  8
lati di accesso
100
AcDbLine
 10
309692.0
 20
30372.0
 30
0.0
 11
303587.0
 21
33994.0
 31
0.0
  0
LWPOLYLINE
  5
9EF
330
1F
100
AcDbEntity
  8
aree GPS
100
AcDbPolyline
 90
4
 70
1
 10
281718.0
 20
135325.0
 10
292447.0
 20
143612.0
 10
283818.0
 20
154412.0
 10
273410.0
 20
146080.0
  0
LINE
  5
9F0
330
1F
100
AcDbEntity
  8
lati di accesso
100
AcDbLine
 10
281718.0
 20
135325.0
 30
0.0
 11
292447.0
 21
143612.0
 31
0.0
  0
LWPOLYLINE
  5
9F1
330
1F
100
AcDbEntity
  8
aree GPS
100
AcDbPolyline
 90
4
 70
1
 10
283818.0
 20
154412.0
 10
292447.0
 20
143612.0
 10
302999.0
 20
151763.0
 10
294226.0
 20
162744.0
  0
LINE
  5
9F2
330
1F
100
AcDbEntity
  8
lati di accesso
100
AcDbLine
 10
292447.0
 20
143612.0
 30
0.0
 11
302999.0
 21
151763.0
 31
0.0
  0
LWPOLYLINE
  5
9F3
330
1F
100
AcDbEntity
  8
aree GPS
100
AcDbPolyline
 90
4
 70
1
 10
294226.0
 20
162744.0
 10
302999.0
 20
151763.0
 10
313552.0
 20
159915.0
 10
304635.0
 20
171076.0
  0
LINE
  5
9F4
330
1F
100
AcDbEntity
  8
lati di accesso
100
AcDbLine
 10
302999.0
 20
151763.0
 30
0.0
 11
313552.0
 21
159915.0
 31
0.0
  0
LWPOLYLINE
  5
9F5
330
1F
100
AcDbEntity
  8
aree GPS
100
AcDbPolyline
 90
4
 70
1
 10
304635.0
 20
171076.0
 10
313552.0
 20
159915.0
 10
323916.0
 20
167920.0
 10
315043.0
 20
179407.0
  0
LINE
  5
9F6
330
1F
100
AcDbEntity
  8
lati di accesso
100
AcDbLine
 10
313552.0
 20
159915.0
 30
0.0
 11
323916.0
 21
167920.0
 31
0.0
  0
LWPOLYLINE
  5
9F7
330
1F
100
AcDbEntity
  8
aree GPS
100
AcDbPolyline
 90
4
 70
1
 10
310877.0
 20
143380.0
 10
304790.0
 20
151251.0
 10
284733.0
 20
135758.0
 10
290819.0
 20
127887.0
  0
LINE
  5
9F8
330
1F
100
AcDbEntity
  8
lati di accesso
100
AcDbLine
 10
304794.0
 20
151246.0
 30
0.0
 11
284733.0
 21
135758.0
 31
0.0
  0
LWPOLYLINE
  5
9F9
330
1F
100
AcDbEntity
  8
aree GPS
100
AcDbPolyline
 90
4
 70
1
 10
330908.0
 20
158869.0
 10
324825.0
 20
166736.0
 10
304794.0
 20
151246.0
 10
310877.0
 20
143380.0
  0
LINE
  5
9FA
330
1F
100
AcDbEntity
  8
lati di accesso
100
AcDbLine
 10
324825.0
 20
166736.0
 30
0.0
 11
304794.0
 21
151246.0
 31
0.0
  0
LWPOLYLINE
  5
9FB
330
1F
100
AcDbEntity
  8
aree GPS
100
AcDbPolyline
 90
4
 70
1
 10
300897.0
 20
135671.0
 10
307132.0
 20
127599.0
 10
296999.0
 20
119772.0
 10
290764.0
 20
127844.0
  0
LINE
  5
9FC
330
1F
100
AcDbEntity
  8
lati di accesso
100
AcDbLine
 10
296999.0
 20
119772.0
 30
0.0
 11
307132.0
 21
127599.0
 31
0.0
  0
LWPOLYLINE
  5
9FD
330
1F
100
AcDbEntity
  8
aree GPS
100
AcDbPolyline
 90
4
 70
1
 10
311030.0
 20
143498.0
 10
317265.0
 20
135426.0
 10
307132.0
 20
127599.0
 10
300897.0
 20
135671.0
  0
LINE
  5
9FE
330
1F
100
AcDbEntity
  8
lati di accesso
100
AcDbLine
 10
307132.0
 20
127599.0
 30
0.0
 11
317265.0
 21
135426.0
 31
0.0
  0
LWPOLYLINE
  5
9FF
330
1F
100
AcDbEntity
  8
aree GPS
100
AcDbPolyline
 90
4
 70
1
 10
318203.0
 20
117019.0
 10
310361.0
 20
127170.0
 10
299866.0
 20
119064.0
 10
307708.0
 20
108912.0
  0
LINE
  5
A00
330
1F
100
AcDbEntity
  8
lati di accesso
100
AcDbLine
 10
310361.0
 20
127170.0
 30
0.0
 11
299866.0
 21
119064.0
 31
0.0
  0
LWPOLYLINE
  5
A01
330
1F
100
AcDbEntity
  8
aree GPS
100
AcDbPolyline
 90
4
 70
1
 10
328697.0
 20
125125.0
 10
320855.0
 20
135277.0
 10
310361.0
 20
127170.0
 10
318202.0
 20
117019.0
  0
LINE
  5
A02
330
1F
100
AcDbEntity
  8
lati di accesso
100
AcDbLine
 10
320855.0
 20
135277.0
 30
0.0
 11
310361.0
 21
127170.0
 31
0.0
  0
LWPOLYLINE
  5
A03
330
1F
100
AcDbEntity
  8
aree GPS
100
AcDbPolyline
 90
4
 70
1
 10
325543.0
 20
110601.0
 10
319699.0
 20
118174.0
 10
308141.0
 20
109247.0
 10
313985.0
 20
101673.0
  0
LINE
  5
A04
330
1F
100
AcDbEntity
  8
lati di accesso
100
AcDbLine
 10
313985.0
 20
101673.0
 30
0.0
 11
325543.0
 21
110601.0
 31
0.0
  0
LWPOLYLINE
  5
A05
330
1F
100
AcDbEntity
  8
aree GPS
100
AcDbPolyline
 90
4
 70
1
 10
338905.0
 20
120787.0
 10
333057.0
 20
128365.0
 10
319699.0
 20
118174.0
 10
325547.0
 20
110596.0
  0
LINE
  5
A06
330
1F
100
AcDbEntity
  8
lati di accesso
100
AcDbLine
 10
325547.0
 20
110596.0
 30
0.0
 11
338905.0
 21
120787.0
 31
0.0
  0
LWPOLYLINE
  5
A07
330
1F
100
AcDbEntity
  8
aree GPS
100
AcDbPolyline
 90
4
 70
1
 10
337811.0
 20
92262.0
 10
328676.0
 20
96798.0
 10
322881.0
 20
85129.0
 10
332017.0
 20
80592.0
  0
LINE
  5
A08
330
1F
100
AcDbEntity
  8
lati di accesso
100
AcDbLine
 10
328676.0
 20
96798.0
 30
0.0
 11
322881.0
 21
85129.0
 31
0.0
  0
LWPOLYLINE
  5
A09
330
1F
100
AcDbEntity
  8
aree GPS
100
AcDbPolyline
 90
4
 70
1
 10
343606.0
 20
103931.0
 10
334470.0
 20
108467.0
 10
328676.0
 20
96798.0
 10
337811.0
 20
92262.0
  0
LINE
  5
A0A
330
1F
100
AcDbEntity
  8
lati di accesso
100
AcDbLine
 10
334470.0
 20
108467.0
 30
0.0
 11
328676.0
 21
96798.0
 31
0.0
  0
LWPOLYLINE
  5
A0B
330
1F
100
AcDbEntity
  8
aree GPS
100
AcDbPolyline
 90
4
 70
1
 10
349400.0
 20
115600.0
 10
343420.0
 20
118570.0
 10
337626.0
 20
106900.0
 10
343606.0
 20
103931.0
  0
LINE
  5
A0C
330
1F
100
AcDbEntity
  8
lati di accesso
100
AcDbLine
 10
343420.0
 20
118570.0
 30
0.0
 11
337626.0
 21
106900.0
 31
0.0
  0
LWPOLYLINE
  5
A0D
330
1F
100
AcDbEntity
  8
aree GPS
100
AcDbPolyline
 90
4
 70
1
 10
318700.0
 20
83903.0
 10
323514.0
 20
78283.0
 10
319794.0
 20
75094.0
 10
314980.0
 20
80714.0
  0
LINE
  5
A0E
330
1F
100
AcDbEntity
  8
lati di accesso
100
AcDbLine
 10
323514.0
 20
78283.0
 30
0.0
 11
318700.0
 21
83903.0
 31
0.0
  0
LWPOLYLINE
  5
A0F
330
1F
100
AcDbEntity
  8
aree GPS
100
AcDbPolyline
 90
4
 70
1
 10
323514.0
 20
78283.0
 10
328328.0
 20
72663.0
 10
324608.0
 20
69474.0
 10
319794.0
 20
75094.0
  0
LINE
  5
A10
330
1F
100
AcDbEntity
  8
lati di accesso
100
AcDbLine
 10
328328.0
 20
72663.0
 30
0.0
 11
323514.0
 21
78283.0
 31
0.0
  0
LWPOLYLINE
  5
A11
330
1F
100
AcDbEntity
  8
aree GPS
100
AcDbPolyline
 90
4
 70
1
 10
328328.0
 20
72663.0
 10
333142.0
 20
67043.0
 10
329422.0
 20
63854.0
 10
324608.0
 20
69474.0
  0
LINE
  5
A12
330
1F
100
AcDbEntity
  8
lati di accesso
100
AcDbLine
 10
333142.0
 20
67043.0
 30
0.0
 11
328328.0
 21
72663.0
 31
0.0
  0
LWPOLYLINE
  5
A13
330
1F
100
AcDbEntity
  8
aree GPS
100
AcDbPolyline
 90
4
 70
1
 10
333142.0
 20
67043.0
 10
337956.0
 20
61423.0
 10
334236.0
 20
58234.0
 10
329422.0
 20
63854.0
  0
LINE
  5
A14
330
1F
100
AcDbEntity
  8
lati di accesso
100
AcDbLine
 10
337956.0
 20
61423.0
 30
0.0
 11
333142.0
 21
67043.0
 31
0.0
  0
LWPOLYLINE
  5
A15
330
1F
100
AcDbEntity
  8
aree GPS
100
AcDbPolyline
 90
4
 70
1
 10
337956.0
 20
61423.0
 10
342771.0
 20
55803.0
 10
339050.0
 20
52614.0
 10
334236.0
 20
58234.0
  0
LINE
  5
A16
330
1F
100
AcDbEntity
  8
lati di accesso
100
AcDbLine
 10
342771.0
 20
55803.0
 30
0.0
 11
337956.0
 21
61423.0
 31
0.0
  0
LWPOLYLINE
  5
A17
330
1F
100
AcDbEntity
  8
aree GPS
100
AcDbPolyline
 90
4
 70
1
 10
343530.0
 20
56454.0
 10
348344.0
 20
50834.0
 10
343865.0
 20
46994.0
 10
339050.0
 20
52614.0
  0
LINE
  5
A18
330
1F
100
AcDbEntity
  8
lati di accesso
100
AcDbLine
 10
348344.0
 20
50834.0
 30
0.0
 11
343530.0
 21
56454.0
 31
0.0
  0
LWPOLYLINE
  5
A19
330
1F
100
AcDbEntity
  8
aree GPS
100
AcDbPolyline
 90
4
 70
1
 10
348344.0
 20
50834.0
 10
353158.0
 20
45214.0
 10
348679.0
 20
41374.0
 10
343865.0
 20
46994.0
  0
LINE
  5
A1A
330
1F
100
AcDbEntity
  8
lati di accesso
100
AcDbLine
 10
353158.0
 20
45214.0
 30
0.0
 11
348344.0
 21
50834.0
 31
0.0
  0
LWPOLYLINE
  5
A1B
330
1F
100
AcDbEntity
  8
aree GPS
100
AcDbPolyline
 90
4
 70
1
 10
353158.0
 20
45214.0
 10
357972.0
 20
39594.0
 10
353493.0
 20
35754.0
 10
348679.0
 20
41374.0
  0
LINE
  5
A1C
330
1F
100
AcDbEntity
  8
lati di accesso
100
AcDbLine
 10
357972.0
 20
39594.0
 30
0.0
 11
353158.0
 21
45214.0
 31
0.0
  0
LWPOLYLINE
  5
A1D
330
1F
100
AcDbEntity
  8
aree GPS
100
AcDbPolyline
 90
4
 70
1
 10
357972.0
 20
39594.0
 10
362786.0
 20
33974.0
 10
358307.0
 20
30134.0
 10
353493.0
 20
35754.0
  0
LINE
  5
A1E
330
1F
100
AcDbEntity
  8
lati di accesso
100
AcDbLine
 10
362786.0
 20
33974.0
 30
0.0
 11
357972.0
 21
39594.0
 31
0.0
  0
LWPOLYLINE
  5
A1F
330
1F
100
AcDbEntity
  8
aree GPS
100
AcDbPolyline
 90
4
 70
1
 10
332017.0
 20
80592.0
 10
336763.0
 20
75621.0
 10
333219.0
 20
72237.0
 10
328472.0
 20
77209.0
  0
LINE
  5
A20
330
1F
100
AcDbEntity
  8
lati di accesso
100
AcDbLine
 10
328472.0
 20
77209.0
 30
0.0
 11
333219.0
 21
72237.0
 31
0.0
  0
LWPOLYLINE
  5
A21
330
1F
100
AcDbEntity
  8
aree GPS
100
AcDbPolyline
 90
4
 70
1
 10
336763.0
 20
75621.0
 10
341279.0
 20
70889.0
 10
337735.0
 20
67506.0
 10
333219.0
 20
72237.0
  0
LINE
  5
A22
330
1F
100
AcDbEntity
  8
lati di accesso
100
AcDbLine
 10
333219.0
 20
72237.0
 30
0.0
 11
337735.0
 21
67506.0
 31
0.0
  0
LWPOLYLINE
  5
A23
330
1F
100
AcDbEntity
  8
aree GPS
100
AcDbPolyline
 90
4
 70
1
 10
341279.0
 20
70889.0
 10
345611.0
 20
66352.0
 10
342067.0
 20
62968.0
 10
337735.0
 20
67506.0
  0
LINE
  5
A24
330
1F
100
AcDbEntity
  8
lati di accesso
100
AcDbLine
 10
337735.0
 20
67506.0
 30
0.0
 11
342067.0
 21
62968.0
 31
0.0
  0
LWPOLYLINE
  5
A25
330
1F
100
AcDbEntity
  8
aree GPS
100
AcDbPolyline
 90
4
 70
1
 10
345611.0
 20
66352.0
 10
350077.0
 20
61673.0
 10
346532.0
 20
58290.0
 10
342067.0
 20
62968.0
  0
LINE
  5
A26
330
1F
100
AcDbEntity
  8
lati di accesso
100
AcDbLine
 10
342067.0
 20
62968.0
 30
0.0
 11
346532.0
 21
58290.0
 31
0.0
  0
LWPOLYLINE
  5
A27
330
1F
100
AcDbEntity
  8
aree GPS
100
AcDbPolyline
 90
4
 70
1
 10
350077.0
 20
61673.0
 10
354517.0
 20
57022.0
 10
350249.0
 20
52948.0
 10
345809.0
 20
57599.0
  0
LINE
  5
A28
330
1F
100
AcDbEntity
  8
lati di accesso
100
AcDbLine
 10
345809.0
 20
57599.0
 30
0.0
 11
350249.0
 21
52948.0
 31
0.0
  0
LWPOLYLINE
  5
A29
330
1F
100
AcDbEntity
  8
aree GPS
100
AcDbPolyline
 90
4
 70
1
 10
354517.0
 20
57022.0
 10
358786.0
 20
52549.0
 10
354519.0
 20
48475.0
 10
350249.0
 20
52948.0
  0
LINE
  5
A2A
330
1F
100
AcDbEntity
  8
lati di accesso
100
AcDbLine
 10
350249.0
 20
52948.0
 30
0.0
 11
354519.0
 21
48475.0
 31
0.0
  0
LWPOLYLINE
  5
A2B
330
1F
100
AcDbEntity
  8
aree GPS
100
AcDbPolyline
 90
4
 70
1
 10
358786.0
 20
52549.0
 10
365843.0
 20
45157.0
 10
361576.0
 20
41083.0
 10
354519.0
 20
48475.0
  0
LINE
  5
A2C
330
1F
100
AcDbEntity
  8
lati di accesso
100
AcDbLine
 10
354519.0
 20
48475.0
 30
0.0
 11
361576.0
 21
41083.0
 31
0.0
  0
LWPOLYLINE
  5
A2D
330
1F
100
AcDbEntity
  8
aree GPS
100
AcDbPolyline
 90
4
 70
1
 10
365843.0
 20
45157.0
 10
370338.0
 20
40448.0
 10
366070.0
 20
36375.0
 10
361576.0
 20
41083.0
  0
LINE
  5
A2E
330
1F
100
AcDbEntity
  8
lati di accesso
100
AcDbLine
 10
361576.0
 20
41083.0
 30
0.0
 11
366070.0
 21
36375.0
 31
0.0
  0
LWPOLYLINE
  5
A2F
330
1F
100
AcDbEntity
  8
aree GPS
100
AcDbPolyline
 90
4
 70
1
 10
370338.0
 20
40448.0
 10
374731.0
 20
35846.0
 10
370464.0
 20
31772.0
 10
366070.0
 20
36375.0
  0
LINE
  5
A30
330
1F
100
AcDbEntity
  8
lati di accesso
100
AcDbLine
 10
366070.0
 20
36375.0
 30
0.0
 11
370464.0
 21
31772.0
 31
0.0
  0
LWPOLYLINE
  5
A31
330
1F
100
AcDbEntity
  8
aree GPS
100
AcDbPolyline
 90
4
 70
1
 10
374731.0
 20
35846.0
 10
379477.0
 20
30874.0
 10
376570.0
 20
28099.0
 10
371824.0
 20
33071.0
  0
LINE
  5
A32
330
1F
100
AcDbEntity
  8
lati di accesso
100
AcDbLine
 10
371824.0
 20
33071.0
 30
0.0
 11
376570.0
 21
28099.0
 31
0.0
  0
LWPOLYLINE
  5
A33
330
1F
100
AcDbEntity
  8
aree GPS
100
AcDbPolyline
 90
4
 70
1
 10
379477.0
 20
30874.0
 10
384223.0
 20
25902.0
 10
381316.0
 20
23127.0
 10
376570.0
 20
28099.0
  0
LINE
  5
A34
330
1F
100
AcDbEntity
  8
lati di accesso
100
AcDbLine
 10
376570.0
 20
28099.0
 30
0.0
 11
381316.0
 21
23127.0
 31
0.0
  0
LWPOLYLINE
  5
A35
330
1F
100
AcDbEntity
  8
aree GPS
100
AcDbPolyline
 90
4
 70
1
 10
384223.0
 20
25902.0
 10
388969.0
 20
20931.0
 10
386062.0
 20
18155.0
 10
381316.0
 20
23127.0
  0
LINE
  5
A36
330
1F
100
AcDbEntity
  8
lati di accesso
100
AcDbLine
 10
381316.0
 20
23127.0
 30
0.0
 11
386062.0
 21
18155.0
 31
0.0
  0
LWPOLYLINE
  5
A37
330
1F
100
AcDbEntity
  8
aree GPS
100
AcDbPolyline
 90
4
 70
1
 10
330578.0
 20
18510.0
 10
332275.0
 20
30389.0
 10
335533.0
 20
29924.0
 10
333835.0
 20
18044.0
  0
LINE
  5
A38
330
1F
100
AcDbEntity
  8
lati di accesso
100
AcDbLine
 10
332275.0
 20
30389.0
 30
0.0
 11
330578.0
 21
18510.0
 31
0.0
  0
LWPOLYLINE
  5
A39
330
1F
100
AcDbEntity
  8
aree GPS
100
AcDbPolyline
 90
4
 70
1
 10
335566.0
 20
30150.0
 10
341795.0
 20
29254.0
 10
341116.0
 20
24508.0
 10
334887.0
 20
25405.0
  0
LINE
  5
A3A
330
1F
100
AcDbEntity
  8
lati di accesso
100
AcDbLine
 10
341795.0
 20
29254.0
 30
0.0
 11
335566.0
 21
30150.0
 31
0.0
  0
LWPOLYLINE
  5
A3B
330
1F
100
AcDbEntity
  8
aree GPS
100
AcDbPolyline
 90
4
 70
1
 10
341679.0
 20
28445.0
 10
348078.0
 20
27531.0
 10
347469.0
 20
23268.0
 10
341070.0
 20
24182.0
  0
LINE
  5
A3C
330
1F
100
AcDbEntity
  8
lati di accesso
100
AcDbLine
 10
348078.0
 20
27531.0
 30
0.0
 11
341679.0
 21
28445.0
 31
0.0
  0
LWPOLYLINE
  5
A3D
330
1F
100
AcDbEntity
  8
aree GPS
100
AcDbPolyline
 90
4
 70
1
 10
348301.0
 20
27229.0
 10
354276.0
 20
26635.0
 10
353793.0
 20
21782.0
 10
347818.0
 20
22377.0
  0
LINE
  5
A3E
330
1F
100
AcDbEntity
  8
lati di accesso
100
AcDbLine
 10
354276.0
 20
26635.0
 30
0.0
 11
348301.0
 21
27229.0
 31
0.0
  0
LWPOLYLINE
  5
A3F
330
1F
100
AcDbEntity
  8
aree GPS
100
AcDbPolyline
 90
4
 70
1
 10
354332.0
 20
26831.0
 10
360311.0
 20
26559.0
 10
360183.0
 20
23810.0
 10
354205.0
 20
24082.0
  0
LINE
  5
A40
330
1F
100
AcDbEntity
  8
lati di accesso
100
AcDbLine
 10
360311.0
 20
26559.0
 30
0.0
 11
354332.0
 21
26831.0
 31
0.0
  0
LWPOLYLINE
  5
A41
330
1F
100
AcDbEntity
  8
aree GPS
100
AcDbPolyline
 90
4
 70
1
 10
360308.0
 20
27198.0
 10
366666.0
 20
27272.0
 10
366674.0
 20
24505.0
 10
360315.0
 20
24431.0
  0
LINE
  5
A42
330
1F
100
AcDbEntity
  8
lati di accesso
100
AcDbLine
 10
366666.0
 20
27272.0
 30
0.0
 11
360308.0
 21
27198.0
 31
0.0
  0
LWPOLYLINE
  5
A43
330
1F
100
AcDbEntity
  8
aree GPS
100
AcDbPolyline
 90
4
 70
1
 10
366841.0
 20
27271.0
 10
373198.0
 20
27108.0
 10
373127.0
 20
24341.0
 10
366770.0
 20
24504.0
  0
LINE
  5
A44
330
1F
100
AcDbEntity
  8
lati di accesso
100
AcDbLine
 10
373198.0
 20
27108.0
 30
0.0
 11
366841.0
 21
27271.0
 31
0.0
  0
LWPOLYLINE
  5
A45
330
1F
100
AcDbEntity
  8
aree GPS
100
AcDbPolyline
 90
4
 70
1
 10
334887.0
 20
25405.0
 10
341116.0
 20
24508.0
 10
340462.0
 20
19759.0
 10
334233.0
 20
20655.0
  0
LINE
  5
A46
330
1F
100
AcDbEntity
  8
lati di accesso
100
AcDbLine
 10
334233.0
 20
20655.0
 30
0.0
 11
340462.0
 21
19759.0
 31
0.0
  0
LWPOLYLINE
  5
A47
330
1F
100
AcDbEntity
  8
aree GPS
100
AcDbPolyline
 90
4
 70
1
 10
341070.0
 20
24182.0
 10
347469.0
 20
23268.0
 10
346860.0
 20
19005.0
 10
340460.0
 20
19919.0
  0
LINE
  5
A48
330
1F
100
AcDbEntity
  8
lati di accesso
100
AcDbLine
 10
340460.0
 20
19919.0
 30
0.0
 11
346860.0
 21
19005.0
 31
0.0
  0
LWPOLYLINE
  5
A49
330
1F
100
AcDbEntity
  8
aree GPS
100
AcDbPolyline
 90
4
 70
1
 10
347818.0
 20
22377.0
 10
353793.0
 20
21782.0
 10
353440.0
 20
18233.0
 10
347465.0
 20
18828.0
  0
LINE
  5
A4A
330
1F
100
AcDbEntity
  8
lati di accesso
100
AcDbLine
 10
347465.0
 20
18828.0
 30
0.0
 11
353440.0
 21
18233.0
 31
0.0
  0
LWPOLYLINE
  5
A4B
330
1F
100
AcDbEntity
  8
aree GPS
100
AcDbPolyline
 90
4
 70
1
 10
354205.0
 20
24082.0
 10
360183.0
 20
23810.0
 10
360058.0
 20
21061.0
 10
354080.0
 20
21333.0
  0
LINE
  5
A4C
330
1F
100
AcDbEntity
  8
lati di accesso
100
AcDbLine
 10
354080.0
 20
21333.0
 30
0.0
 11
360058.0
 21
21061.0
 31
0.0
  0
LWPOLYLINE
  5
A4D
330
1F
100
AcDbEntity
  8
aree GPS
100
AcDbPolyline
 90
4
 70
1
 10
360315.0
 20
24431.0
 10
366674.0
 20
24505.0
 10
366706.0
 20
21738.0
 10
360347.0
 20
21664.0
  0
LINE
  5
A4E
330
1F
100
AcDbEntity
  8
lati di accesso
100
AcDbLine
 10
360347.0
 20
21664.0
 30
0.0
 11
366706.0
 21
21738.0
 31
0.0
  0
LWPOLYLINE
  5
A4F
330
1F
100
AcDbEntity
  8
aree GPS
100
AcDbPolyline
 90
4
 70
1
 10
366770.0
 20
24504.0
 10
373127.0
 20
24341.0
 10
373082.0
 20
22575.0
 10
366725.0
 20
22738.0
  0
LINE
  5
A50
330
1F
100
AcDbEntity
  8
lati di accesso
100
AcDbLine
 10
366725.0
 20
22738.0
 30
0.0
 11
373082.0
 21
22575.0
 31
0.0
  0
LWPOLYLINE
  5
A51
330
1F
100
AcDbEntity
  8
aree GPS
100
AcDbPolyline
 90
4
 70
1
 10
315950.0
 20
32243.0
 10
316383.0
 20
28516.0
 10
309909.0
 20
27935.0
 10
309476.0
 20
31663.0
  0
LINE
  5
A52
330
1F
100
AcDbEntity
  8
lati di accesso
100
AcDbLine
 10
315950.0
 20
32243.0
 30
0.0
 11
309476.0
 21
31663.0
 31
0.0
  0
LWPOLYLINE
  5
A53
330
1F
100
AcDbEntity
  8
aree GPS
100
AcDbPolyline
 90
4
 70
1
 10
322449.0
 20
33648.0
 10
322857.0
 20
29096.0
 10
316383.0
 20
28516.0
 10
315975.0
 20
33068.0
  0
LINE
  5
A54
330
1F
100
AcDbEntity
  8
lati di accesso
100
AcDbLine
 10
322449.0
 20
33648.0
 30
0.0
 11
315975.0
 21
33068.0
 31
0.0
  0
LWPOLYLINE
  5
A55
330
1F
100
AcDbEntity
  8
aree GPS
100
AcDbPolyline
 90
4
 70
1
 10
316383.0
 20
28516.0
 10
316484.0
 20
25562.0
 10
310166.0
 20
24995.0
 10
309909.0
 20
27935.0
  0
LINE
  5
A56
330
1F
100
AcDbEntity
  8
lati di accesso
100
AcDbLine
 10
310166.0
 20
24995.0
 30
0.0
 11
316484.0
 21
25562.0
 31
0.0
  0
LWPOLYLINE
  5
A57
330
1F
100
AcDbEntity
  8
aree GPS
100
AcDbPolyline
 90
4
 70
1
 10
322857.0
 20
29096.0
 10
322983.0
 20
26524.0
 10
316509.0
 20
25944.0
 10
316383.0
 20
28516.0
  0
LINE
  5
A58
330
1F
100
AcDbEntity
  8
lati di accesso
100
AcDbLine
 10
316509.0
 20
25944.0
 30
0.0
 11
322983.0
 21
26524.0
 31
0.0
  0
LWPOLYLINE
  5
A59
330
1F
100
AcDbEntity
  8
aree GPS
100
AcDbPolyline
 90
4
 70
1
 10
322509.0
 20
20036.0
 10
322209.0
 20
14944.0
 10
309231.0
 20
15709.0
 10
309531.0
 20
20800.0
  0
LINE
  5
A5A
330
1F
100
AcDbEntity
  8
lati di accesso
100
AcDbLine
 10
322509.0
 20
20036.0
 30
0.0
 11
309531.0
 21
20800.0
 31
0.0
  0
LWPOLYLINE
  5
A5B
330
1F
100
AcDbEntity
  8
aree GPS
100
AcDbPolyline
 90
4
 70
1
 10
322209.0
 20
14944.0
 10
321909.0
 20
9853.0
 10
308931.0
 20
10617.0
 10
309231.0
 20
15709.0
  0
LINE
  5
A5C
330
1F
100
AcDbEntity
  8
lati di accesso
100
AcDbLine
 10
308931.0
 20
10617.0
 30
0.0
 11
321909.0
 21
9853.0
 31
0.0
  0
LWPOLYLINE
  5
A5D
330
1F
100
AcDbEntity
  8
aree GPS
100
AcDbPolyline
 90
4
 70
1
 10
321793.0
 20
7889.0
 10
326321.0
 20
7622.0
 10
327152.0
 20
21734.0
 10
322624.0
 20
22000.0
  0
LINE
  5
A5E
330
1F
100
AcDbEntity
  8
lati di accesso
100
AcDbLine
 10
326321.0
 20
7622.0
 30
0.0
 11
327152.0
 21
21734.0
 31
0.0
  0
LWPOLYLINE
  5
A5F
330
1F
100
AcDbEntity
  8
aree GPS
100
AcDbPolyline
 90
4
 70
1
 10
309907.0
 20
2740.0
 10
310209.0
 20
5661.0
 10
323172.0
 20
4676.0
 10
322869.0
 20
1756.0
  0
LINE
  5
A60
330
1F
100
AcDbEntity
  8
lati di accesso
100
AcDbLine
 10
323172.0
 20
4676.0
 30
0.0
 11
310209.0
 21
5661.0
 31
0.0
  0
LWPOLYLINE
  5
A61
330
1F
100
AcDbEntity
  8
aree GPS
100
AcDbPolyline
 90
4
 70
1
 10
323511.0
 20
1495.0
 10
323207.0
 20
7020.0
 10
335151.0
 20
7178.0
 10
335455.0
 20
1653.0
  0
LINE
  5
A62
330
1F
100
AcDbEntity
  8
lati di accesso
100
AcDbLine
 10
335151.0
 20
7178.0
 30
0.0
 11
323207.0
 21
7020.0
 31
0.0
  0
LWPOLYLINE
  5
A63
330
1F
100
AcDbEntity
  8
aree GPS
100
AcDbPolyline
 90
4
 70
1
 10
336394.0
 20
666.0
 10
334939.0
 20
8327.0
 10
348034.0
 20
10860.0
 10
349489.0
 20
3200.0
  0
LINE
  5
A64
330
1F
100
AcDbEntity
  8
lati di accesso
100
AcDbLine
 10
348034.0
 20
10860.0
 30
0.0
 11
334939.0
 21
8327.0
 31
0.0
  0
LWPOLYLINE
  5
A65
330
1F
100
AcDbEntity
  8
aree GPS
100
AcDbPolyline
 90
4
 70
1
 10
351000.0
 20
2787.0
 10
348227.0
 20
10075.0
 10
359222.0
 20
14264.0
 10
361995.0
 20
6976.0
  0
LINE
  5
A66
330
1F
100
AcDbEntity
  8
lati di accesso
100
AcDbLine
 10
359222.0
 20
14264.0
 30
0.0
 11
348227.0
 21
10075.0
 31
0.0
  0
LWPOLYLINE
  5
A67
330
1F
100
AcDbEntity
  8
aree GPS
100
AcDbPolyline
 90
4
 70
1
 10
363026.0
 20
7434.0
 10
358984.0
 20
15113.0
 10
370487.0
 20
21169.0
 10
374530.0
 20
13489.0
  0
LINE
  5
A68
330
1F
100
AcDbEntity
  8
lati di accesso
100
AcDbLine
 10
370487.0
 20
21169.0
 30
0.0
 11
358984.0
 21
15113.0
 31
0.0
  0
LWPOLYLINE
  5
A69
330
1F
100
AcDbEntity
  8
aree GPS
100
AcDbPolyline
 90
4
 70
1
 10
374380.0
 20
13765.0
 10
371775.0
 20
19077.0
 10
379855.0
 20
23041.0
 10
382460.0
 20
17729.0
  0
LINE
  5
A6A
330
1F
100
AcDbEntity
  8
lati di accesso
100
AcDbLine
 10
379855.0
 20
23041.0
 30
0.0
 11
371775.0
 21
19077.0
 31
0.0
  0
LWPOLYLINE
  5
A6B
330
1F
100
AcDbEntity
  8
aree GPS
100
AcDbPolyline
 90
4
 70
1
 10
236737.0
 20
287089.0
 10
226059.0
 20
280366.0
 10
233252.0
 20
270456.0
 10
243595.0
 20
277310.0
  0
LINE
  5
A6C
330
1F
100
AcDbEntity
  8
lati di accesso
100
AcDbLine
 10
233252.0
 20
270456.0
 30
0.0
 11
243595.0
 21
277310.0
 31
0.0
  0
LWPOLYLINE
  5
A6D
330
1F
100
AcDbEntity
  8
aree GPS
100
AcDbPolyline
 90
4
 70
1
 10
242961.0
 20
257611.0
 10
250506.0
 20
262658.0
 10
258187.0
 20
251678.0
 10
250813.0
 20
246590.0
  0
LINE
  5
A6E
330
1F
100
AcDbEntity
  8
lati di accesso
100
AcDbLine
 10
258187.0
 20
251678.0
 30
0.0
 11
250506.0
 21
262658.0
 31
0.0
  0
ENDSEC
  0
SECTION
  2
OBJECTS
  0
DICTIONARY
  5
C
330
0
100
AcDbDictionary
281
1
  3
ACAD_CIP_PREVIOUS_PRODUCT_INFO
350
216
  3
ACAD_COLOR
350
6B
  3
ACAD_DETAILVIEWSTYLE
350
21B
  3
ACAD_GROUP
350
D
  3
ACAD_LAYOUT
350
1A
  3
ACAD_MATERIAL
350
6A
  3
ACAD_MLEADERSTYLE
350
12D
  3
ACAD_MLINESTYLE
350
17
  3
ACAD_PLOTSETTINGS
350
19
  3
ACAD_PLOTSTYLENAME
350
E
  3
ACAD_RENDER_ACTIVE_RAPIDRT_SETTINGS
350
29C
  3
ACAD_RENDER_RAPIDRT_SETTINGS
350
295
  3
ACAD_SCALELIST
350
10C
  3
ACAD_SECTIONVIEWSTYLE
350
219
  3
ACAD_TABLESTYLE
350
7E
  3
ACAD_VISUALSTYLE
350
EF
  3
ACDB_RECOMPOSE_DATA
350
83C
  3
AcDbVariableDictionary
350
5E
  3
EZDXF_META
350
3C4
  0
DICTIONARY
  5
1FF
330
2
100
AcDbDictionary
280
1
281
1
  3
ACAD_LAYERSTATES
360
200
  0
DICTIONARY
  5
13C
330
10
100
AcDbDictionary
280
1
281
1
  0
DICTIONARY
  5
1CE
330
1F
100
AcDbDictionary
280
1
281
1
  0
XRECORD
  5
216
102
{ACAD_REACTORS
330
C
102
}
330
C
100
AcDbXrecord
280
1
300
ACD
300
2021
300

  0
DICTIONARY
  5
6B
102
{ACAD_REACTORS
330
C
102
}
330
C
100
AcDbDictionary
281
1
  0
DICTIONARY
  5
21B
102
{ACAD_REACTORS
330
C
102
}
330
C
100
AcDbDictionary
281
1
  3
Metric50
350
21C
  0
DICTIONARY
  5
D
102
{ACAD_REACTORS
330
C
102
}
330
C
100
AcDbDictionary
281
1
  0
DICTIONARY
  5
1A
102
{ACAD_REACTORS
330
C
102
}
330
C
100
AcDbDictionary
281
1
  3
Layout1
350
D3
  3
Layout2
350
D7
  3
Model
350
22
  0
DICTIONARY
  5
6A
102
{ACAD_REACTORS
330
C
102
}
330
C
100
AcDbDictionary
281
1
  3
ByBlock
350
ED
  3
ByLayer
350
EC
  3
Global
350
EE
  0
DICTIONARY
  5
12D
102
{ACAD_REACTORS
330
C
102
}
330
C
100
AcDbDictionary
281
1
  3
Annotative
350
13B
  3
Standard
350
12E
  0
DICTIONARY
  5
17
102
{ACAD_REACTORS
330
C
102
}
330
C
100
AcDbDictionary
281
1
  3
Standard
350
18
  0
DICTIONARY
  5
19
102
{ACAD_REACTORS
330
C
102
}
330
C
100
AcDbDictionary
281
1
  0
ACDBDICTIONARYWDFLT
  5
E
102
{ACAD_REACTORS
330
C
102
}
330
C
100
AcDbDictionary
281
1
  3
Normal
350
F
100
AcDbDictionaryWithDefault
340
F
  0
RAPIDRTRENDERSETTINGS
  5
29C
102
{ACAD_REACTORS
330
C
102
}
330
C
100
AcDbRenderSettings
 90
2
  1
Medium
290
1
290
0
290
1
290
1
  1

  1
Applies 5 rendering levels
 90
0
100
AcDbRapidRTRenderSettings
 90
3
 70
0
 90
5
 90
1
 70
1
 70
2
 40
3.0
 40
3.0
290
1
  0
DICTIONARY
  5
295
102
{ACAD_REACTORS
330
C
102
}
330
C
100
AcDbDictionary
281
1
  3
Coffee-Break Quality
350
299
  3
High
350
298
  3
Low
350
296
  3
Lunch Quality
350
29A
  3
Medium
350
297
  3
Overnight Quality
350
29B
  0
DICTIONARY
  5
10C
102
{ACAD_REACTORS
330
C
102
}
330
C
100
AcDbDictionary
281
1
  3
A0
350
10D
  3
A1
350
1BE
  3
A2
350
1BF
  3
A3
350
1C0
  3
A4
350
1C1
  3
A5
350
1C2
  3
A6
350
1C3
  3
A7
350
1C4
  3
A8
350
1C5
  3
A9
350
1C6
  3
B0
350
1C7
  3
B1
350
1C8
  3
B2
350
1C9
  3
B3
350
1CA
  3
B4
350
1CB
  3
B5
350
1CC
  3
B6
350
1CD
  0
DICTIONARY
  5
219
102
{ACAD_REACTORS
330
C
102
}
330
C
100
AcDbDictionary
281
1
  3
Metric50
350
21A
  0
DICTIONARY
  5
7E
102
{ACAD_REACTORS
330
C
102
}
330
C
100
AcDbDictionary
281
1
  3
Standard
350
7F
  0
DICTIONARY
  5
EF
102
{ACAD_REACTORS
330
C
102
}
330
C
100
AcDbDictionary
281
1
  3
2dWireframe
350
F5
  3
Basic
350
F4
  3
Brighten
350
FB
  3
ColorChange
350
FF
  3
Conceptual
350
F8
  3
Dim
350
FA
  3
EdgeColorOff
350
1E6
  3
Facepattern
350
FE
  3
Flat
350
F0
  3
FlatWithEdges
350
F1
  3
Gouraud
350
F2
  3
GouraudWithEdges
350
F3
  3
Hidden
350
F7
  3
JitterOff
350
1E4
  3
Linepattern
350
FD
  3
OverhangOff
350
1E5
  3
Realistic
350
F9
  3
Shaded
350
1F3
  3
Shaded with edges
350
1F2
  3
Shades of Gray
350
1EF
  3
Sketchy
350
1F0
  3
Thicken
350
FC
  3
Wireframe
350
F6
  3
X-Ray
350
1F1
  0
XRECORD
  5
83C
102
{ACAD_REACTORS
330
C
102
}
330
C
100
AcDbXrecord
280
1
 90
1
330
7F
  0
DICTIONARY
  5
5E
102
{ACAD_REACTORS
330
C
102
}
330
C
100
AcDbDictionary
281
1
  3
CANNOSCALE
350
146
  3
CENTEREXE
350
259
  3
CENTERLTYPEFILE
350
25A
  3
CMLEADERSTYLE
350
145
  3
CTABLESTYLE
350
84
  3
CVIEWDETAILSTYLE
350
227
  3
CVIEWSECTIONSTYLE
350
228
  3
DIMASSOC
350
5F
  3
HIDETEXT
350
63
  3
LAYEREVAL
350
1AE
  3
LAYERNOTIFY
350
1AF
  0
DICTIONARY
  5
3C4
330
C
100
AcDbDictionary
280
1
281
1
  3
WRITTEN_BY_EZDXF
360
3C5
  0
DICTIONARY
  5
200
102
{ACAD_REACTORS
330
1FF
102
}
330
1FF
100
AcDbDictionary
281
1
  0
ACDBDETAILVIEWSTYLE
  5
21C
102
{ACAD_REACTORS
330
21B
102
}
330
21B
100
AcDbModelDocViewStyle
 70
0
  3
Metric50
290
0
300
Metric50
 90
0
100
AcDbDetailViewStyle
 70
0
 71
0
 90
3
 71
1
340
11
 62
256
 40
5.0
340
0
 62
256
 40
5.0
300

 40
0.0
280
1
 71
2
340
16
 90
25
 62
256
 71
3
340
11
 62
256
 40
5.0
 90
0
 40
15.0
 90
1
300
%<\AcVar ViewDetailId>% (%<\AcVar ViewScale \f "%sn">%)
 71
4
340
16
 90
25
 62
256
340
16
 90
25
 62
256
280
0
  0
LAYOUT
  5
D3
102
{ACAD_REACTORS
330
1A
102
}
330
1A
100
AcDbPlotSettings
  1

  2
C:\Documents and Settings\basas\Application Data\Autodesk\AutoCAD 2005\R16.1\enu\plotters\Default Windows System Printer.pc3
  4

  6

 40
0.0
 41
0.0
 42
0.0
 43
0.0
 44
0.0
 45
0.0
 46
0.0
 47
0.0
 48
0.0
 49
0.0
140
0.0
141
0.0
142
1.0
143
1.0
 70
688
 72
0
 73
0
 74
5
  7

 75
16
 76
0
 77
2
 78
300
147
1.0
148
0.0
149
0.0
100
AcDbLayout
  1
Layout1
 70
1
 71
1
 10
0.0
 20
0.0
 11
12.0
 21
9.0
 12
0.0
 22
0.0
 32
0.0
 14
0.0
 24
0.0
 34
0.0
 15
0.0
 25
0.0
 35
0.0
146
0.0
 13
0.0
 23
0.0
 33
0.0
 16
1.0
 26
0.0
 36
0.0
 17
0.0
 27
1.0
 37
0.0
 76
0
330
D2
  0
LAYOUT
  5
D7
102
{ACAD_REACTORS
330
1A
102
}
330
1A
100
AcDbPlotSettings
  1

  2
C:\Documents and Settings\basas\Application Data\Autodesk\AutoCAD 2005\R16.1\enu\plotters\Default Windows System Printer.pc3
  4

  6

 40
0.0
 41
0.0
 42
0.0
 43
0.0
 44
0.0
 45
0.0
 46
0.0
 47
0.0
 48
0.0
 49
0.0
140
0.0
141
0.0
142
1.0
143
1.0
 70
688
 72
0
 73
0
 74
5
  7

 75
16
 76
0
 77
2
 78
300
147
1.0
148
0.0
149
0.0
100
AcDbLayout
  1
Layout2
 70
1
 71
2
 10
0.0
 20
0.0
 11
12.0
 21
9.0
 12
0.0
 22
0.0
 32
0.0
 14
0.0
 24
0.0
 34
0.0
 15
0.0
 25
0.0
 35
0.0
146
0.0
 13
0.0
 23
0.0
 33
0.0
 16
1.0
 26
0.0
 36
0.0
 17
0.0
 27
1.0
 37
0.0
 76
0
330
D6
  0
LAYOUT
  5
22
102
{ACAD_XDICTIONARY
360
205
102
}
102
{ACAD_REACTORS
330
1A
102
}
330
1A
100
AcDbPlotSettings
  1

  2
none_device
  4
ISO_A4_(210.00_x_297.00_MM)
  6

 40
7.5
 41
20.0
 42
7.5
 43
20.0
 44
210.0
 45
297.0
 46
11.54999923706054
 47
-13.65000009536743
 48
0.0
 49
0.0
140
0.0
141
0.0
142
1.0
143
8.704084754739808
 70
11952
 72
1
 73
0
 74
0
  7

 75
0
 76
0
 77
2
 78
300
147
0.1148885871608098
148
0.0
149
0.0
100
AcDbLayout
  1
Model
 70
1
 71
0
 10
0.0
 20
0.0
 11
12.0
 21
9.0
 12
0.0
 22
0.0
 32
0.0
 14
0.0
 24
0.0
 34
0.0
 15
0.0
 25
0.0
 35
0.0
146
0.0
 13
0.0
 23
0.0
 33
0.0
 16
1.0
 26
0.0
 36
0.0
 17
0.0
 27
1.0
 37
0.0
 76
0
330
1F
331
EA
1001
ACAD_PSEXT
1000
None
1000
None
1000
Not applicable
1000
The layout will not be plotted unless a new plotter configuration name is selected.
1070
0
  0
MATERIAL
  5
ED
102
{ACAD_XDICTIONARY
360
1F9
102
}
102
{ACAD_REACTORS
330
6A
102
}
330
6A
100
AcDbMaterial
  1
ByBlock
  2

 70
0
 40
1.0
 71
0
 41
1.0
 91
-1023410177
 42
1.0
 72
1
  3

 73
1
 74
1
 75
1
 44
0.5
 73
0
 45
1.0
 46
1.0
 77
1
  4

 78
1
 79
1
170
1
 48
1.0
171
1
  6

172
1
173
1
174
1
140
1.0
141
1.0
175
1
  7

176
1
177
1
178
1
143
1.0
179
1
  8

270
1
271
1
272
1
145
1.0
146
1.0
273
1
  9

274
1
275
1
276
1
 42
1.0
 72
1
  3

 73
1
 74
1
 75
1
 94
63
  0
MATERIAL
  5
EC
102
{ACAD_XDICTIONARY
360
1F7
102
}
102
{ACAD_REACTORS
330
6A
102
}
330
6A
100
AcDbMaterial
  1
ByLayer
  2

 70
0
 40
1.0
 71
0
 41
1.0
 91
-1023410177
 42
1.0
 72
1
  3

 73
1
 74
1
 75
1
 44
0.5
 73
0
 45
1.0
 46
1.0
 77
1
  4

 78
1
 79
1
170
1
 48
1.0
171
1
  6

172
1
173
1
174
1
140
1.0
141
1.0
175
1
  7

176
1
177
1
178
1
143
1.0
179
1
  8

270
1
271
1
272
1
145
1.0
146
1.0
273
1
  9

274
1
275
1
276
1
 42
1.0
 72
1
  3

 73
1
 74
1
 75
1
 94
63
  0
MATERIAL
  5
EE
102
{ACAD_XDICTIONARY
360
173
102
}
102
{ACAD_REACTORS
330
6A
102
}
330
6A
100
AcDbMaterial
  1
Global
  2

 70
0
 40
1.0
 71
0
 41
1.0
 91
-1023410177
 42
1.0
 72
1
  3

 73
1
 74
1
 75
1
 43
0.0007999999797903
 43
0.0
 43
0.0
 43
0.0
 43
0.0
 43
0.0007999999797903
 43
0.0
 43
0.0
 43
0.0
 43
0.0
 43
1.0
 43
0.0
 43
0.0
 43
0.0
 43
0.0
 43
1.0
 44
0.5
 73
0
 45
1.0
 46
1.0
 77
1
  4

 78
1
 79
1
170
1
 48
1.0
171
1
  6

172
1
173
1
174
1
 49
0.0007999999797903
 49
0.0
 49
0.0
 49
0.0
 49
0.0
 49
0.0007999999797903
 49
0.0
 49
0.0
 49
0.0
 49
0.0
 49
1.0
 49
0.0
 49
0.0
 49
0.0
 49
0.0
 49
1.0
140
1.0
141
1.0
175
1
  7

176
1
177
1
178
1
142
0.0007999999797903
142
0.0
142
0.0
142
0.0
142
0.0
142
0.0007999999797903
142
0.0
142
0.0
142
0.0
142
0.0
142
1.0
142
0.0
142
0.0
142
0.0
142
0.0
142
1.0
143
1.0
179
1
  8

270
1
271
1
272
1
144
0.0007999999797903
144
0.0
144
0.0
144
0.0
144
0.0
144
0.0007999999797903
144
0.0
144
0.0
144
0.0
144
0.0
144
1.0
144
0.0
144
0.0
144
0.0
144
0.0
144
1.0
145
1.0
146
1.0
273
1
  9

274
1
275
1
276
1
 42
1.0
 72
1
  3

 73
1
 74
1
 75
1
 94
63
1001
ACAD
1070
-1
1070
3
1070
0
1000

1071
0
1070
0
  0
MLEADERSTYLE
  5
13B
102
{ACAD_REACTORS
330
12D
102
}
330
12D
100
AcDbMLeaderStyle
179
2
170
2
171
1
172
0
 90
2
 40
0.0
 41
0.0
173
1
 91
-1056964608
340
14
 92
-2
290
1
 42
2.0
291
1
 43
8.0
  3
Standard
 44
4.0
300

342
11
174
1
175
1
176
0
178
1
 93
-1056964608
 45
4.0
292
0
297
0
 46
4.0
293
1
 94
-1056964608
 47
1.0
 49
1.0
140
1.0
294
1
141
0.0
177
0
142
1.0
295
0
296
1
143
3.75
271
0
272
9
273
9
298
0
  0
MLEADERSTYLE
  5
12E
102
{ACAD_REACTORS
330
12D
102
}
330
12D
100
AcDbMLeaderStyle
179
2
170
2
171
1
172
0
 90
2
 40
0.0
 41
0.0
173
1
 91
-1056964608
340
14
 92
-2
290
1
 42
2.0
291
1
 43
8.0
  3
Standard
 44
4.0
300

342
11
174
1
175
1
176
0
178
1
 93
-1056964608
 45
4.0
292
0
297
0
 46
4.0
293
1
 94
-1056964608
 47
1.0
 49
1.0
140
1.0
294
1
141
0.0
177
0
142
1.0
295
0
296
0
143
3.75
271
0
272
9
273
9
298
0
  0
MLINESTYLE
  5
18
102
{ACAD_REACTORS
330
17
102
}
330
17
100
AcDbMlineStyle
  2
STANDARD
 70
0
  3

 62
256
 51
90.0
 52
90.0
 71
2
 49
0.5
 62
256
  6
BYLAYER
 49
-0.5
 62
256
  6
BYLAYER
  0
ACDBPLACEHOLDER
  5
F
102
{ACAD_REACTORS
330
E
102
}
330
E
  0
RAPIDRTRENDERSETTINGS
  5
299
102
{ACAD_REACTORS
330
295
102
}
330
295
100
AcDbRenderSettings
 90
2
  1
Coffee-Break Quality
290
1
290
0
290
1
290
1
  1

  1
Renders for 10 minutes
 90
3
100
AcDbRapidRTRenderSettings
 90
3
 70
1
 90
1
 90
10
 70
1
 70
2
 40
3.0
 40
3.0
290
1
  0
RAPIDRTRENDERSETTINGS
  5
298
102
{ACAD_REACTORS
330
295
102
}
330
295
100
AcDbRenderSettings
 90
2
  1
High
290
1
290
0
290
1
290
1
  1

  1
Applies 10 rendering levels
 90
2
100
AcDbRapidRTRenderSettings
 90
3
 70
0
 90
10
 90
1
 70
2
 70
2
 40
3.0
 40
3.0
290
1
  0
RAPIDRTRENDERSETTINGS
  5
296
102
{ACAD_REACTORS
330
295
102
}
330
295
100
AcDbRenderSettings
 90
2
  1
Low
290
1
290
0
290
1
290
1
  1

  1
Applies 1 rendering level
 90
0
100
AcDbRapidRTRenderSettings
 90
3
 70
0
 90
1
 90
1
 70
0
 70
2
 40
3.0
 40
3.0
290
1
  0
RAPIDRTRENDERSETTINGS
  5
29A
102
{ACAD_REACTORS
330
295
102
}
330
295
100
AcDbRenderSettings
 90
2
  1
Lunch Quality
290
1
290
0
290
1
290
1
  1

  1
Renders for 60 minutes
 90
4
100
AcDbRapidRTRenderSettings
 90
3
 70
1
 90
1
 90
60
 70
2
 70
2
 40
3.0
 40
3.0
290
1
  0
RAPIDRTRENDERSETTINGS
  5
297
102
{ACAD_REACTORS
330
295
102
}
330
295
100
AcDbRenderSettings
 90
2
  1
Medium
290
1
290
0
290
1
290
1
  1

  1
Applies 5 rendering levels
 90
1
100
AcDbRapidRTRenderSettings
 90
3
 70
0
 90
5
 90
1
 70
1
 70
2
 40
3.0
 40
3.0
290
1
  0
RAPIDRTRENDERSETTINGS
  5
29B
102
{ACAD_REACTORS
330
295
102
}
330
295
100
AcDbRenderSettings
 90
2
  1
Overnight Quality
290
1
290
0
290
1
290
1
  1

  1
Renders for 12 hours
 90
5
100
AcDbRapidRTRenderSettings
 90
3
 70
1
 90
1
 90
720
 70
2
 70
2
 40
3.0
 40
3.0
290
1
  0
SCALE
  5
10D
102
{ACAD_REACTORS
330
10C
102
}
330
10C
100
AcDbScale
 70
0
300
1:1
140
1.0
141
1.0
290
1
  0
SCALE
  5
1BE
102
{ACAD_REACTORS
330
10C
102
}
330
10C
100
AcDbScale
 70
0
300
1:2
140
1.0
141
2.0
290
0
  0
SCALE
  5
1BF
102
{ACAD_REACTORS
330
10C
102
}
330
10C
100
AcDbScale
 70
0
300
1:4
140
1.0
141
4.0
290
0
  0
SCALE
  5
1C0
102
{ACAD_REACTORS
330
10C
102
}
330
10C
100
AcDbScale
 70
0
300
1:5
140
1.0
141
5.0
290
0
  0
SCALE
  5
1C1
102
{ACAD_REACTORS
330
10C
102
}
330
10C
100
AcDbScale
 70
0
300
1:8
140
1.0
141
8.0
290
0
  0
SCALE
  5
1C2
102
{ACAD_REACTORS
330
10C
102
}
330
10C
100
AcDbScale
 70
0
300
1:10
140
1.0
141
10.0
290
0
  0
SCALE
  5
1C3
102
{ACAD_REACTORS
330
10C
102
}
330
10C
100
AcDbScale
 70
0
300
1:16
140
1.0
141
16.0
290
0
  0
SCALE
  5
1C4
102
{ACAD_REACTORS
330
10C
102
}
330
10C
100
AcDbScale
 70
0
300
1:20
140
1.0
141
20.0
290
0
  0
SCALE
  5
1C5
102
{ACAD_REACTORS
330
10C
102
}
330
10C
100
AcDbScale
 70
0
300
1:30
140
1.0
141
30.0
290
0
  0
SCALE
  5
1C6
102
{ACAD_REACTORS
330
10C
102
}
330
10C
100
AcDbScale
 70
0
300
1:40
140
1.0
141
40.0
290
0
  0
SCALE
  5
1C7
102
{ACAD_REACTORS
330
10C
102
}
330
10C
100
AcDbScale
 70
0
300
1:50
140
1.0
141
50.0
290
0
  0
SCALE
  5
1C8
102
{ACAD_REACTORS
330
10C
102
}
330
10C
100
AcDbScale
 70
0
300
1:100
140
1.0
141
100.0
290
0
  0
SCALE
  5
1C9
102
{ACAD_REACTORS
330
10C
102
}
330
10C
100
AcDbScale
 70
0
300
2:1
140
2.0
141
1.0
290
0
  0
SCALE
  5
1CA
102
{ACAD_REACTORS
330
10C
102
}
330
10C
100
AcDbScale
 70
0
300
4:1
140
4.0
141
1.0
290
0
  0
SCALE
  5
1CB
102
{ACAD_REACTORS
330
10C
102
}
330
10C
100
AcDbScale
 70
0
300
8:1
140
8.0
141
1.0
290
0
  0
SCALE
  5
1CC
102
{ACAD_REACTORS
330
10C
102
}
330
10C
100
AcDbScale
 70
0
300
10:1
140
10.0
141
1.0
290
0
  0
SCALE
  5
1CD
102
{ACAD_REACTORS
330
10C
102
}
330
10C
100
AcDbScale
 70
0
300
100:1
140
100.0
141
1.0
290
0
  0
ACDBSECTIONVIEWSTYLE
  5
21A
102
{ACAD_REACTORS
330
219
102
}
330
219
100
AcDbModelDocViewStyle
 70
0
  3
Metric50
290
0
300
Metric50
 90
0
100
AcDbSectionViewStyle
 70
0
 71
0
 90
102
 71
1
340
11
 62
256
 40
5.0
340
0
340
0
 62
256
 40
5.0
300
I, O, Q, S, X, Z
 40
10.0
 90
0
 40
2.5
 90
0
 71
2
340
16
 90
25
 62
256
340
16
 90
50
 62
256
 40
5.0
 40
2.5
 40
5.0
 71
3
340
11
 62
256
 40
5.0
 90
0
 40
15.0
 90
1
300
%<\AcVar ViewSectionStartId>%-%<\AcVar ViewSectionEndId>% (%<\AcVar ViewScale \f "%sn">%)
 71
4
 62
256
 62
257
300
ANSI31
 40
1.0
 90
0
290
0
290
0
 90
6
 40
0.0
 40
1.570796326794896
 40
0.2617993877991494
 40
1.308996938995747
 40
-0.2617993877991494
 40
1.832595714594044
  0
TABLESTYLE
  5
7F
102
{ACAD_XDICTIONARY
360
162
102
}
102
{ACAD_REACTORS
330
7E
102
}
330
7E
100
AcDbTableStyle
280
0
  3
Standard
 70
0
 71
0
 40
1.5
 41
1.5
280
0
281
0
  7
Standard
140
4.5
170
2
 62
0
 63
7
283
0
 90
512
 91
0
  1

274
-2
284
1
 64
0
275
-2
285
1
 65
0
276
-2
286
1
 66
0
277
-2
287
1
 67
0
278
-2
288
1
 68
0
279
-2
289
1
 69
0
  7
Standard
140
6.0
170
5
 62
0
 63
7
283
0
 90
512
 91
0
  1

274
-2
284
1
 64
0
275
-2
285
1
 65
0
276
-2
286
1
 66
0
277
-2
287
1
 67
0
278
-2
288
1
 68
0
279
-2
289
1
 69
0
  7
Standard
140
4.5
170
5
 62
0
 63
7
283
0
 90
512
 91
0
  1

274
-2
284
1
 64
0
275
-2
285
1
 65
0
276
-2
286
1
 66
0
277
-2
287
1
 67
0
278
-2
288
1
 68
0
279
-2
289
1
 69
0
  0
VISUALSTYLE
  5
F5
102
{ACAD_REACTORS
330
EF
102
}
330
EF
100
AcDbVisualStyle
  2
2dWireframe
 70
4
177
3
291
0
 70
58
 90
0
176
1
 90
2
176
1
 90
1
176
1
 90
0
176
1
 40
0.6
176
1
 40
30.0
176
1
 62
7
420
16777215
176
1
 90
1
176
1
 90
4
176
1
 62
7
176
1
 62
257
176
1
 90
1
176
1
 90
1
176
1
 40
1.0
176
1
 90
0
176
1
 62
257
176
1
 40
1.0
176
1
 90
1
176
1
 90
6
176
1
 90
2
176
1
 62
7
176
1
 90
5
176
1
 90
0
176
1
 90
0
176
1
290
0
176
1
 90
1
176
1
 40
0.0
176
1
 90
0
176
1
290
1
176
1
290
1
176
1
290
0
176
1
290
0
176
1
290
0
176
1
290
0
176
1
290
0
176
1
290
0
176
1
290
0
176
1
 90
50
176
1
 40
0.0
176
1
 40
1.0
176
1
 90
0
176
1
 62
18
176
1
 90
50
176
1
 90
3
176
1
 62
5
420
255
176
1
290
0
176
1
 90
50
176
1
 90
50
176
1
 90
50
176
1
290
0
176
1
 90
50
176
1
 62
256
176
0
 40
1.0
176
0
 90
2
176
1
  1
strokes_ogs.tif
176
1
290
0
176
1
 40
1.0
176
1
 40
1.0
176
1
  0
VISUALSTYLE
  5
F4
102
{ACAD_REACTORS
330
EF
102
}
330
EF
100
AcDbVisualStyle
  2
Basic
 70
7
177
3
291
1
 70
58
 90
1
176
1
 90
0
176
1
 90
1
176
1
 90
0
176
1
 40
0.6
176
1
 40
30.0
176
1
 62
7
420
16777215
176
1
 90
0
176
1
 90
4
176
1
 62
7
176
1
 62
257
176
1
 90
1
176
1
 90
1
176
1
 40
1.0
176
1
 90
8
176
1
 62
7
176
1
 40
1.0
176
1
 90
1
176
1
 90
6
176
1
 90
2
176
1
 62
7
176
1
 90
5
176
1
 90
0
176
1
 90
0
176
1
290
0
176
1
 90
1
176
1
 40
0.0
176
1
 90
0
176
1
290
0
176
1
290
1
176
1
290
1
176
1
290
0
176
1
290
0
176
1
290
0
176
1
290
0
176
1
290
0
176
1
290
0
176
1
 90
50
176
1
 40
0.0
176
1
 40
1.0
176
1
 90
0
176
1
 62
18
176
1
 90
50
176
1
 90
3
176
1
 62
5
420
255
176
1
290
0
176
1
 90
50
176
1
 90
50
176
1
 90
50
176
1
290
0
176
1
 90
50
176
1
 62
256
176
0
 40
1.0
176
0
 90
2
176
1
  1
strokes_ogs.tif
176
1
290
0
176
1
 40
1.0
176
1
 40
1.0
176
1
  0
VISUALSTYLE
  5
FB
102
{ACAD_REACTORS
330
EF
102
}
330
EF
100
AcDbVisualStyle
  2
Brighten
 70
12
177
3
291
1
 70
58
 90
2
176
1
 90
2
176
1
 90
1
176
1
 90
0
176
1
 40
0.6
176
1
 40
30.0
176
1
 62
7
420
16777215
176
1
 90
1
176
1
 90
4
176
1
 62
7
176
1
 62
257
176
1
 90
1
176
1
 90
1
176
1
 40
1.0
176
1
 90
8
176
1
 62
7
176
1
 40
1.0
176
1
 90
1
176
1
 90
6
176
1
 90
2
176
1
 62
7
176
1
 90
5
176
1
 90
0
176
1
 90
0
176
1
290
0
176
1
 90
1
176
1
 40
50.0
176
1
 90
0
176
1
290
0
176
1
290
1
176
1
290
1
176
1
290
0
176
1
290
0
176
1
290
0
176
1
290
0
176
1
290
0
176
1
290
0
176
1
 90
50
176
1
 40
0.0
176
1
 40
1.0
176
1
 90
0
176
1
 62
18
176
1
 90
50
176
1
 90
3
176
1
 62
5
420
255
176
1
290
0
176
1
 90
50
176
1
 90
50
176
1
 90
50
176
1
290
0
176
1
 90
50
176
1
 62
256
176
0
 40
1.0
176
0
 90
2
176
1
  1
strokes_ogs.tif
176
1
290
0
176
1
 40
1.0
176
1
 40
1.0
176
1
  0
VISUALSTYLE
  5
FF
102
{ACAD_REACTORS
330
EF
102
}
330
EF
100
AcDbVisualStyle
  2
ColorChange
 70
16
177
3
291
1
 70
58
 90
2
176
1
 90
2
176
1
 90
3
176
1
 90
0
176
1
 40
0.6
176
1
 40
30.0
176
1
 62
8
420
8421504
176
1
 90
1
176
1
 90
4
176
1
 62
7
176
1
 62
257
176
1
 90
1
176
1
 90
1
176
1
 40
1.0
176
1
 90
8
176
1
 62
8
420
8421504
176
1
 40
1.0
176
1
 90
1
176
1
 90
6
176
1
 90
2
176
1
 62
7
176
1
 90
5
176
1
 90
0
176
1
 90
0
176
1
290
0
176
1
 90
1
176
1
 40
0.0
176
1
 90
0
176
1
290
0
176
1
290
1
176
1
290
1
176
1
290
0
176
1
290
0
176
1
290
0
176
1
290
0
176
1
290
0
176
1
290
0
176
1
 90
50
176
1
 40
0.0
176
1
 40
1.0
176
1
 90
0
176
1
 62
18
176
1
 90
50
176
1
 90
3
176
1
 62
5
420
255
176
1
290
0
176
1
 90
50
176
1
 90
50
176
1
 90
50
176
1
290
0
176
1
 90
50
176
1
 62
256
176
0
 40
1.0
176
0
 90
2
176
1
  1
strokes_ogs.tif
176
1
290
0
176
1
 40
1.0
176
1
 40
1.0
176
1
  0
VISUALSTYLE
  5
F8
102
{ACAD_REACTORS
330
EF
102
}
330
EF
100
AcDbVisualStyle
  2
Conceptual
 70
9
177
3
291
0
 70
58
 90
3
176
1
 90
2
176
1
 90
1
176
1
 90
0
176
1
 40
0.6
176
1
 40
30.0
176
1
 62
7
420
16777215
176
1
 90
2
176
1
 90
2
176
1
 62
7
176
1
 62
257
176
1
 90
1
176
1
 90
1
176
1
 40
40.0
176
1
 90
8
176
1
 62
7
176
1
 40
1.0
176
1
 90
1
176
1
 90
6
176
1
 90
2
176
1
 62
7
176
1
 90
3
176
1
 90
0
176
1
 90
0
176
1
290
0
176
1
 90
1
176
1
 40
0.0
176
1
 90
0
176
1
290
0
176
1
290
1
176
1
290
1
176
1
290
0
176
1
290
0
176
1
290
0
176
1
290
0
176
1
290
0
176
1
290
0
176
1
 90
50
176
1
 40
0.0
176
1
 40
1.0
176
1
 90
0
176
1
 62
18
176
1
 90
50
176
1
 90
3
176
1
 62
5
420
255
176
1
290
0
176
1
 90
50
176
1
 90
50
176
1
 90
50
176
1
290
0
176
1
 90
50
176
1
 62
256
176
0
 40
1.0
176
0
 90
2
176
1
  1
strokes_ogs.tif
176
1
290
0
176
1
 40
1.0
176
1
 40
1.0
176
1
  0
VISUALSTYLE
  5
FA
102
{ACAD_REACTORS
330
EF
102
}
330
EF
100
AcDbVisualStyle
  2
Dim
 70
11
177
3
291
1
 70
58
 90
2
176
1
 90
2
176
1
 90
1
176
1
 90
0
176
1
 40
0.6
176
1
 40
30.0
176
1
 62
7
420
16777215
176
1
 90
1
176
1
 90
4
176
1
 62
7
176
1
 62
257
176
1
 90
1
176
1
 90
1
176
1
 40
1.0
176
1
 90
8
176
1
 62
7
176
1
 40
1.0
176
1
 90
1
176
1
 90
6
176
1
 90
2
176
1
 62
7
176
1
 90
5
176
1
 90
0
176
1
 90
0
176
1
290
0
176
1
 90
1
176
1
 40
-50.0
176
1
 90
0
176
1
290
0
176
1
290
1
176
1
290
1
176
1
290
0
176
1
290
0
176
1
290
0
176
1
290
0
176
1
290
0
176
1
290
0
176
1
 90
50
176
1
 40
0.0
176
1
 40
1.0
176
1
 90
0
176
1
 62
18
176
1
 90
50
176
1
 90
3
176
1
 62
5
420
255
176
1
290
0
176
1
 90
50
176
1
 90
50
176
1
 90
50
176
1
290
0
176
1
 90
50
176
1
 62
256
176
0
 40
1.0
176
0
 90
2
176
1
  1
strokes_ogs.tif
176
1
290
0
176
1
 40
1.0
176
1
 40
1.0
176
1
  0
VISUALSTYLE
  5
1E6
102
{ACAD_REACTORS
330
EF
102
}
330
EF
100
AcDbVisualStyle
  2
EdgeColorOff
 70
22
177
3
291
1
 70
58
 90
2
176
0
 90
2
176
0
 90
0
176
0
 90
0
176
0
 40
0.6
176
0
 40
30.0
176
0
 62
7
420
16777215
176
0
 90
1
176
0
 90
4
176
0
 62
7
176
0
 62
257
176
0
 90
1
176
0
 90
1
176
0
 40
1.0
176
0
 90
8
176
2
 62
7
176
0
 40
1.0
176
0
 90
1
176
0
 90
6
176
0
 90
2
176
0
 62
7
176
0
 90
5
176
0
 90
0
176
0
 90
0
176
0
290
0
176
0
 90
1
176
0
 40
0.0
176
0
 90
0
176
0
290
0
176
1
290
1
176
1
290
1
176
1
290
0
176
1
290
0
176
1
290
0
176
1
290
0
176
1
290
0
176
1
290
0
176
1
 90
50
176
1
 40
0.0
176
1
 40
1.0
176
1
 90
0
176
1
 62
18
176
1
 90
50
176
1
 90
3
176
1
 62
5
420
255
176
1
290
0
176
1
 90
50
176
1
 90
50
176
1
 90
50
176
1
290
0
176
1
 90
50
176
1
 62
256
176
0
 40
1.0
176
0
 90
2
176
1
  1
strokes_ogs.tif
176
1
290
0
176
1
 40
1.0
176
1
 40
1.0
176
1
  0
VISUALSTYLE
  5
FE
102
{ACAD_REACTORS
330
EF
102
}
330
EF
100
AcDbVisualStyle
  2
Facepattern
 70
15
177
3
291
1
 70
58
 90
2
176
1
 90
2
176
1
 90
1
176
1
 90
0
176
1
 40
0.6
176
1
 40
30.0
176
1
 62
7
420
16777215
176
1
 90
1
176
1
 90
4
176
1
 62
7
176
1
 62
257
176
1
 90
1
176
1
 90
1
176
1
 40
1.0
176
1
 90
8
176
1
 62
7
176
1
 40
1.0
176
1
 90
1
176
1
 90
6
176
1
 90
2
176
1
 62
7
176
1
 90
5
176
1
 90
0
176
1
 90
0
176
1
290
0
176
1
 90
1
176
1
 40
0.0
176
1
 90
0
176
1
290
0
176
1
290
1
176
1
290
1
176
1
290
0
176
1
290
0
176
1
290
0
176
1
290
0
176
1
290
0
176
1
290
0
176
1
 90
50
176
1
 40
0.0
176
1
 40
1.0
176
1
 90
0
176
1
 62
18
176
1
 90
50
176
1
 90
3
176
1
 62
5
420
255
176
1
290
0
176
1
 90
50
176
1
 90
50
176
1
 90
50
176
1
290
0
176
1
 90
50
176
1
 62
256
176
0
 40
1.0
176
0
 90
2
176
1
  1
strokes_ogs.tif
176
1
290
0
176
1
 40
1.0
176
1
 40
1.0
176
1
  0
VISUALSTYLE
  5
F0
102
{ACAD_REACTORS
330
EF
102
}
330
EF
100
AcDbVisualStyle
  2
Flat
 70
0
177
3
291
1
 70
58
 90
2
176
1
 90
1
176
1
 90
1
176
1
 90
2
176
1
 40
0.6
176
1
 40
30.0
176
1
 62
7
420
16777215
176
1
 90
0
176
1
 90
0
176
1
 62
7
176
1
 62
257
176
1
 90
1
176
1
 90
1
176
1
 40
1.0
176
1
 90
8
176
1
 62
7
176
1
 40
1.0
176
1
 90
1
176
1
 90
6
176
1
 90
2
176
1
 62
7
176
1
 90
5
176
1
 90
0
176
1
 90
0
176
1
290
0
176
1
 90
13
176
1
 40
0.0
176
1
 90
0
176
1
290
0
176
1
290
1
176
1
290
1
176
1
290
0
176
1
290
0
176
1
290
0
176
1
290
0
176
1
290
0
176
1
290
0
176
1
 90
50
176
1
 40
0.0
176
1
 40
1.0
176
1
 90
0
176
1
 62
18
176
1
 90
50
176
1
 90
3
176
1
 62
5
420
255
176
1
290
0
176
1
 90
50
176
1
 90
50
176
1
 90
50
176
1
290
0
176
1
 90
50
176
1
 62
256
176
0
 40
1.0
176
0
 90
2
176
1
  1
strokes_ogs.tif
176
1
290
0
176
1
 40
1.0
176
1
 40
1.0
176
1
  0
VISUALSTYLE
  5
F1
102
{ACAD_REACTORS
330
EF
102
}
330
EF
100
AcDbVisualStyle
  2
FlatWithEdges
 70
1
177
3
291
1
 70
58
 90
2
176
1
 90
1
176
1
 90
1
176
1
 90
2
176
1
 40
0.6
176
1
 40
30.0
176
1
 62
7
420
16777215
176
1
 90
1
176
1
 90
0
176
1
 62
7
176
1
 62
257
176
1
 90
1
176
1
 90
1
176
1
 40
1.0
176
1
 90
0
176
1
 62
257
176
1
 40
1.0
176
1
 90
1
176
1
 90
6
176
1
 90
2
176
1
 62
7
176
1
 90
5
176
1
 90
0
176
1
 90
0
176
1
290
0
176
1
 90
13
176
1
 40
0.0
176
1
 90
0
176
1
290
0
176
1
290
1
176
1
290
1
176
1
290
0
176
1
290
0
176
1
290
0
176
1
290
0
176
1
290
0
176
1
290
0
176
1
 90
50
176
1
 40
0.0
176
1
 40
1.0
176
1
 90
0
176
1
 62
18
176
1
 90
50
176
1
 90
3
176
1
 62
5
420
255
176
1
290
0
176
1
 90
50
176
1
 90
50
176
1
 90
50
176
1
290
0
176
1
 90
50
176
1
 62
256
176
0
 40
1.0
176
0
 90
2
176
1
  1
strokes_ogs.tif
176
1
290
0
176
1
 40
1.0
176
1
 40
1.0
176
1
  0
VISUALSTYLE
  5
F2
102
{ACAD_REACTORS
330
EF
102
}
330
EF
100
AcDbVisualStyle
  2
Gouraud
 70
2
177
3
291
1
 70
58
 90
2
176
1
 90
2
176
1
 90
1
176
1
 90
2
176
1
 40
0.6
176
1
 40
30.0
176
1
 62
7
420
16777215
176
1
 90
0
176
1
 90
0
176
1
 62
7
176
1
 62
257
176
1
 90
1
176
1
 90
1
176
1
 40
1.0
176
1
 90
0
176
1
 62
7
176
1
 40
1.0
176
1
 90
1
176
1
 90
6
176
1
 90
2
176
1
 62
7
176
1
 90
5
176
1
 90
0
176
1
 90
0
176
1
290
0
176
1
 90
13
176
1
 40
0.0
176
1
 90
0
176
1
290
0
176
1
290
1
176
1
290
1
176
1
290
0
176
1
290
0
176
1
290
0
176
1
290
0
176
1
290
0
176
1
290
0
176
1
 90
50
176
1
 40
0.0
176
1
 40
1.0
176
1
 90
0
176
1
 62
18
176
1
 90
50
176
1
 90
3
176
1
 62
5
420
255
176
1
290
0
176
1
 90
50
176
1
 90
50
176
1
 90
50
176
1
290
0
176
1
 90
50
176
1
 62
256
176
0
 40
1.0
176
0
 90
2
176
1
  1
strokes_ogs.tif
176
1
290
0
176
1
 40
1.0
176
1
 40
1.0
176
1
  0
VISUALSTYLE
  5
F3
102
{ACAD_REACTORS
330
EF
102
}
330
EF
100
AcDbVisualStyle
  2
GouraudWithEdges
 70
3
177
3
291
1
 70
58
 90
2
176
1
 90
2
176
1
 90
1
176
1
 90
2
176
1
 40
0.6
176
1
 40
30.0
176
1
 62
7
420
16777215
176
1
 90
1
176
1
 90
0
176
1
 62
7
176
1
 62
257
176
1
 90
1
176
1
 90
1
176
1
 40
1.0
176
1
 90
0
176
1
 62
257
176
1
 40
1.0
176
1
 90
1
176
1
 90
6
176
1
 90
2
176
1
 62
7
176
1
 90
5
176
1
 90
0
176
1
 90
0
176
1
290
0
176
1
 90
13
176
1
 40
0.0
176
1
 90
0
176
1
290
0
176
1
290
1
176
1
290
1
176
1
290
0
176
1
290
0
176
1
290
0
176
1
290
0
176
1
290
0
176
1
290
0
176
1
 90
50
176
1
 40
0.0
176
1
 40
1.0
176
1
 90
0
176
1
 62
18
176
1
 90
50
176
1
 90
3
176
1
 62
5
420
255
176
1
290
0
176
1
 90
50
176
1
 90
50
176
1
 90
50
176
1
290
0
176
1
 90
50
176
1
 62
256
176
0
 40
1.0
176
0
 90
2
176
1
  1
strokes_ogs.tif
176
1
290
0
176
1
 40
1.0
176
1
 40
1.0
176
1
  0
VISUALSTYLE
  5
F7
102
{ACAD_REACTORS
330
EF
102
}
330
EF
100
AcDbVisualStyle
  2
Hidden
 70
6
177
3
291
0
 70
58
 90
1
176
1
 90
2
176
1
 90
2
176
1
 90
0
176
1
 40
0.6
176
1
 40
30.0
176
1
 62
7
420
16777215
176
1
 90
2
176
1
 90
2
176
1
 62
7
176
1
 62
257
176
1
 90
2
176
1
 90
1
176
1
 40
40.0
176
1
 90
0
176
1
 62
257
176
1
 40
1.0
176
1
 90
1
176
1
 90
6
176
1
 90
2
176
1
 62
7
176
1
 90
3
176
1
 90
0
176
1
 90
0
176
1
290
0
176
1
 90
1
176
1
 40
0.0
176
1
 90
0
176
1
290
0
176
1
290
1
176
1
290
1
176
1
290
0
176
1
290
0
176
1
290
0
176
1
290
0
176
1
290
0
176
1
290
0
176
1
 90
50
176
1
 40
0.0
176
1
 40
1.0
176
1
 90
0
176
1
 62
18
176
1
 90
50
176
1
 90
3
176
1
 62
5
420
255
176
1
290
0
176
1
 90
50
176
1
 90
50
176
1
 90
50
176
1
290
0
176
1
 90
50
176
1
 62
256
176
0
 40
1.0
176
0
 90
2
176
1
  1
strokes_ogs.tif
176
1
290
0
176
1
 40
1.0
176
1
 40
1.0
176
1
  0
VISUALSTYLE
  5
1E4
102
{ACAD_REACTORS
330
EF
102
}
330
EF
100
AcDbVisualStyle
  2
JitterOff
 70
20
177
3
291
1
 70
58
 90
2
176
0
 90
2
176
0
 90
0
176
0
 90
0
176
0
 40
0.6
176
0
 40
30.0
176
0
 62
7
420
16777215
176
0
 90
1
176
0
 90
4
176
0
 62
7
176
0
 62
257
176
0
 90
1
176
0
 90
1
176
0
 40
1.0
176
0
 90
10
176
2
 62
7
176
0
 40
1.0
176
0
 90
1
176
0
 90
6
176
0
 90
2
176
0
 62
7
176
0
 90
5
176
0
 90
0
176
0
 90
0
176
0
290
0
176
0
 90
1
176
0
 40
0.0
176
0
 90
0
176
0
290
0
176
1
290
1
176
1
290
1
176
1
290
0
176
1
290
0
176
1
290
0
176
1
290
0
176
1
290
0
176
1
290
0
176
1
 90
50
176
1
 40
0.0
176
1
 40
1.0
176
1
 90
0
176
1
 62
18
176
1
 90
50
176
1
 90
3
176
1
 62
5
420
255
176
1
290
0
176
1
 90
50
176
1
 90
50
176
1
 90
50
176
1
290
0
176
1
 90
50
176
1
 62
256
176
0
 40
1.0
176
0
 90
2
176
1
  1
strokes_ogs.tif
176
1
290
0
176
1
 40
1.0
176
1
 40
1.0
176
1
  0
VISUALSTYLE
  5
FD
102
{ACAD_REACTORS
330
EF
102
}
330
EF
100
AcDbVisualStyle
  2
Linepattern
 70
14
177
3
291
1
 70
58
 90
2
176
1
 90
2
176
1
 90
1
176
1
 90
0
176
1
 40
0.6
176
1
 40
30.0
176
1
 62
7
420
16777215
176
1
 90
1
176
1
 90
4
176
1
 62
7
176
1
 62
257
176
1
 90
7
176
1
 90
7
176
1
 40
1.0
176
1
 90
8
176
1
 62
7
176
1
 40
1.0
176
1
 90
1
176
1
 90
6
176
1
 90
2
176
1
 62
7
176
1
 90
5
176
1
 90
0
176
1
 90
0
176
1
290
0
176
1
 90
1
176
1
 40
0.0
176
1
 90
0
176
1
290
0
176
1
290
1
176
1
290
1
176
1
290
0
176
1
290
0
176
1
290
0
176
1
290
0
176
1
290
0
176
1
290
0
176
1
 90
50
176
1
 40
0.0
176
1
 40
1.0
176
1
 90
0
176
1
 62
18
176
1
 90
50
176
1
 90
3
176
1
 62
5
420
255
176
1
290
0
176
1
 90
50
176
1
 90
50
176
1
 90
50
176
1
290
0
176
1
 90
50
176
1
 62
256
176
0
 40
1.0
176
0
 90
2
176
1
  1
strokes_ogs.tif
176
1
290
0
176
1
 40
1.0
176
1
 40
1.0
176
1
  0
VISUALSTYLE
  5
1E5
102
{ACAD_REACTORS
330
EF
102
}
330
EF
100
AcDbVisualStyle
  2
OverhangOff
 70
21
177
3
291
1
 70
58
 90
2
176
0
 90
2
176
0
 90
0
176
0
 90
0
176
0
 40
0.6
176
0
 40
30.0
176
0
 62
7
420
16777215
176
0
 90
1
176
0
 90
4
176
0
 62
7
176
0
 62
257
176
0
 90
1
176
0
 90
1
176
0
 40
1.0
176
0
 90
9
176
2
 62
7
176
0
 40
1.0
176
0
 90
1
176
0
 90
6
176
0
 90
2
176
0
 62
7
176
0
 90
5
176
0
 90
0
176
0
 90
0
176
0
290
0
176
0
 90
1
176
0
 40
0.0
176
0
 90
0
176
0
290
0
176
1
290
1
176
1
290
1
176
1
290
0
176
1
290
0
176
1
290
0
176
1
290
0
176
1
290
0
176
1
290
0
176
1
 90
50
176
1
 40
0.0
176
1
 40
1.0
176
1
 90
0
176
1
 62
18
176
1
 90
50
176
1
 90
3
176
1
 62
5
420
255
176
1
290
0
176
1
 90
50
176
1
 90
50
176
1
 90
50
176
1
290
0
176
1
 90
50
176
1
 62
256
176
0
 40
1.0
176
0
 90
2
176
1
  1
strokes_ogs.tif
176
1
290
0
176
1
 40
1.0
176
1
 40
1.0
176
1
  0
VISUALSTYLE
  5
F9
102
{ACAD_REACTORS
330
EF
102
}
330
EF
100
AcDbVisualStyle
  2
Realistic
 70
8
177
3
291
0
 70
58
 90
2
176
1
 90
3
176
1
 90
0
176
1
 90
2
176
1
 40
0.6
176
1
 40
30.0
176
1
 62
7
420
16777215
176
1
 90
0
176
1
 90
0
176
1
 62
7
176
1
 62
257
176
1
 90
1
176
1
 90
1
176
1
 40
1.0
176
1
 90
8
176
1
 62
257
176
1
 40
1.0
176
1
 90
1
176
1
 90
6
176
1
 90
2
176
1
 62
7
176
1
 90
3
176
1
 90
0
176
1
 90
0
176
1
290
0
176
1
 90
13
176
1
 40
0.0
176
1
 90
0
176
1
290
0
176
1
290
1
176
1
290
1
176
1
290
0
176
1
290
0
176
1
290
0
176
1
290
0
176
1
290
0
176
1
290
0
176
1
 90
50
176
1
 40
0.0
176
1
 40
1.0
176
1
 90
0
176
1
 62
18
176
1
 90
50
176
1
 90
3
176
1
 62
5
420
255
176
1
290
0
176
1
 90
50
176
1
 90
50
176
1
 90
50
176
1
290
0
176
1
 90
50
176
1
 62
256
176
0
 40
1.0
176
0
 90
2
176
1
  1
strokes_ogs.tif
176
1
290
0
176
1
 40
1.0
176
1
 40
1.0
176
1
  0
VISUALSTYLE
  5
1F3
102
{ACAD_REACTORS
330
EF
102
}
330
EF
100
AcDbVisualStyle
  2
Shaded
 70
27
177
3
291
0
 70
58
 90
2
176
1
 90
2
176
1
 90
1
176
1
 90
2
176
1
 40
0.6
176
1
 40
30.0
176
1
 62
7
420
16777215
176
1
 90
0
176
1
 90
4
176
1
 62
7
176
1
 62
257
176
1
 90
1
176
1
 90
1
176
1
 40
1.0
176
1
 90
8
176
1
 62
257
176
1
 40
1.0
176
1
 90
1
176
1
 90
6
176
1
 90
2
176
1
 62
8
420
7895160
176
1
 90
3
176
1
 90
0
176
1
 90
0
176
1
290
0
176
1
 90
5
176
1
 40
0.0
176
1
 90
0
176
1
290
0
176
1
290
1
176
1
290
1
176
1
290
0
176
1
290
0
176
1
290
0
176
1
290
0
176
1
290
0
176
1
290
0
176
1
 90
50
176
1
 40
0.0
176
1
 40
1.0
176
1
 90
0
176
1
 62
18
176
1
 90
50
176
1
 90
3
176
1
 62
5
420
255
176
1
290
0
176
1
 90
50
176
1
 90
50
176
1
 90
50
176
1
290
0
176
1
 90
50
176
1
 62
256
176
0
 40
1.0
176
0
 90
2
176
1
  1
strokes_ogs.tif
176
1
290
0
176
1
 40
1.0
176
1
 40
1.0
176
1
  0
VISUALSTYLE
  5
1F2
102
{ACAD_REACTORS
330
EF
102
}
330
EF
100
AcDbVisualStyle
  2
Shaded with edges
 70
26
177
3
291
0
 70
58
 90
2
176
1
 90
2
176
1
 90
1
176
1
 90
2
176
1
 40
0.6
176
1
 40
30.0
176
1
 62
7
420
16777215
176
1
 90
1
176
1
 90
2
176
1
 62
7
176
1
 62
257
176
1
 90
2
176
1
 90
1
176
1
 40
1.0
176
1
 90
8
176
1
 62
257
176
1
 40
1.0
176
1
 90
1
176
1
 90
6
176
1
 90
2
176
1
 62
7
176
1
 90
3
176
1
 90
0
176
1
 90
0
176
1
290
0
176
1
 90
5
176
1
 40
0.0
176
1
 90
0
176
1
290
0
176
1
290
1
176
1
290
1
176
1
290
0
176
1
290
0
176
1
290
0
176
1
290
0
176
1
290
0
176
1
290
0
176
1
 90
50
176
1
 40
0.0
176
1
 40
1.0
176
1
 90
0
176
1
 62
18
176
1
 90
50
176
1
 90
3
176
1
 62
5
420
255
176
1
290
0
176
1
 90
50
176
1
 90
50
176
1
 90
50
176
1
290
0
176
1
 90
50
176
1
 62
256
176
0
 40
1.0
176
0
 90
2
176
1
  1
strokes_ogs.tif
176
1
290
0
176
1
 40
1.0
176
1
 40
1.0
176
1
  0
VISUALSTYLE
  5
1EF
102
{ACAD_REACTORS
330
EF
102
}
330
EF
100
AcDbVisualStyle
  2
Shades of Gray
 70
23
177
3
291
0
 70
58
 90
2
176
1
 90
2
176
1
 90
3
176
1
 90
0
176
1
 40
0.6
176
1
 40
30.0
176
1
 62
7
420
16777215
176
1
 90
2
176
1
 90
2
176
1
 62
7
176
1
 62
7
176
1
 90
1
176
1
 90
1
176
1
 40
40.0
176
1
 90
8
176
1
 62
7
176
1
 40
1.0
176
1
 90
1
176
1
 90
6
176
1
 90
2
176
1
 62
7
176
1
 90
3
176
1
 90
0
176
1
 90
0
176
1
290
0
176
1
 90
1
176
1
 40
0.0
176
1
 90
0
176
1
290
0
176
1
290
1
176
1
290
1
176
1
290
0
176
1
290
0
176
1
290
0
176
1
290
0
176
1
290
0
176
1
290
0
176
1
 90
50
176
1
 40
0.0
176
1
 40
1.0
176
1
 90
0
176
1
 62
18
176
1
 90
50
176
1
 90
3
176
1
 62
5
420
255
176
1
290
0
176
1
 90
50
176
1
 90
50
176
1
 90
50
176
1
290
0
176
1
 90
50
176
1
 62
256
176
0
 40
1.0
176
0
 90
2
176
1
  1
strokes_ogs.tif
176
1
290
0
176
1
 40
1.0
176
1
 40
1.0
176
1
  0
VISUALSTYLE
  5
1F0
102
{ACAD_REACTORS
330
EF
102
}
330
EF
100
AcDbVisualStyle
  2
Sketchy
 70
24
177
3
291
0
 70
58
 90
1
176
1
 90
2
176
1
 90
2
176
1
 90
0
176
1
 40
0.6
176
1
 40
30.0
176
1
 62
7
420
16777215
176
1
 90
2
176
1
 90
2
176
1
 62
7
176
1
 62
7
176
1
 90
1
176
1
 90
1
176
1
 40
40.0
176
1
 90
11
176
1
 62
7
176
1
 40
1.0
176
1
 90
1
176
1
 90
6
176
1
 90
2
176
1
 62
7
176
1
 90
6
176
1
 90
0
176
1
 90
0
176
1
290
0
176
1
 90
1
176
1
 40
0.0
176
1
 90
0
176
1
290
0
176
1
290
1
176
1
290
1
176
1
290
0
176
1
290
0
176
1
290
0
176
1
290
0
176
1
290
0
176
1
290
0
176
1
 90
50
176
1
 40
0.0
176
1
 40
1.0
176
1
 90
0
176
1
 62
18
176
1
 90
50
176
1
 90
3
176
1
 62
5
420
255
176
1
290
0
176
1
 90
50
176
1
 90
50
176
1
 90
50
176
1
290
0
176
1
 90
50
176
1
 62
256
176
0
 40
1.0
176
0
 90
2
176
1
  1
strokes_ogs.tif
176
1
290
0
176
1
 40
1.0
176
1
 40
1.0
176
1
  0
VISUALSTYLE
  5
FC
102
{ACAD_REACTORS
330
EF
102
}
330
EF
100
AcDbVisualStyle
  2
Thicken
 70
13
177
3
291
1
 70
58
 90
2
176
1
 90
2
176
1
 90
1
176
1
 90
0
176
1
 40
0.6
176
1
 40
30.0
176
1
 62
7
420
16777215
176
1
 90
1
176
1
 90
4
176
1
 62
7
176
1
 62
257
176
1
 90
1
176
1
 90
1
176
1
 40
1.0
176
1
 90
12
176
1
 62
7
176
1
 40
1.0
176
1
 90
1
176
1
 90
6
176
1
 90
2
176
1
 62
7
176
1
 90
5
176
1
 90
0
176
1
 90
0
176
1
290
0
176
1
 90
1
176
1
 40
0.0
176
1
 90
0
176
1
290
0
176
1
290
1
176
1
290
1
176
1
290
0
176
1
290
0
176
1
290
0
176
1
290
0
176
1
290
0
176
1
290
0
176
1
 90
50
176
1
 40
0.0
176
1
 40
1.0
176
1
 90
0
176
1
 62
18
176
1
 90
50
176
1
 90
3
176
1
 62
5
420
255
176
1
290
0
176
1
 90
50
176
1
 90
50
176
1
 90
50
176
1
290
0
176
1
 90
50
176
1
 62
256
176
0
 40
1.0
176
0
 90
2
176
1
  1
strokes_ogs.tif
176
1
290
0
176
1
 40
1.0
176
1
 40
1.0
176
1
  0
VISUALSTYLE
  5
F6
102
{ACAD_REACTORS
330
EF
102
}
330
EF
100
AcDbVisualStyle
  2
Wireframe
 70
5
177
3
291
0
 70
58
 90
0
176
1
 90
2
176
1
 90
0
176
1
 90
0
176
1
 40
0.6
176
1
 40
30.0
176
1
 62
7
420
16777215
176
1
 90
1
176
1
 90
4
176
1
 62
7
176
1
 62
257
176
1
 90
1
176
1
 90
1
176
1
 40
1.0
176
1
 90
0
176
1
 62
257
176
1
 40
1.0
176
1
 90
1
176
1
 90
6
176
1
 90
2
176
1
 62
7
176
1
 90
3
176
1
 90
0
176
1
 90
0
176
1
290
0
176
1
 90
1
176
1
 40
0.0
176
1
 90
0
176
1
290
0
176
1
290
1
176
1
290
1
176
1
290
0
176
1
290
0
176
1
290
0
176
1
290
0
176
1
290
0
176
1
290
0
176
1
 90
50
176
1
 40
0.0
176
1
 40
1.0
176
1
 90
0
176
1
 62
18
176
1
 90
50
176
1
 90
3
176
1
 62
5
420
255
176
1
290
0
176
1
 90
50
176
1
 90
50
176
1
 90
50
176
1
290
0
176
1
 90
50
176
1
 62
256
176
0
 40
1.0
176
0
 90
2
176
1
  1
strokes_ogs.tif
176
1
290
0
176
1
 40
1.0
176
1
 40
1.0
176
1
  0
VISUALSTYLE
  5
1F1
102
{ACAD_REACTORS
330
EF
102
}
330
EF
100
AcDbVisualStyle
  2
X-Ray
 70
25
177
3
291
0
 70
58
 90
2
176
1
 90
2
176
1
 90
1
176
1
 90
1
176
1
 40
0.5
176
1
 40
30.0
176
1
 62
7
420
16777215
176
1
 90
1
176
1
 90
0
176
1
 62
7
176
1
 62
257
176
1
 90
1
176
1
 90
1
176
1
 40
1.0
176
1
 90
8
176
1
 62
7
176
1
 40
1.0
176
1
 90
1
176
1
 90
6
176
1
 90
2
176
1
 62
7
176
1
 90
3
176
1
 90
0
176
1
 90
0
176
1
290
0
176
1
 90
13
176
1
 40
0.0
176
1
 90
0
176
1
290
0
176
1
290
1
176
1
290
1
176
1
290
0
176
1
290
0
176
1
290
0
176
1
290
0
176
1
290
0
176
1
290
0
176
1
 90
50
176
1
 40
0.0
176
1
 40
1.0
176
1
 90
0
176
1
 62
18
176
1
 90
50
176
1
 90
3
176
1
 62
5
420
255
176
1
290
0
176
1
 90
50
176
1
 90
50
176
1
 90
50
176
1
290
0
176
1
 90
50
176
1
 62
256
176
0
 40
1.0
176
0
 90
2
176
1
  1
strokes_ogs.tif
176
1
290
0
176
1
 40
1.0
176
1
 40
1.0
176
1
  0
DICTIONARYVAR
  5
146
102
{ACAD_REACTORS
330
5E
102
}
330
5E
100
DictionaryVariables
280
0
  1
1:1
  0
DICTIONARYVAR
  5
259
102
{ACAD_REACTORS
330
5E
102
}
330
5E
100
DictionaryVariables
280
0
  1
3.500000
  0
DICTIONARYVAR
  5
25A
102
{ACAD_REACTORS
330
5E
102
}
330
5E
100
DictionaryVariables
280
0
  1
acadiso.lin
  0
DICTIONARYVAR
  5
145
102
{ACAD_REACTORS
330
5E
102
}
330
5E
100
DictionaryVariables
280
0
  1
STANDARD
  0
DICTIONARYVAR
  5
84
102
{ACAD_REACTORS
330
5E
102
}
330
5E
100
DictionaryVariables
280
0
  1
STANDARD
  0
DICTIONARYVAR
  5
227
102
{ACAD_REACTORS
330
5E
102
}
330
5E
100
DictionaryVariables
280
0
  1
Metric50
  0
DICTIONARYVAR
  5
228
102
{ACAD_REACTORS
330
5E
102
}
330
5E
100
DictionaryVariables
280
0
  1
Metric50
  0
DICTIONARYVAR
  5
5F
102
{ACAD_REACTORS
330
5E
102
}
330
5E
100
DictionaryVariables
280
0
  1
2
  0
DICTIONARYVAR
  5
63
102
{ACAD_REACTORS
330
5E
102
}
330
5E
100
DictionaryVariables
280
0
  1
1
  0
DICTIONARYVAR
  5
1AE
102
{ACAD_REACTORS
330
5E
102
}
330
5E
100
DictionaryVariables
280
0
  1
0
  0
DICTIONARYVAR
  5
1AF
102
{ACAD_REACTORS
330
5E
102
}
330
5E
100
DictionaryVariables
280
0
  1
0
  0
DICTIONARYVAR
  5
3C5
330
3C4
100
DictionaryVariables
280
0
  1
0.17.2 @ 2022-12-09T16:56:23.666109+00:00
  0
DICTIONARY
  5
205
330
22
100
AcDbDictionary
280
1
281
1
  0
DICTIONARY
  5
1F9
330
ED
100
AcDbDictionary
280
1
281
1
  3
FBXASSET
360
1FA
  0
DICTIONARY
  5
1F7
330
EC
100
AcDbDictionary
280
1
281
1
  3
FBXASSET
360
1F8
  0
DICTIONARY
  5
173
330
EE
100
AcDbDictionary
280
1
281
1
  3
BUMPTILE
360
175
  3
DIFFUSETILE
360
174
  3
FBXASSET
360
1FB
  3
OPACITYTILE
360
176
  3
REFLECTIONTILE
360
177
  0
DICTIONARY
  5
162
330
7F
100
AcDbDictionary
280
1
281
1
  3
ACAD_ROUNDTRIP_2008_TABLESTYLE_CELLSTYLEMAP
360
83B
  0
XRECORD
  5
1FA
102
{ACAD_REACTORS
330
1F9
102
}
330
1F9
100
AcDbXrecord
280
1
 70
1
 90
429727718
  1
D62C5603-E3A1-4AEA-B7FB-FE5D8D0755AF
310
504B03040A0000080000CC70623B3DEE336E79000000790000001B0000006175746F6465736B2D64657369676E2D7061636B6167652E786D6C3C3F786D6C2076657273696F6E3D22312E302220656E636F64696E673D227574662D3822203F3E3C666F726D6174733E3C666F726D61743E687474703A2F2F736368656D612E
310
6175746F6465736B2E636F6D2F64657369676E2D7061636B6167652F323030393C2F666F726D61743E3C2F666F726D6174733E504B0304140006080800CC70623BD486FD9CA0000000F4000000130000005B436F6E74656E745F54797065735D2E786D6C7D8EC10E82300C865F65E91D8A1E8C310C0EEA1BF002731658846E
310
D98AC1B77784ABF1D8FE5FBFBF75BBCE937A534CCEB38643598122B6FEE978D0B0485F9C41B54DDD7D022595594E1A469170414C76A4D9A4D207E29CF43ECE46F218070CC6BECC4078ACAA135ACF422C856C0E68EA1BF5669944DDD7BCDE7B1F8E415D77AECB980613C2E4AC91FC167A2B244592486606FC29C8FD7F045B9A
310
EF7053A7E60B504B0304140006080800CC70623B853B8169EB0000007C01000008000000636F72652E786D6C8D90416EC3201045AF62CDB6C206821CC7C244919D9CA01740401C94182C03558F5F9C3852BBEB6A467FFE9B197D7EFC9E1EC5975982F5AE035262288C535E5B377690E21535501C055FBC8FBF6C503839990E
310
5619041F179FE64D52DE45E362569DD7661365082642A11EB9E920A89B99642953CC8E702F67A9EE7234257977194EC9EAE275C4EABCCF5EAD5940D4AC6F0E35A568B8F43562CD7046CD199FD07E60174276A7BE677B5EADB0E0D14EEFFB6A31321A0D82627C4084204C3F096B71DD52F6819B16635EADF63F509AF53FA164
310
5DDCD1EDDD17164090FCC8732078B56691CB33A85CD7DCC40F504B0304140006080800CC70623B55019EA25F0000007C00000007000000636E782E786D6C4DCB3B0E80201045D1AD90E915ED2CF8AC45050C11660C8261F98AB1B07AC9C97D42D718D865D3E909258CFD00CCE24AC6E326A164D74DC0B4128928FF32603847
310
2BA13128B1252AC747C6BAB984FC68F0B87FE8960A5C09FE86CFB69FBA01504B0304140006080800CC70623BDBABAAF470010000D40300000C0000006662782F636F72652E786D6CC553D16E823014FD95A6AF4B694182CC941A83FA05FB810A9511A125A5257EFE2E82712ECEB8A7F100CD39F7F69E734AF9FADC366850B6
310
AF8DCE7018308C942E4C59EB2AC3DE1D498AD15A706B8CFB56869196ADCAF00863C12B6B7C374385D14E6907A836A59A41D9F7CA615434B0C8705F7CAA5606D23BA8E84F41278B93AC54100640439DE0BDB320004D43C63716C7C399D30917DCFBBA9CD9BA8469F5B156168B24CED3F7248AC8769F27244EB73B92EED8862C
310
B7F13E0C179B3C8F979C8ECD82BBBABDAA2BAC924E9558448CBD9330242CFA08E3154B5651FCC6D215639C8EE5774DBE2B5F6CF2B5768B68963BB5F5588420E442FC700B1139D4CB01F450C1E918227C2E09DF070D8140C84E1E9AAB8F1340832A9CB13130A5F1376A908D57309505ECF2A0DF179C4E9D30F5B239B87E3823
310
7A79C6F31DE1A8A5AEC08474B03C7837EAE4938639B44E5932B833D2C6B6B279CDC613877FA26EE21F4A2A4C63EC7F29A2F301D1F9F7A0E37D145F504B0304140006080800CC70623B9C113CC27E0000009D0000000B0000006662782F636E782E786D6C4DCCDF0A83201C86E15B91DFB94BFB330DD428C8FB886521330DA7
310
6397BF1A1DECE883878F57749FCDA1B7892F1BBC047A23808C7F84D9FA55424E0BE6803A256208E9EF06C84F9B91703228B1C690F78B66B34CD9A5439DF5CF0BFBF65E35BCA1B8D6A5C6F540381E886698B5741C695F9503EBA150A2F8958E3DC3EA0B504B0304140006080800CC70623B7DF2F77C2A010000120200003100
310
00006662782F41393633353835312D344632462D344230382D423046372D3739314545314133324237412F636F72652E786D6C8D51DB8EC22014FC15C2939B0D2DB4B45643319AE817EC0F6041255A68B86CFCFC856D4D76DF7CE190393373060EDB3DC707F856CE6B6B7A480A0C81328395DA5C7B18C3057510EC3873D686
310
3F34088C18550F330C39BB3A1BA7051AAC09CA84841A2BD5020AEF55806078A44B0FFD7053A328440C89E1EFC52486BBB8AA8214A99D789CF9E05200300FC927E4FB4D5B375D43103D5527440FB843077C5AA3F5861C8F645F5787F59E95B390B318B55CE45AA638FAA2957BD7248B390B7A7CC51F9C124149C82B8C378810
310
84AB2F42B7B8DD56F413775B8C5999E9FF4471926F8AA236A1AE96B8B3CC434E5839373893369E1FAF30EA395917409EB7F26AF8801C171837A4A6AC9C89E9F9C9B1A58BA30FD6A5EF5DDDCF894B9AD9B6A59C957943A9FCAE2FD5BC4DFE03504B0304140006080800CC70623BAD7543B64E01000033030000300000006662
310
782F41393633353835312D344632462D344230382D423046372D3739314545314133324237412F636E782E786D6CD593CD6EC32010845F0571AD6CE3D48AD20813A9873E410FBD12D82434182C7EAAE6EDBB2424CD25871E7B41D6EC30B3FA84F9E67BB2E40B4234DE8DB46F1925E094D7C6ED479AD3AE5951B2113C789FEE
310
6C943839C1488B4C05DF079FE72A69D8C96C13AAD6B8631503449F83828872B949AC57D26200B826A308D316B4064D6E46FCDA41C05550DC9E483A00797BFD207EFB092A45DE9514C1BBD22178396BD39D891265658C238DEA00936C654E5E433CB65A26D9F6EDB5EBC14EBF49A45CB856E66048291F6939A9A81BB5C89177
310
38143CA680F4AA299D66A042CEB3354A2684DC9D8D178FE0D9B8B41CAAD720F880EE7EF93C0C18769E099ECC04D5A102C8049A8A05632F4DDF376CF1DE0F6BB65C2F8627B65A33C6BB62177CEBBDAD973006829F89F22E814B54F4BC2BE347F8AA8F681390B50FA73F804400B5F542E796F19FF974E7F78DB802FE05E20750
310
4B0304140006080800CC70623BE75B7789680500003C100000340000006662782F41393633353835312D344632462D344230382D423046372D3739314545314133324237412F6F626A656374732E786D6CAD575B8F9B3818FD2B887D06C22499CB8AA1CA655245D5B455A356FB305264C061D8018C6C3393D95FBFC7600890
310
A4CD5EF210B0B1BFEBF98E3F7B1FF6596ABC522E1296DF9BAE3D320D9A872C4AF2F8DE2CE5CEBA358D0FBEC719939D65A691938CDE9B6ADAF4BD98B3B2D05311DD91329583D9D5FC0F438434A7A611A644887B5384CF34233629258BA878B12322891DEFF6B66BD70BFB62634E8AE781D082709A4B588AF91C528CDA28B73F
310
1C998EEF39EABBEFA97FBD6A7C7E9553F9D3D79FE442923C3C523610337627CB87ABE99D359D4CC6D6E4FACAB5E6ABF9D2726FC6A3C5F56271377BB88362213924694B38DD99FE47C48627A1E7D49F5A8BB5E1A74C0A599ED3B0F21F1E56366B89112D681E218F0915D0D6F17AD41FBA2A369DCF6335D62ABBD39779D5DDD1
310
11D4D8DE3CBB96B2E04FB8202E41051754A1AA8E8F76B4C6DFE810B580B1547F4B84911149794252234D024EF8BBE963A95AE27B3D310A9D5C215C7960FAEE415ED75694C6AFB17BCACA5D99A60A9AA65F217B0BFC53292ACB92BF283FAD0D3621576592CB5BED907C2FA8E9DF794E35E97BEA31BED21FEB401ABB94C44839
310
DCACBF0E1C5DA8DA5B2F4DFFD32AD86F543D9E565E7056502E157C00AD2671CD534549AB752FCA9CDA00677A313F04E51B22FF19E57B300579E3C97EB29F682D92935CEC18CF901B7B54FD8C51F362B56FC72FE0B3C1EAE335EDCCBF5AEC39ADB17DC238973F804BA5E6F6BFE7AF1FB32E523BE9F3BD571418E3631DCA4D48
310
5250CF639223210A9446CA30052EDF057BD35F8329C1ECD84552BF0DC8D18BE7BCE23BFE6BD960AB4A7DE79923A103BEBD80F911CBAA2C60DB19B01CF164A5583B772EE6D3FFA56666CBCDA74DC97724A48F9A58967497E489C4D979006FD7A05E227A1EBDD0F737C623387A9C844D3709995625106D157315F8B8392CD4E0
310
A0B9A720C4BE9829CEF37EA1E13111214D53925356365ADA634861B52519DD27A00AEB808EAF0628E6F435519D446F45CF2C9CF5214F0A15B2F6D06B79DA3EE3CBF7F56780D2F4E7EF73A0F5E5B02A38D07DC852C6B7C1FBB6664213E0C39E3EBA7FF4E1AD23EA2829407C85E586727488B751B2DB9502BC7B228A3FD68B6E
310
A65A22397E690AA8D158D7E404EC8CDA235CC3B7D1898680131CEC2CDF2638C65196279577750F15884AEE19F94199155B92B13297978469D4F8D358DF0AEF7631E28DC8F0D9F437D5D39A83B2231A1D52D543813A824EF8D44BCFF2FA6A31BD1E8DAD87F1CCB526B3879935BF59CDADD5C37479BB1CDD4CA7B3556B516589
310
EF352754B706114D9C885EC9131DE6EFEB43D99AFE2391C2F958179413D7CFEF6B1B6DB1E7600F00DE6E5C67454A339A4BA2E0FBA85ED26F045D454F463DBFCE484C2F90F2E5E3666003662ED8F755951A7D1BECD5B30B550B2785C8E7320B7292A4838DDA71BBC863ED7613CAF659337A3354231D4FF4A182A54904C2898C
310
98B28C4AD0CE056CCF332A80986E571EE9DBC305BB5FEB7E509220A58D25CF042D712A806AC0AD0C657FDEF80D2D9CEAA2EE4D1C76F60BFE74219A06527D6F82DF6412526107381E55E353090704D085B52408A8913C4ED159D79BDA71BB4BC506F4831350EB6F975CD22D69BF7AC49B91A2C0A9DDA3D5CA36AD20FC478E37
310
E61844E2352865EBCB61A275A65283CAAA9DD27703B4102F5AF51EF5F573B75CBB5AD38BC845F7A49F82A0966A49C2E3EA5EA0ECD326CD965F1DB402C6FA8B51A4658C5C5E2EC9E214602E55810345408596591009A82E7E7FFACA19EEA299B14A0081A705CB3296EBC14CDF658DCD336EA6D1136881AAEB87B81AB9EE53D5
310
F5EB8BC8362082DA24122F98680A4E7930C01A0079749CEA14382A0783E5EBA5A10F8C098456A03D6A4AEB6BB881E2513747552A5DB22C7EDAF83BD5528081A365F7FF06504B0304140006080000CC70623B000000000000000000000000350000006662782F41393633353835312D344632462D344230382D423046372D37
310
39314545314133324237412F76657274696365732E62696E504B0304140006080800CC70623BF270F1330600000004000000360000006662782F41393633353835312D344632462D344230382D423046372D3739314545314133324237412F747269616E676C65732E62696E636660600000504B0304140006080000CC7062
310
3B000000000000000000000000370000006662782F41393633353835312D344632462D344230382D423046372D3739314545314133324237412F617474726962757465732E62696E504B0304140006080800CC70623B08DA0BD19000000041010000360000006662782F41393633353835312D344632462D344230382D4230
310
46372D3739314545314133324237412F6469726563746F72792E786D6C858F410AC3201045AF22B36F53E9A60B35CBEEBAE80D244E44489C6234F4F835464A48035D0DF398FF9F8AF63D0E6CC63039F212F8F9020C7D47C6792B21C5FE7403D62A1188E2E60C98D7234A5830286103A55745067B9D86B8A3CF9C7F90C11DE6
310
07FB144396D7B6A82D282E9A152AD114D5EF2CB866EEE831B8EEA07A7BB5A8D7D61A2BAAEB7FD5F70921FF497D00504B0304140006080800CC70623BEDD1DC58FD000000A00100003B0000006662782F41393633353835312D344632462D344230382D423046372D3739314545314133324237412F7265736F75726365732F
310
636F72652E786D6C8D504B6E833010BD0A9A6D65B00922041947112427E8052C33A156828DFCA97AFC9A40A576D7CDCCE87D344F8F9FBFE667F689CE6B6B3A6039850C8DB2A336530731DC4903D95970676DF82583CCC8193B5861107C72362E3BA4AC096842428D1D7107A5F7182053CF7474E0D507CE32973124857FE48B
310
540F3961CEF244279DE03EB81420DB9EAC1384436FA353E879B1B182C7A8C75DA3C7F453DF353A1075D537A7BA6464B8F535A99AE14A9A2BBD90E350DD183B5CFABE3AF262350B1EF4FC9351399401471025A527C218A1E53BAB5A5AB765F5469B96525EACF23FA6B88CFF34456DC2A1DCE36E360F82A5202F42F062ED2BAD
310
579969AFDD8A6F504B010214000A0000080000CC70623B3DEE336E79000000790000001B00000000000000000000000000000000006175746F6465736B2D64657369676E2D7061636B6167652E786D6C504B01021400140006080800CC70623BD486FD9CA0000000F40000001300000000000000000000000000B20000005B
310
436F6E74656E745F54797065735D2E786D6C504B01021400140006080800CC70623B853B8169EB0000007C010000080000000000000000000000000083010000636F72652E786D6C504B01021400140006080800CC70623B55019EA25F0000007C000000070000000000000000000000000094020000636E782E786D6C504B
310
01021400140006080800CC70623BDBABAAF470010000D40300000C00000000000000000000000000180300006662782F636F72652E786D6C504B01021400140006080800CC70623B9C113CC27E0000009D0000000B00000000000000000000000000B20400006662782F636E782E786D6C504B01021400140006080800CC70
310
623B7DF2F77C2A010000120200003100000000000000000000000000590500006662782F41393633353835312D344632462D344230382D423046372D3739314545314133324237412F636F72652E786D6C504B01021400140006080800CC70623BAD7543B64E010000330300003000000000000000000000000000D2060000
310
6662782F41393633353835312D344632462D344230382D423046372D3739314545314133324237412F636E782E786D6C504B01021400140006080800CC70623BE75B7789680500003C10000034000000000000000000000000006E0800006662782F41393633353835312D344632462D344230382D423046372D3739314545
310
314133324237412F6F626A656374732E786D6C504B01021400140006080000CC70623B0000000000000000000000003500000000000000000000000000280E00006662782F41393633353835312D344632462D344230382D423046372D3739314545314133324237412F76657274696365732E62696E504B01021400140006
310
080800CC70623BF270F133060000000400000036000000000000000000000000007B0E00006662782F41393633353835312D344632462D344230382D423046372D3739314545314133324237412F747269616E676C65732E62696E504B01021400140006080000CC70623B0000000000000000000000003700000000000000
310
000000000000D50E00006662782F41393633353835312D344632462D344230382D423046372D3739314545314133324237412F617474726962757465732E62696E504B01021400140006080800CC70623B08DA0BD1900000004101000036000000000000000000000000002A0F00006662782F41393633353835312D344632
310
462D344230382D423046372D3739314545314133324237412F6469726563746F72792E786D6C504B01021400140006080800CC70623BEDD1DC58FD000000A00100003B000000000000000000000000000E1000006662782F41393633353835312D344632462D344230382D423046372D3739314545314133324237412F7265
310
736F75726365732F636F72652E786D6C504B0506000000000E000E0080040000641100000000
  0
XRECORD
  5
1F8
102
{ACAD_REACTORS
330
1F7
102
}
330
1F7
100
AcDbXrecord
280
1
 70
1
 90
429727718
  1
30362254-06B7-45E0-A893-8CFA70E3D6BC
310
504B03040A0000080000CC70623B3DEE336E79000000790000001B0000006175746F6465736B2D64657369676E2D7061636B6167652E786D6C3C3F786D6C2076657273696F6E3D22312E302220656E636F64696E673D227574662D3822203F3E3C666F726D6174733E3C666F726D61743E687474703A2F2F736368656D612E
310
6175746F6465736B2E636F6D2F64657369676E2D7061636B6167652F323030393C2F666F726D61743E3C2F666F726D6174733E504B0304140006080800CC70623BD486FD9CA0000000F4000000130000005B436F6E74656E745F54797065735D2E786D6C7D8EC10E82300C865F65E91D8A1E8C310C0EEA1BF002731658846E
310
D98AC1B77784ABF1D8FE5FBFBF75BBCE937A534CCEB38643598122B6FEE978D0B0485F9C41B54DDD7D022595594E1A469170414C76A4D9A4D207E29CF43ECE46F218070CC6BECC4078ACAA135ACF422C856C0E68EA1BF5669944DDD7BCDE7B1F8E415D77AECB980613C2E4AC91FC167A2B244592486606FC29C8FD7F045B9A
310
EF7053A7E60B504B0304140006080800CC70623B1EC5D7A3EB0000007C01000008000000636F72652E786D6C8D90416EC3201045AF82665B6103C6756C6122AB4D4ED00B204C5C94182C03558F5F9C3852BBEB6A467FFE9B197D71FC9E6FE8CBACC17AD7032D0820E3B41FAD9B7A48F1820F808E52ACDEC75F36404ECDA687
310
4D0629A6D5A76597B477D1B89855E747B38B2A041301E95B6E7A08FAD3CCAA50296647B8168BD2573599823EBB0CA76447F43862C7BCCF5EAC59410E4DDD9C7973C2755553CCCFA4C603E3040F1565ED3B1FDE4E432BCA0D9622DAF9795FAF464533826484B498524CD807E51D79ED187F21878E10516EF63F505AC67F42C9
310
BA58B1FDDD071640D2FCC87D2045B96591CB3DA85CB7DCE40F504B0304140006080800CC70623B55019EA25F0000007C00000007000000636E782E786D6C4DCB3B0E80201045D1AD90E915ED2CF8AC45050C11660C8261F98AB1B07AC9C97D42D718D865D3E909258CFD00CCE24AC6E326A164D74DC0B4128928FF32603847
310
2BA13128B1252AC747C6BAB984FC68F0B87FE8960A5C09FE86CFB69FBA01504B0304140006080800CC70623B8C9102E971010000D40300000C0000006662782F636F72652E786D6CC5535B6E833010BC8AE5DF0A6C08340F1947A84D4ED00B38C6A128602363A31CBFCB234A53A551FA553EC09AD9F5CE8C31DB9E9B1AF5CA
310
7695D1198E428A91D2D214952E33ECDD315861B4E5CC1AE3BE9561A445A3323CC098B3D21ADFCE9034DA29ED00D5A6503328BA4E398C640D8B0C77F253352214DE4145770A5B214FA2546114020D759C75CE8200340D19DE981F0F6746269C33EFAB6266AB02A655C74A59CCF365BADC27CB5D902ED22848F6340DF238A141
310
BE88E2F57B92BFEDF23523433367AE6A2EEAA455C2A902F398D2751045018D3FA264435F3771F242571B4A1919CA6F9A7C5B3CD9E42BED16F12C776AEB308F40C848FC700B1139D4891EF410CEC810227CC6846F8386402064270EF5C5C709A05E49676C024C61FC95EA45ED154CA5211D1FF4FB8291A913A68E9B83EBBB33
310
E2A7673CDE118E5AE8124C0807CB8377834E366998436B950D7A7746DAD846D4CFD978E0F04FD455FC5D49D2D4C6FE9722321F10997F0F32DC47FE05504B0304140006080800CC70623BFFEA85907E0000009D0000000B0000006662782F636E782E786D6C4DCCD10A83201886E15B91FFDC95D95A811AB6F23E625948A6C3
310
E9D8E5AF46073BFAE0E1E365ED67B3E8ADC3CB78C7815C7240DA3DFC64DCC221C519D7805AC182F7F1EF06C88D9BE6703008B6049F9E274D7A1E938DBB5AE3D6131B2589BA0D3D965551E0B2EA732C9B9A624AAEB41E3A557677029960D9AFB4EF11165F504B0304140006080800CC70623B4FEEA4082C0100001202000031
310
0000006662782F39464131463745442D413632322D343644302D413938332D3331353338454246344243312F636F72652E786D6C8D515B6EC32010BC0AE2AB55850DD871ED0813254D72825EC00192A2C460F1A872FC42ED48ED5F7E00CDCECCCEB26C731F6FE05B39AFADE921293004CA082BB5B9F43086336A21D870E6AC
310
0D7F68109861543DCC30E4ECE26C9C164858139409093556AA051CBC570102714B8F1E7AF1A5C6A11862480C7F2DA6415C878B2A4891CA89C7990F2E050073937C42DE1DB7E4F87ED8A36D4329AA9B3D46DBAEAD504556557BD81DEBDD0761E52CE42C462D17B996298E3E6BE59E35C962CE821E1FF18553435012728A7187
310
0841987E927A8D9B35ADDF70BBC6989599FE4F1427F9A4286A132ABAC49D651EF234CD5CE04CDA78BA3DC2A8FB645D00B9DF8B57E215725C60BCA2A463E54C4CE327C7A65E1C7DB02E7DEFCBF594B864C5CA6CDBD49C957943E9FA5D5FBAF336F90F504B0304140006080800CC70623BAD7543B64E01000033030000300000
310
006662782F39464131463745442D413632322D343644302D413938332D3331353338454246344243312F636E782E786D6CD593CD6EC32010845F0571AD6CE3D48AD20813A9873E410FBD12D82434182C7EAAE6EDBB2424CD25871E7B41D6EC30B3FA84F9E67BB2E40B4234DE8DB46F1925E094D7C6ED479AD3AE5951B2113C
310
789FEE6C943839C1488B4C05DF079FE72A69D8C96C13AAD6B8631503449F83828872B949AC57D26200B826A308D316B4064D6E46FCDA41C05550DC9E483A00797BFD207EFB092A45DE9514C1BBD22178396BD39D891265658C238DEA00936C654E5E433CB65A26D9F6EDB5EBC14EBF49A45CB856E66048291F6939A9A81BB5
310
C8917738143CA680F4AA299D66A042CEB3354A2684DC9D8D178FE0D9B8B41CAAD720F880EE7EF93C0C18769E099ECC04D5A102C8049A8A05632F4DDF376CF1DE0F6BB65C2F8627B65A33C6BB62177CEBBDAD973006829F89F22E814B54F4BC2BE347F8AA8F681390B50FA73F804400B5F542E796F19FF974E7F78DB802FE05
310
E207504B0304140006080800CC70623B16AB87BA640500003C100000340000006662782F39464131463745442D413632322D343644302D413938332D3331353338454246344243312F6F626A656374732E786D6CAD575B6FA33818FD2B887DE6924B3BED8A326A92B68A663B534DD4D13E548A0C38942D60649B369D5FBFC7
310
600890A493BDE42160637FD7F31D7FF63E6FB3D478A55C242CBF3247B66B1A340F5994E4F19559CA8D75611A9F7D8F33263BCB4C232719BD32D5B4E97B316765A1A722BA21652A07B3B7B33F0D11D29C9A46981221AE4C113ED38CD8A4942CA2E2C58E882476BCD9DA23BB5ED8171B73523C0F841684D35CC252CCE79062D4
310
468DFA43D7747CCF51DF7D4FFDEB5593E3AB9CCA9FBEFE241792E4E19EB28198C968BAB8199F5D5A67D3E9C49A9E8F47D6EC76B6B0469F26EEFC7C3EBFBCBEB98462213924694B38DD98FE1D62C393D073EA4FADC5DAF04326852CCF6958F90F0F2B9BB5C48816348F90C7840A68EB78EDF68723159BCEE7891A6B95DDE9D3
310
BCEAEEE8086A6C6F9E5D4B59F0175C10A7A0820BAA5055C7473B5AE3CFDD452D602CD5DF12616444529E90D448938013FE6EFA58AA96F85E4F8C42275708571E98FE6827AF6B2B4AE3D7D83D64E5A64C53054DD3AF90BD06FEA9149565C94FCA0F6B834DC85599E4F2423B24DF0B6AFA979E534DFA9E7A4CC6FA631D486393
310
921829879BF5D781A373557BCB85E97FB90DB62B558F8795179C15944B051F40AB495CF35451D26A4727654E6D8033BD98EF82F21D91FF8AF2DD9982BCF1643BDD4EB516C9492E368C67C88DED563FC36D5EACF66DFF057C3658BDBFA69DF9578B3DA735B64F18C7F20770A9D45CFCF7FCF563D6456A277DBEF78A02637CA2
310
43B90A490AEAB94F72244481D24819A6C0E59B606BFA4B3025981DBB48EAB701D97BF19C577CC77F2D1B6C55A9EF3C732474C0B727303F625995056C3B02963D9EAC146BE78EC5FCEC7FA999EBC5EACBAAE41B12D27B4D2C0BBA49F244E2ECDC81B76B502F113D8F5EE8FB1BE3111CDD4FC2AA9B844CAB1288B68AB90A7CDC
310
1C166AB0D3DC5310625FCC14E779BFD0709F8890A629C9292B1B2DED31A4B0DA928CEE135085754027E3018A397D4D5427D15BD1330B677DC8934285AC3DF45A9EB68FF8F2B8FC0A509AFEECFD0FF2DE25CC6047F7214B195F07EFEB9A094D800F7BFAE8FED187B78EA8A3A400F115961BCAD1215E47C966530AF0EE8128FE
310
58CEBB996A8964FFA529A046635D9353B0336A8F700DDF46271A024E70B0B37C9DE01847591E54DED53D54202AB947E4076556AC49C6CA5C9E1226B7F1A7B1BE15DEED62C41B91E1B3E9AFAAA735036547343A925075041DF0A9979E893B391F8FCFA6967B3EFB644DCF6E5CEBFAE272625DCC6FAF3FB93793C5F90CE1EF57
310
407342756B10D1C489E8953CD1617E5CEECAD6F4EF8914CE5D5D504E5C3F1F9736DA62CFC11E00BCDDB8CC8A9466349744C1F75EBDA4DF09BA8A9E8C7A7E9991989E20E5DBDD6A6003664ED8F7A04A8DBE0DF6EAD9B9AA858342E47399053949D2C146EDB85DE4B176BB0965FBAC19BD19AA918E27FA50C1D22402E144464C
310
59462568E704B6E71915404CB72B8FF4EDE184DDAF753F284990D2C6926782963815403548A70C657FDEF80D2D9CEAA2AE4C1C76F60BFE74219A06527D6582DF6412526107381E55E353090704D085B52408D0933C4ED159D79BDA71BB4BC506F4831350EB6F979CD22D69BF7AC49B91A2C0A9DDA3D5CA36AD20FC478E37E6
310
1844E2352865EBCB6EA275A652E3836BE04EFB400BF1A2556F515F1FBB35B2AB35BD889C744FFA1004B5544B121E57F70215746DD2F5E2C1412B602CBF19455AC6C8E5E9922C4E01E65215385004546899059180EAFCF7A707CE7017CD8CDB0410789AB32C63B91E5CEBBBACB17AC6CD347A022D5075FD106377347AAABA7E
310
7D11590744509B44E205134DC1290F06580320F78E537D3D73540E06CB970B431F185308AD40BBD794D6D77003C5A36E8EAA54BA64597CD8F83BD552A080A365F7FF06504B0304140006080000CC70623B000000000000000000000000350000006662782F39464131463745442D413632322D343644302D413938332D3331
310
353338454246344243312F76657274696365732E62696E504B0304140006080800CC70623BF270F1330600000004000000360000006662782F39464131463745442D413632322D343644302D413938332D3331353338454246344243312F747269616E676C65732E62696E636660600000504B0304140006080000CC70623B
310
000000000000000000000000370000006662782F39464131463745442D413632322D343644302D413938332D3331353338454246344243312F617474726962757465732E62696E504B0304140006080800CC70623B08DA0BD19000000041010000360000006662782F39464131463745442D413632322D343644302D413938
310
332D3331353338454246344243312F6469726563746F72792E786D6C858F410AC3201045AF22B36F53E9A60B35CBEEBAE80D244E44489C6234F4F835464A48035D0DF398FF9F8AF63D0E6CC63039F212F8F9020C7D47C6792B21C5FE7403D62A1188E2E60C98D7234A5830286103A55745067B9D86B8A3CF9C7F90C11DE607
310
FB144396D7B6A82D282E9A152AD114D5EF2CB866EEE831B8EEA07A7BB5A8D7D61A2BAAEB7FD5F70921FF497D00504B0304140006080800CC70623B0D6EF93BFE000000A00100003B0000006662782F39464131463745442D413632322D343644302D413938332D3331353338454246344243312F7265736F75726365732F63
310
6F72652E786D6C8D50596E833010BD0A9ADFCA60B334011947A8694ED00B586642AC041B79A97AFC9A40A5F6AF3F33A3B7689E1E3F7DCD8FEC139DD7D6F4C0720A191A65476DA61E62B892236427C19DB5E1970C322367EC618541F0C9D9B8EC90B226A009093576C41D94DE63804C3DD2D18357379C652E63480A7FCF17A9
310
EE72C29CE5894E3AC17D702940B63D59270887DE46A7D0F36263058F518FBB468FE9A7BE6A7420864373B8D4873369AA8691FA421B3294352543C5CAF65C0F6FEF43CB8BD52C78D0F34F46E550061C419494B6843142CB0F5677F4B52BEB177AEC28E5C52AFF638ACBF84F53D42654E51E77B379102C05791282176B5F693D
310
CB4C7BED567C03504B010214000A0000080000CC70623B3DEE336E79000000790000001B00000000000000000000000000000000006175746F6465736B2D64657369676E2D7061636B6167652E786D6C504B01021400140006080800CC70623BD486FD9CA0000000F40000001300000000000000000000000000B20000005B
310
436F6E74656E745F54797065735D2E786D6C504B01021400140006080800CC70623B1EC5D7A3EB0000007C010000080000000000000000000000000083010000636F72652E786D6C504B01021400140006080800CC70623B55019EA25F0000007C000000070000000000000000000000000094020000636E782E786D6C504B
310
01021400140006080800CC70623B8C9102E971010000D40300000C00000000000000000000000000180300006662782F636F72652E786D6C504B01021400140006080800CC70623BFFEA85907E0000009D0000000B00000000000000000000000000B30400006662782F636E782E786D6C504B01021400140006080800CC70
310
623B4FEEA4082C0100001202000031000000000000000000000000005A0500006662782F39464131463745442D413632322D343644302D413938332D3331353338454246344243312F636F72652E786D6C504B01021400140006080800CC70623BAD7543B64E010000330300003000000000000000000000000000D5060000
310
6662782F39464131463745442D413632322D343644302D413938332D3331353338454246344243312F636E782E786D6C504B01021400140006080800CC70623B16AB87BA640500003C1000003400000000000000000000000000710800006662782F39464131463745442D413632322D343644302D413938332D3331353338
310
454246344243312F6F626A656374732E786D6C504B01021400140006080000CC70623B0000000000000000000000003500000000000000000000000000270E00006662782F39464131463745442D413632322D343644302D413938332D3331353338454246344243312F76657274696365732E62696E504B01021400140006
310
080800CC70623BF270F133060000000400000036000000000000000000000000007A0E00006662782F39464131463745442D413632322D343644302D413938332D3331353338454246344243312F747269616E676C65732E62696E504B01021400140006080000CC70623B0000000000000000000000003700000000000000
310
000000000000D40E00006662782F39464131463745442D413632322D343644302D413938332D3331353338454246344243312F617474726962757465732E62696E504B01021400140006080800CC70623B08DA0BD190000000410100003600000000000000000000000000290F00006662782F39464131463745442D413632
310
322D343644302D413938332D3331353338454246344243312F6469726563746F72792E786D6C504B01021400140006080800CC70623B0D6EF93BFE000000A00100003B000000000000000000000000000D1000006662782F39464131463745442D413632322D343644302D413938332D3331353338454246344243312F7265
310
736F75726365732F636F72652E786D6C504B0506000000000E000E0080040000641100000000
  0
XRECORD
  5
175
102
{ACAD_REACTORS
330
173
102
}
330
173
100
AcDbXrecord
280
1
270
1
271
1
  0
XRECORD
  5
174
102
{ACAD_REACTORS
330
173
102
}
330
173
100
AcDbXrecord
280
1
270
1
271
1
  0
XRECORD
  5
1FB
102
{ACAD_REACTORS
330
173
102
}
330
173
100
AcDbXrecord
280
1
 70
0
 90
1673772943
  1
ECE7A1D2-D628-4531-984C-D00F80459256
310
504B03040A0000080000CC70623B3DEE336E79000000790000001B0000006175746F6465736B2D64657369676E2D7061636B6167652E786D6C3C3F786D6C2076657273696F6E3D22312E302220656E636F64696E673D227574662D3822203F3E3C666F726D6174733E3C666F726D61743E687474703A2F2F736368656D612E
310
6175746F6465736B2E636F6D2F64657369676E2D7061636B6167652F323030393C2F666F726D61743E3C2F666F726D6174733E504B0304140006080800CC70623BD486FD9CA0000000F4000000130000005B436F6E74656E745F54797065735D2E786D6C7D8EC10E82300C865F65E91D8A1E8C310C0EEA1BF002731658846E
310
D98AC1B77784ABF1D8FE5FBFBF75BBCE937A534CCEB38643598122B6FEE978D0B0485F9C41B54DDD7D022595594E1A469170414C76A4D9A4D207E29CF43ECE46F218070CC6BECC4078ACAA135ACF422C856C0E68EA1BF5669944DDD7BCDE7B1F8E415D77AECB980613C2E4AC91FC167A2B244592486606FC29C8FD7F045B9A
310
EF7053A7E60B504B0304140006080800CC70623BD9DDAED0EC0000007C01000008000000636F72652E786D6C8D90416EC3201045AF82665B61836D9CD8C2444DD39CA01740405C94182C03558F5F9C3852BBEB6A467FFE9B197D7EF89E6EE8CB2CC17A37002D0820E394D7D68D03A478C17B4007C117EFE32F1B20272733C0
310
2A83E0E3E2D3BC49CABB685CCCAAF3DA6CA20CC14440EA969B0182FA34932C648AD911AEC52CD5558EA6A0CF2EC329598D1E47ACCEFBECC59A050463A7EA5833865FEBDD0E37353BE3EE8DBDE3F6786A48D375FBF6CC78B9C282473B3DEFABC5C86834888A900E538A49F5419B9EB47DD5BC907D4F082F57FB1F28CDFA9F50
310
B22ED6D5F6EE030B20687EE43E10BC5CB3C8E51E54AE6B6EE207504B0304140006080800CC70623B55019EA25F0000007C00000007000000636E782E786D6C4DCB3B0E80201045D1AD90E915ED2CF8AC45050C11660C8261F98AB1B07AC9C97D42D718D865D3E909258CFD00CCE24AC6E326A164D74DC0B4128928FF326038
310
472BA13128B1252AC747C6BAB984FC68F0B87FE8960A5C09FE86CFB69FBA01504B0304140006080800CC70623BA24EB22D72010000D40300000C0000006662782F636F72652E786D6CC5535B6E833010BC8AE5DF0A6C5E49888CA3A6694ED00B38E05014B091B1518EDFE511A5A9D228FD2A1F60CDEC7A67C6986DCE4D8D7A
310
69BA4AAB0C073EC548AA5C17952A33ECECD15B61B4E1CC686DBF9561A44423333CC098B3D268D7CE50AE9595CA02AA74216750749DB418E5352C32DCE59FB211BE70162ABA93DF8AFC244AE9073ED050C759670D0840D390E18DF9F1706664C23973AE2A66B62A605A75ACA4C13C4976E1364A12EF355A2EBD384AF65EFA96
310
BC7B8BED2EA6719AAE16FB8491A199335B351775B991C2CA02F390D2D40B028F861F41BCA68B7518BFD0D59A524686F29B26D7164F36B94AD9289CE54E6D1DE6010819891F6E21228B3AD1831EC219194284CF98F06DD01008846CC5A1BEF83801D4CBDC6A1303536877A57A513B0953A94FC707FDBE6064EA84A9E3E6E0FA
310
EE8CF0E9198F7784A316AA0413C2C2F2E0ECA0934D1AE6D05A69BCDE9E91D2A611F573361E38FC1375157F5752AE6B6DFE4B11990F88CCBF0719EE23FF02504B0304140006080800CC70623B408A7D3B7C0000009D0000000B0000006662782F636E782E786D6C4DCCD10A83201886E15B91FFDC552A92A0064DBC8F581632
310
D3703A76F9ABD1C18E3E78F878E5F0D9027ABBFCF2292AE86E2D20171F69F6715550CB827B40839639A5F2770314A7CD293819B45C73AAFB45B35BA61ACAA1C1C7E7855C58C15BC331339661262CC762340413D68D77DA5B42298546CBE6573AF60CEB2F504B0304140006080800CC70623B449FB9BD290100001202000031
310
0000006662782F36394639363044362D344446342D343946362D394244322D3234314243333846323333332F636F72652E786D6C8D515B6EC32010BC0AE22B55850D98B871848994463E412FE002495162B07854397EA176A4F62F3F2C9A9D991D587EB84F37F0AD7D30CEF6905418026DA553C65E7A98E219ED203808EE9D
310
8B7F6810D871D23D2C3014FCE25D9A57483A1BB58D19B54EE9151C43D0110279CB971E06F9A5A7B11A53CC8C70ADE6515EC78BAE4895DB992778883E0700CB907242D17643D7E2538BD869608875438BBAE38922CAC8F1BDD90DB4691A5E2F42C153326A951B95E398B3D1FE599322163C9AE9115F7A3D46ADA0A018778810
310
84E907617BDCEE297BC5BB3DC6BC2EF47FA234AB2745C9D8D8D035EE220B50105E2F0DC1954B9FB747187D9F9D8FA0CCDB042D5FA0C015C65B42DF78BD10F3F3B363CB56C7109DCFDFBBB97E662ED92EB62D13BC2E1BCAE5777DB9966D8A1F504B0304140006080800CC70623BAD7543B64E01000033030000300000006662
310
782F36394639363044362D344446342D343946362D394244322D3234314243333846323333332F636E782E786D6CD593CD6EC32010845F0571AD6CE3D48AD20813A9873E410FBD12D82434182C7EAAE6EDBB2424CD25871E7B41D6EC30B3FA84F9E67BB2E40B4234DE8DB46F1925E094D7C6ED479AD3AE5951B2113C789FEE
310
6C943839C1488B4C05DF079FE72A69D8C96C13AAD6B8631503449F83828872B949AC57D26200B826A308D316B4064D6E46FCDA41C05550DC9E483A00797BFD207EFB092A45DE9514C1BBD22178396BD39D891265658C238DEA00936C654E5E433CB65A26D9F6EDB5EBC14EBF49A45CB856E66048291F6939A9A81BB5C89177
310
38143CA680F4AA299D66A042CEB3354A2684DC9D8D178FE0D9B8B41CAAD720F880EE7EF93C0C18769E099ECC04D5A102C8049A8A05632F4DDF376CF1DE0F6BB65C2F8627B65A33C6BB62177CEBBDAD973006829F89F22E814B54F4BC2BE347F8AA8F681390B50FA73F804400B5F542E796F19FF974E7F78DB802FE05E20750
310
4B0304140006080800CC70623B8D05915C650500003B100000340000006662782F36394639363044362D344446342D343946362D394244322D3234314243333846323333332F6F626A656374732E786D6CAD575B6FA33814FE2B887D06429276DA1565D4266D158D3A339A6846FB502932E050B66023DB74D2FDF5FB190C01
310
9276B2973C046C8ECFF53B17071F77456EBD502133CEAE6CDF9DD81665314F32965ED995DA3A17B6F5310C04E7AA47665B8C14F4CAD6DB7618A48257A5D94AE89654B91AEDDEDDFC61C998326A5B714EA4BCB265FC440BE2924AF184CA6737218AB8E976E7FA6E4338649B0A523E8D98964450A6A029F619B8588D52FE7039
310
B1BD30F0F4F730D0FF866AF6369557DB33949F31A9088B0F848DD8CCFCF9F2767A76E99CCDE733677E3EF59D9BBB9BA5E37F984D16E78BC5E5F5ED25044B25C0C96822E8D60EEFE11B91C581D77CEA34368A1F5329E68CD1B8B61F16D63A1B8E092D294B10C78C4A48EB593D192E7DED9BDEE7995E1B91FDEDD3ACEA9FE831
310
6A756F9F7D4D79F4274C90A7A04248AA51D5F8C718DAE06FB2F75AC4796EBE65D22A88A22223B995679120E2D50E41AA49C260C046A35368846B0BECD0DFF3EBEB8AD4F835768F69B9ADF25C43D30E6B646F807FAA64AD59F61715C7A54127C4AACA98BA3006A9D792DAE165E0D59B61A01FB3A9F9D838D2DAE62445C86166
310
F37564E842E7DE6A69879FEEA2DD5AE7E371E1A5E025154AC307D06A03D73EB5978C58FFA4C8E9033066E0F3BD53BEC1F39F91BE7B55103791EDE6BBB991A2046172CB4581D8B893FA674DDA17A77B3B7C413D1B511FD2743BFF8A38F03A658705E3ADF8015C3A3417FF3D7E439FF591DA0B5F18BC20C1B8981957AE6392A3
310
F43C640C01D1A0B4728E2DD4F26DB4B3C3152A252A3B4E913CEC1C72F012782FF88EFF8637AA552DBEF76408E8A8DE9E50F9E1CB3A2DA0DB1B6039A893B56063DC5B3E3FFB5F72E67AB9FEB4AEC496C4F4C1149625DD662C53E89D7BF0F6151A046260D1337DFDC94502430F83B0EE07A130A224BCAD7DAE1D9FB6CD422FF6
310
920702629C4BB9AE79C12F243C6432A6794E18E5552BA56B431AAB5D91317302B2B071E86C3A42B1A02F999E24061403B5D0EB639195DA655DD3EBEAB4FB862DDF579F014AD0E73C22F99E28DA57FB98E75C6CA2D74D53086D600F4786E0FE3144B771A8A7B900F03594DB8A633CBC49B2EDB69228BB479CF863B5E807AAAB
310
23872F6DFEB4129B949CA33823F58830E86D65621E10047D9DB34D862E8EAC3C2ABC2F7B2C40D67CDFE01F5545B92105AF983AC54D93D69E56FB8E797F88913F898A9FEC705D3F9D1B54EC8426FB500D40A03BD0119B06E1B95DDC7EB8F6975367793EBD70E66733DFB9BC982F9CE564727731999F5D4ECFCE3B8D6A4DC2A0
310
6D50FD148437D110834A64C6CDDF57FBACB5C307A2A477DFE4939736CFEF2B175371E0E10CF0DD1D5C15654E0BCA14D1E87DD02FF93782A162C0A3D95F1524A52770F972BF1EE9809D13CE7DD599467F8ECE9ADD85CE85A34CD45355448C64F9E8A031DC2D596ACC6E5DD93D9B82DE2EF5CAF81363A8E47996A0DE24564A79
310
4115AACE09C55E14540231FDA13C319787134EBF34E3A022514E5B4D9E0826E25C02D5805B15ABE1BEF51B26383D445DD9E875EE33FE4C22DA16427D65A3BCA92CA6D28DD01DF5DC53330704308475351050232CCD31583787BA75774AFB06E5070DD0C8EF484E19968C5D83BA5B90B244D31E54D55A372320FE4786B7EA58
310
44E135AA5467CB7EA333A61683CC6A8C3257034C10CF46F40EF9F5BE59BE5BD30C3C72D235E95D10345C1D45445A5F0BB47E46A5EBE5570F9380B5FA629579952296A773720405982B9DE04011506178964401AA8BDF1FBF0A8EAB6861DD6580C0E38217056766716DAEB2D6FA0917D3E4116581EADB879C4E7CFFB11EFACD
310
3D641311495D92C8676CB409A72D18610D803CE8A626049E8EC1887CB5B44CC39883690DDA8399B4B9855B481E7D71D4A9D22F96E5BB73BF5793020C02137BF837504B0304140006080000CC70623B000000000000000000000000350000006662782F36394639363044362D344446342D343946362D394244322D32343142
310
43333846323333332F76657274696365732E62696E504B0304140006080800CC70623BF270F1330600000004000000360000006662782F36394639363044362D344446342D343946362D394244322D3234314243333846323333332F747269616E676C65732E62696E636660600000504B0304140006080000CC70623B0000
310
00000000000000000000370000006662782F36394639363044362D344446342D343946362D394244322D3234314243333846323333332F617474726962757465732E62696E504B0304140006080800CC70623B08DA0BD19000000041010000360000006662782F36394639363044362D344446342D343946362D394244322D
310
3234314243333846323333332F6469726563746F72792E786D6C858F410AC3201045AF22B36F53E9A60B35CBEEBAE80D244E44489C6234F4F835464A48035D0DF398FF9F8AF63D0E6CC63039F212F8F9020C7D47C6792B21C5FE7403D62A1188E2E60C98D7234A5830286103A55745067B9D86B8A3CF9C7F90C11DE607FB14
310
4396D7B6A82D282E9A152AD114D5EF2CB866EEE831B8EEA07A7BB5A8D7D61A2BAAEB7FD5F70921FF497D00504B0304140006080800CC70623BCA768048FE000000A00100003B0000006662782F36394639363044362D344446342D343946362D394244322D3234314243333846323333332F7265736F75726365732F636F72
310
652E786D6C8D50596E833010BD0A9ADFCA60D600328E9AA639412F609909B1126CE4A5EAF16B0295DABFFECC8CDEA2797AECF8353F924FB44E193D409E5248504B332A3D0D10FC95B4901C39B3C6F85F3248B49871801506CE266BC2B243D2688FDA47549B11775038871E12F988C7004EDE7016A9083E2ADC3D5D84BC8B09
310
D33C8D74D471E6BC8D0192EDC93A815B742658898E651BCB59086ADC356A8C3FD555A1055ED7E7E254D615792D0F075295F585746FF53B694EE78A565DD736979A65AB9933AFE69F8CD2A2F038022F28ED489E135A7CE4554F9BBEA85E68DB53CAB255FEC71496F19FA6A0B42F8B3DEE6673C0F318E4497096AD7DC5F52C33
310
EEB55BFE0D504B010214000A0000080000CC70623B3DEE336E79000000790000001B00000000000000000000000000000000006175746F6465736B2D64657369676E2D7061636B6167652E786D6C504B01021400140006080800CC70623BD486FD9CA0000000F40000001300000000000000000000000000B20000005B436F
310
6E74656E745F54797065735D2E786D6C504B01021400140006080800CC70623BD9DDAED0EC0000007C010000080000000000000000000000000083010000636F72652E786D6C504B01021400140006080800CC70623B55019EA25F0000007C000000070000000000000000000000000095020000636E782E786D6C504B0102
310
1400140006080800CC70623BA24EB22D72010000D40300000C00000000000000000000000000190300006662782F636F72652E786D6C504B01021400140006080800CC70623B408A7D3B7C0000009D0000000B00000000000000000000000000B50400006662782F636E782E786D6C504B01021400140006080800CC70623B
310
449FB9BD290100001202000031000000000000000000000000005A0500006662782F36394639363044362D344446342D343946362D394244322D3234314243333846323333332F636F72652E786D6C504B01021400140006080800CC70623BAD7543B64E010000330300003000000000000000000000000000D20600006662
310
782F36394639363044362D344446342D343946362D394244322D3234314243333846323333332F636E782E786D6C504B01021400140006080800CC70623B8D05915C650500003B10000034000000000000000000000000006E0800006662782F36394639363044362D344446342D343946362D394244322D32343142433338
310
46323333332F6F626A656374732E786D6C504B01021400140006080000CC70623B0000000000000000000000003500000000000000000000000000250E00006662782F36394639363044362D344446342D343946362D394244322D3234314243333846323333332F76657274696365732E62696E504B010214001400060808
310
00CC70623BF270F13306000000040000003600000000000000000000000000780E00006662782F36394639363044362D344446342D343946362D394244322D3234314243333846323333332F747269616E676C65732E62696E504B01021400140006080000CC70623B00000000000000000000000037000000000000000000
310
00000000D20E00006662782F36394639363044362D344446342D343946362D394244322D3234314243333846323333332F617474726962757465732E62696E504B01021400140006080800CC70623B08DA0BD190000000410100003600000000000000000000000000270F00006662782F36394639363044362D344446342D
310
343946362D394244322D3234314243333846323333332F6469726563746F72792E786D6C504B01021400140006080800CC70623BCA768048FE000000A00100003B000000000000000000000000000B1000006662782F36394639363044362D344446342D343946362D394244322D3234314243333846323333332F7265736F
310
75726365732F636F72652E786D6C504B0506000000000E000E0080040000621100000000
  0
XRECORD
  5
176
102
{ACAD_REACTORS
330
173
102
}
330
173
100
AcDbXrecord
280
1
270
1
271
1
  0
XRECORD
  5
177
102
{ACAD_REACTORS
330
173
102
}
330
173
100
AcDbXrecord
280
1
270
1
271
1
  0
CELLSTYLEMAP
  5
83B
102
{ACAD_REACTORS
330
162
102
}
330
162
100
AcDbCellStyleMap
 90
3
300
CELLSTYLE
  1
TABLEFORMAT_BEGIN
 90
5
170
1
 91
0
 92
32768
 62
257
 93
1
300
CONTENTFORMAT
  1
CONTENTFORMAT_BEGIN
 90
0
 91
0
 92
512
 93
0
300

 40
0.0
140
1.0
 94
5
 62
0
340
11
144
6.0
309
CONTENTFORMAT_END
171
1
301
MARGIN
  1
CELLMARGIN_BEGIN
 40
1.5
 40
1.5
 40
1.5
 40
1.5
 40
0.18
 40
0.18
309
CELLMARGIN_END
 94
6
 95
1
302
GRIDFORMAT
  1
GRIDFORMAT_BEGIN
 90
0
 91
1
 62
0
 92
-2
340
14
 93
0
 40
1.125
309
GRIDFORMAT_END
 95
2
302
GRIDFORMAT
  1
GRIDFORMAT_BEGIN
 90
0
 91
1
 62
0
 92
-2
340
14
 93
0
 40
1.125
309
GRIDFORMAT_END
 95
4
302
GRIDFORMAT
  1
GRIDFORMAT_BEGIN
 90
0
 91
1
 62
0
 92
-2
340
14
 93
0
 40
1.125
309
GRIDFORMAT_END
 95
8
302
GRIDFORMAT
  1
GRIDFORMAT_BEGIN
 90
0
 91
1
 62
0
 92
-2
340
14
 93
0
 40
1.125
309
GRIDFORMAT_END
 95
16
302
GRIDFORMAT
  1
GRIDFORMAT_BEGIN
 90
0
 91
1
 62
0
 92
-2
340
14
 93
0
 40
1.125
309
GRIDFORMAT_END
 95
32
302
GRIDFORMAT
  1
GRIDFORMAT_BEGIN
 90
0
 91
1
 62
0
 92
-2
340
14
 93
0
 40
1.125
309
GRIDFORMAT_END
309
TABLEFORMAT_END
  1
CELLSTYLE_BEGIN
 90
1
 91
1
300
_TITLE
309
CELLSTYLE_END
300
CELLSTYLE
  1
TABLEFORMAT_BEGIN
 90
5
170
1
 91
0
 92
0
 62
257
 93
1
300
CONTENTFORMAT
  1
CONTENTFORMAT_BEGIN
 90
0
 91
0
 92
512
 93
0
300

 40
0.0
140
1.0
 94
5
 62
0
340
11
144
4.5
309
CONTENTFORMAT_END
171
1
301
MARGIN
  1
CELLMARGIN_BEGIN
 40
1.5
 40
1.5
 40
1.5
 40
1.5
 40
0.18
 40
0.18
309
CELLMARGIN_END
 94
6
 95
1
302
GRIDFORMAT
  1
GRIDFORMAT_BEGIN
 90
0
 91
1
 62
0
 92
-2
340
14
 93
0
 40
1.125
309
GRIDFORMAT_END
 95
2
302
GRIDFORMAT
  1
GRIDFORMAT_BEGIN
 90
0
 91
1
 62
0
 92
-2
340
14
 93
0
 40
1.125
309
GRIDFORMAT_END
 95
4
302
GRIDFORMAT
  1
GRIDFORMAT_BEGIN
 90
0
 91
1
 62
0
 92
-2
340
14
 93
0
 40
1.125
309
GRIDFORMAT_END
 95
8
302
GRIDFORMAT
  1
GRIDFORMAT_BEGIN
 90
0
 91
1
 62
0
 92
-2
340
14
 93
0
 40
1.125
309
GRIDFORMAT_END
 95
16
302
GRIDFORMAT
  1
GRIDFORMAT_BEGIN
 90
0
 91
1
 62
0
 92
-2
340
14
 93
0
 40
1.125
309
GRIDFORMAT_END
 95
32
302
GRIDFORMAT
  1
GRIDFORMAT_BEGIN
 90
0
 91
1
 62
0
 92
-2
340
14
 93
0
 40
1.125
309
GRIDFORMAT_END
309
TABLEFORMAT_END
  1
CELLSTYLE_BEGIN
 90
2
 91
1
300
_HEADER
309
CELLSTYLE_END
300
CELLSTYLE
  1
TABLEFORMAT_BEGIN
 90
5
170
1
 91
0
 92
0
 62
257
 93
1
300
CONTENTFORMAT
  1
CONTENTFORMAT_BEGIN
 90
0
 91
0
 92
512
 93
0
300

 40
0.0
140
1.0
 94
2
 62
0
340
11
144
4.5
309
CONTENTFORMAT_END
171
1
301
MARGIN
  1
CELLMARGIN_BEGIN
 40
1.5
 40
1.5
 40
1.5
 40
1.5
 40
0.18
 40
0.18
309
CELLMARGIN_END
 94
6
 95
1
302
GRIDFORMAT
  1
GRIDFORMAT_BEGIN
 90
0
 91
1
 62
0
 92
-2
340
14
 93
0
 40
1.125
309
GRIDFORMAT_END
 95
2
302
GRIDFORMAT
  1
GRIDFORMAT_BEGIN
 90
0
 91
1
 62
0
 92
-2
340
14
 93
0
 40
1.125
309
GRIDFORMAT_END
 95
4
302
GRIDFORMAT
  1
GRIDFORMAT_BEGIN
 90
0
 91
1
 62
0
 92
-2
340
14
 93
0
 40
1.125
309
GRIDFORMAT_END
 95
8
302
GRIDFORMAT
  1
GRIDFORMAT_BEGIN
 90
0
 91
1
 62
0
 92
-2
340
14
 93
0
 40
1.125
309
GRIDFORMAT_END
 95
16
302
GRIDFORMAT
  1
GRIDFORMAT_BEGIN
 90
0
 91
1
 62
0
 92
-2
340
14
 93
0
 40
1.125
309
GRIDFORMAT_END
 95
32
302
GRIDFORMAT
  1
GRIDFORMAT_BEGIN
 90
0
 91
1
 62
0
 92
-2
340
14
 93
0
 40
1.125
309
GRIDFORMAT_END
309
TABLEFORMAT_END
  1
CELLSTYLE_BEGIN
 90
3
 91
2
300
_DATA
309
CELLSTYLE_END
  0
ENDSEC
  0
SECTION
  2
ACDSDATA
 70
2
 71
8
  0
ACDSSCHEMA
 90
0
  1
AcDb_Thumbnail_Schema
  2
AcDbDs::ID
280
10
 91
8
  2
Thumbnail_Data
280
15
 91
0
101
ACDSRECORD
 95
0
 90
1
  2
AcDbDs::TreatedAsObjectData
280
1
291
1
101
ACDSRECORD
 95
0
 90
2
  2
AcDbDs::Legacy
280
1
291
1
101
ACDSRECORD
  1
AcDbDs::ID
 90
3
  2
AcDs:Indexable
280
1
291
1
101
ACDSRECORD
  1
AcDbDs::ID
 90
4
  2
AcDbDs::HandleAttribute
280
7
282
1
  0
ACDSSCHEMA
 90
1
  1
AcDbDs::TreatedAsObjectDataSchema
  2
AcDbDs::TreatedAsObjectData
280
1
 91
0
  0
ACDSSCHEMA
 90
2
  1
AcDbDs::LegacySchema
  2
AcDbDs::Legacy
280
1
 91
0
  0
ACDSSCHEMA
 90
3
  1
AcDbDs::IndexedPropertySchema
  2
AcDs:Indexable
280
1
 91
0
  0
ACDSSCHEMA
 90
4
  1
AcDbDs::HandleAttributeSchema
  2
AcDbDs::HandleAttribute
280
7
 91
1
284
1
  0
ACDSRECORD
 90
0
  2
AcDbDs::ID
280
10
320
22
  2
Thumbnail_Data
280
15
 94
896
310
89504E470D0A1A0A0000000D49484452000001000000009108030000001BE1960600000300504C5445212830FFFFFF2128300000000000000000000000000000000000000000000000000000330000660000990000CC0000FF0033000033330033660033990033CC0033FF0066000066330066660066990066CC0066FF0099
310
000099330099660099990099CC0099FF00CC0000CC3300CC6600CC9900CCCC00CCFF00FF0000FF3300FF6600FF9900FFCC00FFFF3300003300333300663300993300CC3300FF3333003333333333663333993333CC3333FF3366003366333366663366993366CC3366FF3399003399333399663399993399CC3399FF33CC00
310
33CC3333CC6633CC9933CCCC33CCFF33FF0033FF3333FF6633FF9933FFCC33FFFF6600006600336600666600996600CC6600FF6633006633336633666633996633CC6633FF6666006666336666666666996666CC6666FF6699006699336699666699996699CC6699FF66CC0066CC3366CC6666CC9966CCCC66CCFF66FF0066
310
FF3366FF6666FF9966FFCC66FFFF9900009900339900669900999900CC9900FF9933009933339933669933999933CC9933FF9966009966339966669966999966CC9966FF9999009999339999669999999999CC9999FF99CC0099CC3399CC6699CC9999CCCC99CCFF99FF0099FF3399FF6699FF9999FFCC99FFFFCC0000CC00
310
33CC0066CC0099CC00CCCC00FFCC3300CC3333CC3366CC3399CC33CCCC33FFCC6600CC6633CC6666CC6699CC66CCCC66FFCC9900CC9933CC9966CC9999CC99CCCC99FFCCCC00CCCC33CCCC66CCCC99CCCCCCCCCCFFCCFF00CCFF33CCFF66CCFF99CCFFCCCCFFFFFF0000FF0033FF0066FF0099FF00CCFF00FFFF3300FF3333
310
FF3366FF3399FF33CCFF33FFFF6600FF6633FF6666FF6699FF66CCFF66FFFF9900FF9933FF9966FF9999FF99CCFF99FFFFCC00FFCC33FFCC66FFCC99FFCCCCFFCCFFFFFF00FFFF33FFFF66FFFF99FFFFCCFFFFFF0000000D0D0D1A1A1A2828283535354343435050505D5D5D6B6B6B787878868686939393A1A1A1AEAEAEBB
310
BBBBC9C9C9D6D6D6E4E4E4F1F1F1FFFFFF0000000000000000000000000000000000000000000000000000000000002E4550F10000003B4944415478DAEDC13101000000C2A0F54F6D0B2FA0000000000000000000000000000000000000000000000000000000000000000000000000CE06919100016C9A5B1B0000000049
310
454E44AE426082
  0
ENDSEC
  0
EOF
